<?xml version="1.0" encoding="UTF-8" standalone="no"?>
<svg
   xmlns:osb="http://www.openswatchbook.org/uri/2009/osb"
   xmlns:dc="http://purl.org/dc/elements/1.1/"
   xmlns:cc="http://creativecommons.org/ns#"
   xmlns:rdf="http://www.w3.org/1999/02/22-rdf-syntax-ns#"
   xmlns:svg="http://www.w3.org/2000/svg"
   xmlns="http://www.w3.org/2000/svg"
   xmlns:xlink="http://www.w3.org/1999/xlink"
   xmlns:sodipodi="http://sodipodi.sourceforge.net/DTD/sodipodi-0.dtd"
   xmlns:inkscape="http://www.inkscape.org/namespaces/inkscape"
   style="fill-opacity:1; color-rendering:auto; color-interpolation:auto; text-rendering:auto; stroke:black; stroke-linecap:square; stroke-miterlimit:10; shape-rendering:auto; stroke-opacity:1; fill:black; stroke-dasharray:none; font-weight:normal; stroke-width:1; font-family:'Dialog'; font-style:normal; stroke-linejoin:miter; font-size:12px; stroke-dashoffset:0; image-rendering:auto;"
   width="554"
   height="413"
   version="1.1"
   id="svg165"
   sodipodi:docname="level_scheme_v4.svg"
   inkscape:version="0.92.4 (5da689c313, 2019-01-14)">
  <metadata
     id="metadata169">
    <rdf:RDF>
      <cc:Work
         rdf:about="">
        <dc:format>image/svg+xml</dc:format>
        <dc:type
           rdf:resource="http://purl.org/dc/dcmitype/StillImage" />
        <dc:title></dc:title>
      </cc:Work>
    </rdf:RDF>
  </metadata>
  <sodipodi:namedview
     pagecolor="#ffffff"
     bordercolor="#666666"
     borderopacity="1"
     objecttolerance="10"
     gridtolerance="10"
     guidetolerance="10"
     inkscape:pageopacity="0"
     inkscape:pageshadow="2"
     inkscape:window-width="1920"
     inkscape:window-height="1137"
     id="namedview167"
     showgrid="false"
     inkscape:zoom="1.6031157"
     inkscape:cx="121.87283"
     inkscape:cy="212.20165"
     inkscape:window-x="-8"
     inkscape:window-y="-8"
     inkscape:window-maximized="1"
     inkscape:current-layer="layer9"
     showguides="false"
     inkscape:pagecheckerboard="true">
    <inkscape:grid
       type="xygrid"
       id="grid1195" />
  </sodipodi:namedview>
  <!--Generated by the Batik Graphics2D SVG Generator-->
  <defs
     id="genericDefs">
    <pattern
       inkscape:isstock="true"
       inkscape:stockid="Stripes 1:1"
       id="Strips1_1"
       patternTransform="translate(0,0) scale(10,10)"
       height="1"
       width="2"
       patternUnits="userSpaceOnUse"
       inkscape:collect="always">
      <rect
         id="rect1913"
         height="2"
         width="1"
         y="-0.5"
         x="0"
         style="fill:black;stroke:none" />
    </pattern>
    <linearGradient
       id="linearGradient8752"
       osb:paint="solid">
      <stop
         style="stop-color:#ffffff;stop-opacity:1;"
         offset="0"
         id="stop8750" />
    </linearGradient>
    <marker
       inkscape:stockid="Arrow2Lend"
       orient="auto"
       refY="0"
       refX="0"
       id="marker7792"
       style="overflow:visible"
       inkscape:isstock="true">
      <path
         inkscape:connector-curvature="0"
         id="path7790"
         style="fill:#240a00;fill-opacity:1;fill-rule:evenodd;stroke:#240a00;stroke-width:0.625;stroke-linejoin:round;stroke-opacity:1"
         d="M 8.7185878,4.0337352 -2.2072895,0.01601326 8.7185884,-4.0017078 c -1.7454984,2.3720609 -1.7354408,5.6174519 -6e-7,8.035443 z"
         transform="matrix(-1.1,0,0,-1.1,-1.1,0)" />
    </marker>
    <marker
       inkscape:isstock="true"
       style="overflow:visible"
       id="marker6027"
       refX="0"
       refY="0"
       orient="auto"
       inkscape:stockid="Arrow2Lend"
       inkscape:collect="always">
      <path
         transform="matrix(-1.1,0,0,-1.1,-1.1,0)"
         d="M 8.7185878,4.0337352 -2.2072895,0.01601326 8.7185884,-4.0017078 c -1.7454984,2.3720609 -1.7354408,5.6174519 -6e-7,8.035443 z"
         style="fill:#000000;fill-opacity:1;fill-rule:evenodd;stroke:#000000;stroke-width:0.625;stroke-linejoin:round;stroke-opacity:1"
         id="path6025"
         inkscape:connector-curvature="0" />
    </marker>
    <marker
       inkscape:isstock="true"
       style="overflow:visible"
       id="marker4813"
       refX="0"
       refY="0"
       orient="auto"
       inkscape:stockid="Arrow2Lend">
      <path
         inkscape:connector-curvature="0"
         transform="matrix(-1.1,0,0,-1.1,-1.1,0)"
         d="M 8.7185878,4.0337352 -2.2072895,0.01601326 8.7185884,-4.0017078 c -1.7454984,2.3720609 -1.7354408,5.6174519 -6e-7,8.035443 z"
         style="fill:#4a0000;fill-opacity:1;fill-rule:evenodd;stroke:#4a0000;stroke-width:0.625;stroke-linejoin:round;stroke-opacity:1"
         id="path4811" />
    </marker>
    <marker
       inkscape:stockid="Arrow2Lend"
       orient="auto"
       refY="0"
       refX="0"
       id="marker4705"
       style="overflow:visible"
       inkscape:isstock="true"
       inkscape:collect="always">
      <path
         id="path4703"
         style="fill:#b60000;fill-opacity:1;fill-rule:evenodd;stroke:#b60000;stroke-width:0.625;stroke-linejoin:round;stroke-opacity:1"
         d="M 8.7185878,4.0337352 -2.2072895,0.01601326 8.7185884,-4.0017078 c -1.7454984,2.3720609 -1.7354408,5.6174519 -6e-7,8.035443 z"
         transform="matrix(-1.1,0,0,-1.1,-1.1,0)"
         inkscape:connector-curvature="0" />
    </marker>
    <marker
       inkscape:stockid="Arrow2Lend"
       orient="auto"
       refY="0"
       refX="0"
       id="marker4308"
       style="overflow:visible"
       inkscape:isstock="true">
      <path
         id="path4306"
         style="fill:#f70000;fill-opacity:1;fill-rule:evenodd;stroke:#f70000;stroke-width:0.625;stroke-linejoin:round;stroke-opacity:1"
         d="M 8.7185878,4.0337352 -2.2072895,0.01601326 8.7185884,-4.0017078 c -1.7454984,2.3720609 -1.7354408,5.6174519 -6e-7,8.035443 z"
         transform="matrix(-1.1,0,0,-1.1,-1.1,0)"
         inkscape:connector-curvature="0" />
    </marker>
    <marker
       inkscape:isstock="true"
       style="overflow:visible"
       id="marker4200"
       refX="0"
       refY="0"
       orient="auto"
       inkscape:stockid="Arrow2Lend"
       inkscape:collect="always">
      <path
         inkscape:connector-curvature="0"
         transform="matrix(-1.1,0,0,-1.1,-1.1,0)"
         d="M 8.7185878,4.0337352 -2.2072895,0.01601326 8.7185884,-4.0017078 c -1.7454984,2.3720609 -1.7354408,5.6174519 -6e-7,8.035443 z"
         style="fill:#f70000;fill-opacity:1;fill-rule:evenodd;stroke:#f70000;stroke-width:0.625;stroke-linejoin:round;stroke-opacity:1"
         id="path4198" />
    </marker>
    <marker
       inkscape:stockid="Arrow2Lend"
       orient="auto"
       refY="0"
       refX="0"
       id="marker4110"
       style="overflow:visible"
       inkscape:isstock="true"
       inkscape:collect="always">
      <path
         id="path4108"
         style="fill:#f70000;fill-opacity:1;fill-rule:evenodd;stroke:#f70000;stroke-width:0.625;stroke-linejoin:round;stroke-opacity:1"
         d="M 8.7185878,4.0337352 -2.2072895,0.01601326 8.7185884,-4.0017078 c -1.7454984,2.3720609 -1.7354408,5.6174519 -6e-7,8.035443 z"
         transform="matrix(-1.1,0,0,-1.1,-1.1,0)"
         inkscape:connector-curvature="0" />
    </marker>
    <marker
       inkscape:isstock="true"
       style="overflow:visible"
       id="marker3200"
       refX="0"
       refY="0"
       orient="auto"
       inkscape:stockid="Arrow2Lend">
      <path
         inkscape:connector-curvature="0"
         transform="matrix(-1.1,0,0,-1.1,-1.1,0)"
         d="M 8.7185878,4.0337352 -2.2072895,0.01601326 8.7185884,-4.0017078 c -1.7454984,2.3720609 -1.7354408,5.6174519 -6e-7,8.035443 z"
         style="fill:#000073;fill-opacity:1;fill-rule:evenodd;stroke:#000073;stroke-width:0.625;stroke-linejoin:round;stroke-opacity:1"
         id="path3198" />
    </marker>
    <marker
       inkscape:stockid="Arrow2Lend"
       orient="auto"
       refY="0"
       refX="0"
       id="marker2936"
       style="overflow:visible"
       inkscape:isstock="true">
      <path
         id="path2934"
         style="fill:#410d5e;fill-opacity:1;fill-rule:evenodd;stroke:#410d5e;stroke-width:0.625;stroke-linejoin:round;stroke-opacity:1"
         d="M 8.7185878,4.0337352 -2.2072895,0.01601326 8.7185884,-4.0017078 c -1.7454984,2.3720609 -1.7354408,5.6174519 -6e-7,8.035443 z"
         transform="matrix(-1.1,0,0,-1.1,-1.1,0)"
         inkscape:connector-curvature="0" />
    </marker>
    <marker
       inkscape:stockid="StopL"
       orient="auto"
       refY="0"
       refX="0"
       id="StopL"
       style="overflow:visible"
       inkscape:isstock="true">
      <path
         inkscape:connector-curvature="0"
         id="path5204"
         d="M 0,5.65 V -5.65"
         style="fill:none;fill-opacity:0.75;fill-rule:evenodd;stroke:#000000;stroke-width:1.00000003pt;stroke-opacity:1"
         transform="scale(0.8)" />
    </marker>
    <marker
       inkscape:isstock="true"
       style="overflow:visible"
       id="marker6729"
       refX="0"
       refY="0"
       orient="auto"
       inkscape:stockid="Arrow2Lend"
       inkscape:collect="always">
      <path
         inkscape:connector-curvature="0"
         transform="matrix(-1.1,0,0,-1.1,-1.1,0)"
         d="M 8.7185878,4.0337352 -2.2072895,0.01601326 8.7185884,-4.0017078 c -1.7454984,2.3720609 -1.7354408,5.6174519 -6e-7,8.035443 z"
         style="fill:#000000;fill-opacity:1;fill-rule:evenodd;stroke:#000000;stroke-width:0.625;stroke-linejoin:round;stroke-opacity:1"
         id="path6727" />
    </marker>
    <path
       style="fill:none;stroke:#410d5e;stroke-width:0.95495975px;stroke-linecap:butt;stroke-linejoin:miter;stroke-opacity:1;marker-end:url(#marker1208)"
       d="M 373.64737,182.82324 268.40831,263.91532"
       id="path6399"
       inkscape:connector-curvature="0" />
    <marker
       inkscape:isstock="true"
       style="overflow:visible"
       id="marker1208"
       refX="0"
       refY="0"
       orient="auto"
       inkscape:stockid="Arrow2Lend">
      <path
         inkscape:connector-curvature="0"
         transform="matrix(-1.1,0,0,-1.1,-1.1,0)"
         d="M 8.7185878,4.0337352 -2.2072895,0.01601326 8.7185884,-4.0017078 c -1.7454984,2.3720609 -1.7354408,5.6174519 -6e-7,8.035443 z"
         style="fill:#410d5e;fill-opacity:1;fill-rule:evenodd;stroke:#410d5e;stroke-width:0.625;stroke-linejoin:round;stroke-opacity:1"
         id="path1206" />
    </marker>
    <path
       style="fill:none;stroke:#410d5e;stroke-width:0.935;stroke-linecap:butt;stroke-linejoin:miter;stroke-miterlimit:10;stroke-dasharray:none;stroke-opacity:1;marker-end:url(#marker1366)"
       d="M 245.18523,264.65674 261.17614,70.463148"
       id="path8562"
       inkscape:connector-curvature="0" />
    <path
       style="fill:none;stroke:#410d5e;stroke-width:0.99070114;stroke-linecap:butt;stroke-linejoin:miter;stroke-miterlimit:10;stroke-dasharray:none;stroke-opacity:1;marker-end:url(#marker6469);paint-order:fill markers stroke"
       d="M 266.16284,71.138209 375.53721,172.83138"
       id="path5647"
       inkscape:connector-curvature="0" />
    <marker
       inkscape:isstock="true"
       style="overflow:visible"
       id="marker6469"
       refX="0"
       refY="0"
       orient="auto"
       inkscape:stockid="Arrow2Lend"
       inkscape:collect="always">
      <path
         inkscape:connector-curvature="0"
         transform="matrix(-1.1,0,0,-1.1,-1.1,0)"
         d="M 8.7185878,4.0337352 -2.2072895,0.01601326 8.7185884,-4.0017078 c -1.7454984,2.3720609 -1.7354408,5.6174519 -6e-7,8.035443 z"
         style="fill:#410d5e;fill-opacity:1;fill-rule:evenodd;stroke:#410d5e;stroke-width:0.625;stroke-linejoin:round;stroke-opacity:1"
         id="path6467" />
    </marker>
    <marker
       inkscape:isstock="true"
       style="overflow:visible"
       id="marker1366"
       refX="0"
       refY="0"
       orient="auto"
       inkscape:stockid="Arrow2Lend">
      <path
         inkscape:connector-curvature="0"
         transform="matrix(-1.1,0,0,-1.1,-1.1,0)"
         d="M 8.7185878,4.0337352 -2.2072895,0.01601326 8.7185884,-4.0017078 c -1.7454984,2.3720609 -1.7354408,5.6174519 -6e-7,8.035443 z"
         style="fill:#410d5e;fill-opacity:1;fill-rule:evenodd;stroke:#410d5e;stroke-width:0.625;stroke-linejoin:round;stroke-opacity:1"
         id="path1364" />
    </marker>
    <marker
       inkscape:stockid="Arrow2Lend"
       orient="auto"
       refY="0"
       refX="0"
       id="marker3122"
       style="overflow:visible"
       inkscape:isstock="true"
       inkscape:collect="always">
      <path
         id="path3120"
         style="fill:#000000;fill-opacity:1;fill-rule:evenodd;stroke:#000000;stroke-width:0.625;stroke-linejoin:round;stroke-opacity:1"
         d="M 8.7185878,4.0337352 -2.2072895,0.01601326 8.7185884,-4.0017078 c -1.7454984,2.3720609 -1.7354408,5.6174519 -6e-7,8.035443 z"
         transform="matrix(-1.1,0,0,-1.1,-1.1,0)"
         inkscape:connector-curvature="0" />
    </marker>
    <marker
       inkscape:isstock="true"
       style="overflow:visible"
       id="marker3038"
       refX="0"
       refY="0"
       orient="auto"
       inkscape:stockid="Arrow2Lend"
       inkscape:collect="always">
      <path
         inkscape:connector-curvature="0"
         transform="matrix(-1.1,0,0,-1.1,-1.1,0)"
         d="M 8.7185878,4.0337352 -2.2072895,0.01601326 8.7185884,-4.0017078 c -1.7454984,2.3720609 -1.7354408,5.6174519 -6e-7,8.035443 z"
         style="fill:#000000;fill-opacity:1;fill-rule:evenodd;stroke:#000000;stroke-width:0.625;stroke-linejoin:round;stroke-opacity:1"
         id="path3036" />
    </marker>
    <marker
       inkscape:stockid="Arrow2Lend"
       orient="auto"
       refY="0"
       refX="0"
       id="marker2972"
       style="overflow:visible"
       inkscape:isstock="true"
       inkscape:collect="always">
      <path
         id="path2970"
         style="fill:#000000;fill-opacity:1;fill-rule:evenodd;stroke:#000000;stroke-width:0.625;stroke-linejoin:round;stroke-opacity:1"
         d="M 8.7185878,4.0337352 -2.2072895,0.01601326 8.7185884,-4.0017078 c -1.7454984,2.3720609 -1.7354408,5.6174519 -6e-7,8.035443 z"
         transform="matrix(-1.1,0,0,-1.1,-1.1,0)"
         inkscape:connector-curvature="0" />
    </marker>
    <path
       style="fill:none;stroke:#f70000;stroke-width:1px;stroke-linecap:butt;stroke-linejoin:miter;stroke-opacity:1;marker-end:url(#marker4110)"
       d="m 267.8607,79.9931 134.48081,36.08511"
       id="path4100-7"
       inkscape:connector-curvature="0" />
    <path
       style="font-style:normal;font-weight:normal;font-size:12px;font-family:Dialog;opacity:0.31999996;color-interpolation:auto;fill:none;fill-opacity:1;stroke:#000000;stroke-width:1px;stroke-linecap:butt;stroke-linejoin:miter;stroke-miterlimit:10;stroke-dasharray:none;stroke-dashoffset:0;stroke-opacity:1;marker-end:url(#marker2972);color-rendering:auto;image-rendering:auto;shape-rendering:auto;text-rendering:auto"
       d="m 412.12987,202.12088 -150.14999,65.9771"
       id="path2962-8"
       inkscape:connector-curvature="0" />
    <path
       style="fill:none;stroke:#000000;stroke-width:0.99400121;stroke-linecap:butt;stroke-linejoin:miter;stroke-miterlimit:10;stroke-dasharray:none;stroke-opacity:1;marker-end:url(#marker9073)"
       d="M 71.735307,368.71124 72.359092,24.986364"
       id="path9063"
       inkscape:connector-curvature="0"
       sodipodi:nodetypes="cc" />
    <marker
       inkscape:stockid="Arrow2Lend"
       orient="auto"
       refY="0"
       refX="0"
       id="marker9073"
       style="overflow:visible"
       inkscape:isstock="true"
       inkscape:collect="always">
      <path
         inkscape:connector-curvature="0"
         id="path9071"
         style="fill:#000000;fill-opacity:1;fill-rule:evenodd;stroke:#000000;stroke-width:0.625;stroke-linejoin:round;stroke-opacity:1"
         d="M 8.7185878,4.0337352 -2.2072895,0.01601326 8.7185884,-4.0017078 c -1.7454984,2.3720609 -1.7354408,5.6174519 -6e-7,8.035443 z"
         transform="matrix(-1.1,0,0,-1.1,-1.1,0)" />
    </marker>
  </defs>
  <g
     id="g163">
    <defs
       id="defs1">
      <clipPath
         clipPathUnits="userSpaceOnUse"
         id="clipPath1">
        <path
           d="M0 0 L554 0 L554 413 L0 413 L0 0 Z"
           id="path3" />
      </clipPath>
    </defs>
    <g
       style="fill:#ffffff;stroke:#ffffff"
       id="g9"
       transform="matrix(1.0271827,0,0,0.96561773,3.7427118,8.2873669)">
      <rect
         x="0"
         y="0"
         width="554"
         style="stroke:none"
         height="413"
         clip-path="url(#clipPath1)"
         id="rect7"
         transform="scale(0.95270942,0.93505383)" />
    </g>
    <g
       style="color-interpolation:linearRGB;stroke-width:2.66669989;stroke-linecap:butt;stroke-linejoin:round;color-rendering:optimizeQuality;image-rendering:optimizeQuality;text-rendering:geometricPrecision"
       id="g17"
       transform="translate(-34)">
      <line
         y2="345.53339"
         style="fill:none"
         x1="98.8125"
         x2="152.4375"
         y1="345.53339"
         id="line15" />
    </g>
    <g
       transform="translate(80.9,364.2556)"
       style="font-size:25.20000076px;font-family:mwa_cmr10;color-interpolation:linearRGB;color-rendering:optimizeQuality;image-rendering:optimizeQuality;text-rendering:geometricPrecision"
       id="g27">
      <path
         style="stroke:none"
         d="m 2.3125,6.0479 v -0.875 q 3.125,0 3.125,-0.7969 V -8.749 q -1.2813,0.625 -3.2656,0.625 v -0.875 q 3.0625,0 4.625,-1.6093 h 0.3593 q 0.0782,0 0.1563,0.0703 0.0781,0.0703 0.0781,0.1484 V 4.376 q 0,0.7969 3.125,0.7969 v 0.875 z"
         id="path19"
         inkscape:connector-curvature="0" />
      <path
         style="stroke:none"
         d="m 14.2719,-3.097 v -0.6406 q 2.25,0 2.25,-0.5625 v -9.4531 q -0.9375,0.4531 -2.3594,0.4531 v -0.6406 q 2.2032,0 3.3282,-1.1406 h 0.2656 q 0.0625,0 0.1172,0.0468 0.0547,0.0469 0.0547,0.1094 v 10.625 q 0,0.5625 2.25,0.5625 v 0.6406 z"
         id="path21"
         inkscape:connector-curvature="0" />
      <path
         style="stroke:none"
         d="m 24.2113,6.5948 q -0.0781,0 -0.1406,-0.086 Q 24.0082,6.4229 24.0082,6.3604 L 25.4457,0.5167 Q 25.4925,0.376 25.6644,0.376 h 0.2813 q 0.1093,0 0.164,0.0703 0.0547,0.0704 0.0547,0.1797 -0.2187,0.8594 -0.2187,1.5313 0,1.7969 1.25,2.6797 1.25,0.8828 3.1406,0.8828 0.8125,0 1.6094,-0.4063 0.7968,-0.4062 1.3906,-1.0468 0.5937,-0.6407 0.9453,-1.4454 0.3516,-0.8046 0.3516,-1.6171 0,-0.875 -0.4688,-1.5704 -0.4687,-0.6953 -1.2812,-0.8828 l -3.0469,-0.8125 q -1.2344,-0.3281 -1.9688,-1.3203 -0.7343,-0.9922 -0.7343,-2.2422 0,-1.5 0.8906,-2.8906 0.8906,-1.3906 2.3281,-2.2266 1.4375,-0.8359 2.9219,-0.8359 1.1562,0 2.1094,0.4219 0.9531,0.4219 1.4687,1.3281 l 1.4219,-1.6719 q 0.1562,-0.0781 0.1719,-0.0781 h 0.1718 q 0.0938,0 0.1563,0.0859 0.0625,0.086 0.0625,0.1641 l -1.4531,5.7969 q -0.0469,0.1719 -0.2032,0.1719 h -0.2968 q -0.2188,0 -0.2188,-0.2657 0.1094,-0.7968 0.1094,-1.375 0,-1.1562 -0.3906,-2.0234 -0.3907,-0.8672 -1.1953,-1.3125 -0.8047,-0.4453 -1.9922,-0.4453 -1,0 -1.9844,0.5781 -0.9844,0.5781 -1.5938,1.5313 -0.6093,0.9531 -0.6093,1.9687 0,0.8125 0.4687,1.4375 0.4688,0.625 1.25,0.8438 l 3.0469,0.7812 q 0.8281,0.2344 1.4453,0.7891 0.6172,0.5547 0.9375,1.3125 0.3203,0.7578 0.3203,1.664 0,1.1875 -0.5,2.3438 -0.5,1.1562 -1.3984,2.1015 -0.8985,0.9454 -2.0313,1.4844 -1.1328,0.5391 -2.3203,0.5391 -2.9844,0 -4.2812,-1.75 L 24.555,6.5167 q -0.1406,0.0781 -0.1718,0.0781 z"
         id="path23"
         inkscape:connector-curvature="0" />
      <path
         style="stroke:none"
         d="m 42.6325,10.2185 q -2.2031,0 -3,-1.8125 -0.7968,-1.8125 -0.7968,-4.3125 0,-1.5625 0.289,-2.9453 0.2891,-1.3828 1.1328,-2.3438 0.8438,-0.9609 2.375,-0.9609 1.1875,0 1.9453,0.5781 0.7579,0.5781 1.1485,1.5 0.3906,0.9219 0.539,1.9688 0.1485,1.0468 0.1485,2.2031 0,1.5469 -0.2891,2.8906 -0.289,1.3438 -1.125,2.2891 -0.8359,0.9453 -2.3672,0.9453 z m 0,-0.4688 q 1,0 1.4922,-1.0234 0.4922,-1.0234 0.6094,-2.2734 0.1172,-1.25 0.1172,-2.6563 0,-1.3594 -0.1172,-2.5 -0.1172,-1.1406 -0.6016,-2.0625 -0.4843,-0.9219 -1.5,-0.9219 -1.0156,0 -1.5078,0.9297 -0.4922,0.9297 -0.6094,2.0625 -0.1171,1.1328 -0.1171,2.4922 0,1 0.0468,1.8906 0.0469,0.8907 0.2578,1.836 0.211,0.9453 0.6875,1.5859 0.4766,0.6406 1.2422,0.6406 z"
         id="path25"
         inkscape:connector-curvature="0" />
    </g>
    <g
       style="color-interpolation:linearRGB;stroke-width:2.66669989;stroke-linecap:butt;stroke-linejoin:round;color-rendering:optimizeQuality;image-rendering:optimizeQuality;text-rendering:geometricPrecision"
       id="g31"
       transform="translate(28)">
      <line
         y2="269.2215"
         style="fill:none"
         x1="206.0625"
         x2="259.6875"
         y1="269.2215"
         id="line29" />
    </g>
    <g
       transform="translate(250.15,287.9438)"
       style="font-size:25.20000076px;font-family:mwa_cmr10;color-interpolation:linearRGB;color-rendering:optimizeQuality;image-rendering:optimizeQuality;text-rendering:geometricPrecision"
       id="g35">
      <path
         style="stroke:none"
         d="M 1.25,6.0479 V 5.376 q 0,-0.0625 0.0469,-0.1406 l 3.875,-4.2969 q 0.8906,-0.9531 1.4375,-1.5937 0.5468,-0.6406 1.0859,-1.4844 0.5391,-0.8437 0.8438,-1.7187 0.3047,-0.875 0.3047,-1.8438 0,-1.0312 -0.375,-1.9687 -0.375,-0.9375 -1.125,-1.4922 -0.75,-0.5547 -1.8126,-0.5547 -1.0937,0 -1.9609,0.6484 -0.8672,0.6485 -1.2109,1.6953 0.0937,-0.0312 0.2656,-0.0312 0.5625,0 0.9609,0.375 0.3985,0.375 0.3985,0.9844 0,0.5625 -0.3985,0.9609 -0.3984,0.3984 -0.9609,0.3984 -0.5938,0 -0.9844,-0.4062 Q 1.25,-5.499 1.25,-6.0458 q 0,-0.9375 0.3516,-1.7657 0.3515,-0.8281 1.0156,-1.4687 0.664,-0.6406 1.5,-0.9844 0.8359,-0.3437 1.7734,-0.3437 1.4375,0 2.6719,0.6093 1.2344,0.6094 1.9531,1.711 0.7188,1.1015 0.7188,2.5859 0,1.0781 -0.4766,2.0547 -0.4766,0.9766 -1.2187,1.7812 -0.7422,0.8047 -1.9063,1.8125 -1.164,1.0079 -1.5234,1.3516 L 3.2656,4.0167 h 2.4063 q 1.7812,0 2.9687,-0.0313 Q 9.8281,3.9542 9.9062,3.8917 10.1875,3.5792 10.5,1.5948 h 0.7344 l -0.7188,4.4531 z"
         id="path33"
         inkscape:connector-curvature="0" />
    </g>
    <g
       transform="translate(250.15,287.9438)"
       style="font-size:17.63999939px;font-family:mwa_cmr10;color-interpolation:linearRGB;color-rendering:optimizeQuality;image-rendering:optimizeQuality;text-rendering:geometricPrecision"
       id="g43">
      <path
         style="stroke:none"
         d="m 14.3188,-4.4876 q 0.4219,0.6094 1.1328,0.9141 0.7109,0.3047 1.5234,0.3047 1.0469,0 1.4844,-0.8907 0.4375,-0.8906 0.4375,-2.0312 0,-0.5156 -0.0859,-1.0235 -0.086,-0.5078 -0.3125,-0.9453 -0.2266,-0.4375 -0.6094,-0.7031 -0.3828,-0.2656 -0.9297,-0.2656 h -1.1875 q -0.1719,0 -0.1719,-0.1719 v -0.1562 q 0,-0.1407 0.1719,-0.1407 l 0.9844,-0.0781 q 0.6406,0 1.0547,-0.4766 0.414,-0.4765 0.6094,-1.1562 0.1953,-0.6797 0.1953,-1.2891 0,-0.8593 -0.4063,-1.414 -0.4062,-0.5547 -1.2344,-0.5547 -0.6875,0 -1.3125,0.2578 -0.625,0.2578 -0.9843,0.7891 0.0312,-0.0157 0.0547,-0.0157 0.0234,0 0.0703,0 0.4062,0 0.6718,0.2813 0.2657,0.2812 0.2657,0.6719 0,0.3906 -0.2657,0.6718 -0.2656,0.2813 -0.6718,0.2813 -0.4063,0 -0.6875,-0.2813 -0.2813,-0.2812 -0.2813,-0.6718 0,-0.7657 0.4688,-1.3438 0.4687,-0.5781 1.2031,-0.8672 0.7344,-0.289 1.4687,-0.289 0.5469,0 1.1563,0.164 0.6094,0.1641 1.1016,0.461 0.4921,0.2968 0.8046,0.7734 0.3125,0.4766 0.3125,1.0859 0,0.75 -0.3437,1.3907 -0.3438,0.6406 -0.9297,1.1093 -0.5859,0.4688 -1.2891,0.7032 0.7813,0.1406 1.4844,0.5781 0.7031,0.4375 1.1328,1.125 0.4297,0.6875 0.4297,1.4844 0,0.9843 -0.5469,1.789 -0.5468,0.8047 -1.4375,1.2578 -0.8906,0.4532 -1.875,0.4532 -0.8437,0 -1.6875,-0.3204 Q 14.4438,-3.347 13.8969,-3.9876 13.35,-4.6282 13.35,-5.5188 q 0,-0.4532 0.3047,-0.75 0.3047,-0.2969 0.7422,-0.2969 0.2969,0 0.5391,0.1328 0.2422,0.1328 0.375,0.3828 0.1328,0.25 0.1328,0.5313 0,0.4375 -0.3047,0.7343 -0.3047,0.2969 -0.7422,0.2969 z"
         id="path37"
         inkscape:connector-curvature="0" />
      <path
         style="stroke:none"
         d="m 24.2113,6.5948 q -0.0781,0 -0.1406,-0.086 Q 24.0082,6.4229 24.0082,6.3604 L 25.4457,0.5167 Q 25.4925,0.376 25.6644,0.376 h 0.2813 q 0.1093,0 0.164,0.0703 0.0547,0.0704 0.0547,0.1797 -0.2187,0.8594 -0.2187,1.5313 0,1.7969 1.25,2.6797 1.25,0.8828 3.1406,0.8828 0.8125,0 1.6094,-0.4063 0.7968,-0.4062 1.3906,-1.0468 0.5937,-0.6407 0.9453,-1.4454 0.3516,-0.8046 0.3516,-1.6171 0,-0.875 -0.4688,-1.5704 -0.4687,-0.6953 -1.2812,-0.8828 l -3.0469,-0.8125 q -1.2344,-0.3281 -1.9688,-1.3203 -0.7343,-0.9922 -0.7343,-2.2422 0,-1.5 0.8906,-2.8906 0.8906,-1.3906 2.3281,-2.2266 1.4375,-0.8359 2.9219,-0.8359 1.1562,0 2.1094,0.4219 0.9531,0.4219 1.4687,1.3281 l 1.4219,-1.6719 q 0.1562,-0.0781 0.1719,-0.0781 h 0.1718 q 0.0938,0 0.1563,0.0859 0.0625,0.086 0.0625,0.1641 l -1.4531,5.7969 q -0.0469,0.1719 -0.2032,0.1719 h -0.2968 q -0.2188,0 -0.2188,-0.2657 0.1094,-0.7968 0.1094,-1.375 0,-1.1562 -0.3906,-2.0234 -0.3907,-0.8672 -1.1953,-1.3125 -0.8047,-0.4453 -1.9922,-0.4453 -1,0 -1.9844,0.5781 -0.9844,0.5781 -1.5938,1.5313 -0.6093,0.9531 -0.6093,1.9687 0,0.8125 0.4687,1.4375 0.4688,0.625 1.25,0.8438 l 3.0469,0.7812 q 0.8281,0.2344 1.4453,0.7891 0.6172,0.5547 0.9375,1.3125 0.3203,0.7578 0.3203,1.664 0,1.1875 -0.5,2.3438 -0.5,1.1562 -1.3984,2.1015 -0.8985,0.9454 -2.0313,1.4844 -1.1328,0.5391 -2.3203,0.5391 -2.9844,0 -4.2812,-1.75 L 24.555,6.5167 q -0.1406,0.0781 -0.1718,0.0781 z"
         id="path39"
         inkscape:connector-curvature="0" />
      <path
         style="stroke:none"
         d="M 39.8044,9.8279 V 9.1872 q 2.25,0 2.25,-0.5625 v -9.4531 q -0.9375,0.4531 -2.3594,0.4531 v -0.6406 q 2.2032,0 3.3282,-1.1406 h 0.2656 q 0.0625,0 0.1172,0.0469 0.0547,0.0468 0.0547,0.1093 v 10.625 q 0,0.5625 2.25,0.5625 v 0.6407 z"
         id="path41"
         inkscape:connector-curvature="0" />
    </g>
    <g
       style="color-interpolation:linearRGB;stroke-width:2.66669989;stroke-linecap:butt;stroke-linejoin:round;color-rendering:optimizeQuality;image-rendering:optimizeQuality;text-rendering:geometricPrecision"
       id="g47"
       transform="translate(-34)">
      <line
         y2="225.71111"
         style="fill:none"
         x1="98.8125"
         x2="152.4375"
         y1="225.71111"
         id="line45" />
    </g>
    <g
       transform="translate(80.9,244.4334)"
       style="font-size:25.20000076px;font-family:mwa_cmr10;color-interpolation:linearRGB;color-rendering:optimizeQuality;image-rendering:optimizeQuality;text-rendering:geometricPrecision"
       id="g51">
      <path
         style="stroke:none"
         d="M 1.25,6.0479 V 5.376 q 0,-0.0625 0.0469,-0.1406 l 3.875,-4.2969 q 0.8906,-0.9531 1.4375,-1.5937 0.5468,-0.6406 1.0859,-1.4844 0.5391,-0.8437 0.8438,-1.7187 0.3047,-0.875 0.3047,-1.8438 0,-1.0312 -0.375,-1.9687 -0.375,-0.9375 -1.125,-1.4922 -0.75,-0.5547 -1.8126,-0.5547 -1.0937,0 -1.9609,0.6484 -0.8672,0.6485 -1.2109,1.6953 0.0937,-0.0312 0.2656,-0.0312 0.5625,0 0.9609,0.375 0.3985,0.375 0.3985,0.9844 0,0.5625 -0.3985,0.9609 -0.3984,0.3984 -0.9609,0.3984 -0.5938,0 -0.9844,-0.4062 Q 1.25,-5.499 1.25,-6.0458 q 0,-0.9375 0.3516,-1.7657 0.3515,-0.8281 1.0156,-1.4687 0.664,-0.6406 1.5,-0.9844 0.8359,-0.3437 1.7734,-0.3437 1.4375,0 2.6719,0.6093 1.2344,0.6094 1.9531,1.711 0.7188,1.1015 0.7188,2.5859 0,1.0781 -0.4766,2.0547 -0.4766,0.9766 -1.2187,1.7812 -0.7422,0.8047 -1.9063,1.8125 -1.164,1.0079 -1.5234,1.3516 L 3.2656,4.0167 h 2.4063 q 1.7812,0 2.9687,-0.0313 Q 9.8281,3.9542 9.9062,3.8917 10.1875,3.5792 10.5,1.5948 h 0.7344 l -0.7188,4.4531 z"
         id="path49"
         inkscape:connector-curvature="0" />
    </g>
    <g
       transform="translate(80.9,244.4334)"
       style="font-size:17.63999939px;font-family:mwa_cmr10;color-interpolation:linearRGB;color-rendering:optimizeQuality;image-rendering:optimizeQuality;text-rendering:geometricPrecision"
       id="g59">
      <path
         style="stroke:none"
         d="m 14.2719,-3.097 v -0.6406 q 2.25,0 2.25,-0.5625 v -9.4531 q -0.9375,0.4531 -2.3594,0.4531 v -0.6406 q 2.2032,0 3.3282,-1.1406 h 0.2656 q 0.0625,0 0.1172,0.0468 0.0547,0.0469 0.0547,0.1094 v 10.625 q 0,0.5625 2.25,0.5625 v 0.6406 z"
         id="path53"
         inkscape:connector-curvature="0" />
      <path
         style="stroke:none"
         d="m 24.2113,6.5948 q -0.0781,0 -0.1406,-0.086 Q 24.0082,6.4229 24.0082,6.3604 L 25.4457,0.5167 Q 25.4925,0.376 25.6644,0.376 h 0.2813 q 0.1093,0 0.164,0.0703 0.0547,0.0704 0.0547,0.1797 -0.2187,0.8594 -0.2187,1.5313 0,1.7969 1.25,2.6797 1.25,0.8828 3.1406,0.8828 0.8125,0 1.6094,-0.4063 0.7968,-0.4062 1.3906,-1.0468 0.5937,-0.6407 0.9453,-1.4454 0.3516,-0.8046 0.3516,-1.6171 0,-0.875 -0.4688,-1.5704 -0.4687,-0.6953 -1.2812,-0.8828 l -3.0469,-0.8125 q -1.2344,-0.3281 -1.9688,-1.3203 -0.7343,-0.9922 -0.7343,-2.2422 0,-1.5 0.8906,-2.8906 0.8906,-1.3906 2.3281,-2.2266 1.4375,-0.8359 2.9219,-0.8359 1.1562,0 2.1094,0.4219 0.9531,0.4219 1.4687,1.3281 l 1.4219,-1.6719 q 0.1562,-0.0781 0.1719,-0.0781 h 0.1718 q 0.0938,0 0.1563,0.0859 0.0625,0.086 0.0625,0.1641 l -1.4531,5.7969 q -0.0469,0.1719 -0.2032,0.1719 h -0.2968 q -0.2188,0 -0.2188,-0.2657 0.1094,-0.7968 0.1094,-1.375 0,-1.1562 -0.3906,-2.0234 -0.3907,-0.8672 -1.1953,-1.3125 -0.8047,-0.4453 -1.9922,-0.4453 -1,0 -1.9844,0.5781 -0.9844,0.5781 -1.5938,1.5313 -0.6093,0.9531 -0.6093,1.9687 0,0.8125 0.4687,1.4375 0.4688,0.625 1.25,0.8438 l 3.0469,0.7812 q 0.8281,0.2344 1.4453,0.7891 0.6172,0.5547 0.9375,1.3125 0.3203,0.7578 0.3203,1.664 0,1.1875 -0.5,2.3438 -0.5,1.1562 -1.3984,2.1015 -0.8985,0.9454 -2.0313,1.4844 -1.1328,0.5391 -2.3203,0.5391 -2.9844,0 -4.2812,-1.75 L 24.555,6.5167 q -0.1406,0.0781 -0.1718,0.0781 z"
         id="path55"
         inkscape:connector-curvature="0" />
      <path
         style="stroke:none"
         d="m 42.6325,10.2185 q -2.2031,0 -3,-1.8125 -0.7968,-1.8125 -0.7968,-4.3125 0,-1.5625 0.289,-2.9453 0.2891,-1.3828 1.1328,-2.3438 0.8438,-0.9609 2.375,-0.9609 1.1875,0 1.9453,0.5781 0.7579,0.5781 1.1485,1.5 0.3906,0.9219 0.539,1.9688 0.1485,1.0468 0.1485,2.2031 0,1.5469 -0.2891,2.8906 -0.289,1.3438 -1.125,2.2891 -0.8359,0.9453 -2.3672,0.9453 z m 0,-0.4688 q 1,0 1.4922,-1.0234 0.4922,-1.0234 0.6094,-2.2734 0.1172,-1.25 0.1172,-2.6563 0,-1.3594 -0.1172,-2.5 -0.1172,-1.1406 -0.6016,-2.0625 -0.4843,-0.9219 -1.5,-0.9219 -1.0156,0 -1.5078,0.9297 -0.4922,0.9297 -0.6094,2.0625 -0.1171,1.1328 -0.1171,2.4922 0,1 0.0468,1.8906 0.0469,0.8907 0.2578,1.836 0.211,0.9453 0.6875,1.5859 0.4766,0.6406 1.2422,0.6406 z"
         id="path57"
         inkscape:connector-curvature="0" />
    </g>
    <g
       style="color-interpolation:linearRGB;stroke-width:2.66669989;stroke-linecap:butt;stroke-linejoin:round;color-rendering:optimizeQuality;image-rendering:optimizeQuality;text-rendering:geometricPrecision"
       id="g63"
       transform="translate(78)">
      <line
         y2="203.2444"
         style="fill:none"
         x1="409.83749"
         x2="463.46249"
         y1="203.2444"
         id="line61" />
    </g>
    <g
       transform="translate(503.925,221.9666)"
       style="font-size:21.20000076px;font-family:mwa_cmr10;color-interpolation:linearRGB;color-rendering:optimizeQuality;image-rendering:optimizeQuality;text-rendering:geometricPrecision"
       id="g67">
      <path
         style="stroke:none"
         d="M 1.0469,5.0879 V 4.5254 q 0,-0.0469 0.0469,-0.1094 l 3.25,-3.6093 q 0.75,-0.8125 1.2109,-1.3516 0.4609,-0.5391 0.9062,-1.25 0.4453,-0.7109 0.711,-1.4375 0.2656,-0.7266 0.2656,-1.5547 0,-0.8594 -0.3203,-1.6484 -0.3203,-0.7891 -0.9531,-1.2578 -0.6329,-0.4688 -1.5235,-0.4688 -0.9062,0 -1.6328,0.5469 -0.7266,0.5469 -1.0234,1.4219 0.0781,-0.0157 0.2187,-0.0157 0.4688,0 0.8047,0.3125 0.336,0.3125 0.336,0.8282 0,0.4687 -0.336,0.8047 -0.3359,0.3359 -0.8047,0.3359 -0.4843,0 -0.8203,-0.3438 -0.3359,-0.3437 -0.3359,-0.7968 0,-0.7969 0.2969,-1.4844 0.2968,-0.6875 0.8593,-1.2266 0.5625,-0.539 1.2578,-0.8281 0.6953,-0.2891 1.4922,-0.2891 1.2031,0 2.2344,0.5079 1.0313,0.5078 1.6406,1.4375 0.6094,0.9296 0.6094,2.164 0,0.9063 -0.3984,1.7266 -0.3985,0.8203 -1.0235,1.4922 -0.625,0.6718 -1.6015,1.5234 Q 5.4375,0.8067 5.125,1.1035 L 2.75,3.3848 h 2.0156 q 1.4844,0 2.4844,-0.0234 1,-0.0235 1.0625,-0.086 0.25,-0.2656 0.5,-1.9375 h 0.625 l -0.5937,3.75 z"
         id="path65"
         inkscape:connector-curvature="0" />
    </g>
    <g
       transform="translate(503.925,221.9666)"
       style="font-size:14.84000015px;font-family:mwa_cmr10;color-interpolation:linearRGB;color-rendering:optimizeQuality;image-rendering:optimizeQuality;text-rendering:geometricPrecision"
       id="g75">
      <path
         style="stroke:none"
         d="m 12.0219,-3.7616 q 0.3594,0.5156 0.9531,0.7656 0.5938,0.25 1.2657,0.25 0.875,0 1.2421,-0.75 0.3672,-0.75 0.3672,-1.6875 0,-0.4219 -0.0781,-0.8516 -0.0781,-0.4297 -0.2578,-0.789 -0.1797,-0.3594 -0.5,-0.586 -0.3203,-0.2265 -0.7734,-0.2265 h -1 q -0.1407,0 -0.1407,-0.125 v -0.1407 q 0,-0.1093 0.1407,-0.1093 l 0.8281,-0.0782 q 0.5156,0 0.8672,-0.3906 0.3515,-0.3906 0.5156,-0.9609 0.1641,-0.5703 0.1641,-1.086 0,-0.7187 -0.336,-1.1797 -0.3359,-0.4609 -1.039,-0.4609 -0.5625,0 -1.086,0.2188 -0.5234,0.2187 -0.8203,0.6562 0.0313,0 0.0469,-0.0078 0.0156,-0.0078 0.0469,-0.0078 0.3437,0 0.5703,0.2344 0.2265,0.2343 0.2265,0.5625 0,0.3281 -0.2265,0.5625 -0.2266,0.2343 -0.5703,0.2343 -0.3282,0 -0.5625,-0.2343 -0.2344,-0.2344 -0.2344,-0.5625 0,-0.6407 0.3906,-1.1172 0.3906,-0.4766 1,-0.7188 0.6094,-0.2422 1.2188,-0.2422 0.4687,0 0.9687,0.1328 0.5,0.1329 0.9141,0.3829 0.414,0.25 0.6718,0.6484 0.2579,0.3984 0.2579,0.8984 0,0.6407 -0.2813,1.1719 -0.2812,0.5313 -0.7734,0.9219 -0.4922,0.3906 -1.0703,0.5781 0.6406,0.125 1.2265,0.4922 0.586,0.3672 0.9453,0.9375 0.3594,0.5703 0.3594,1.2266 0,0.8281 -0.4531,1.5 -0.4531,0.6718 -1.1953,1.0468 -0.7422,0.375 -1.5703,0.375 -0.7032,0 -1.4063,-0.2656 -0.7031,-0.2656 -1.1562,-0.8047 -0.4532,-0.539 -0.4532,-1.2734 0,-0.375 0.25,-0.625 0.25,-0.25 0.625,-0.25 0.25,0 0.4453,0.1094 0.1954,0.1093 0.3125,0.3203 0.1172,0.2109 0.1172,0.4453 0,0.3594 -0.2578,0.6094 -0.2578,0.25 -0.6172,0.25 z"
         id="path69"
         inkscape:connector-curvature="0" />
      <path
         style="stroke:none"
         d="m 20.1113,5.0879 q -0.2031,0 -0.2031,-0.2812 0,-0.0469 0.0312,-0.1719 0.0313,-0.125 0.0859,-0.2031 0.0547,-0.0782 0.1485,-0.0782 1.2812,0 1.7812,-0.1406 0.2657,-0.0937 0.3907,-0.5781 l 2.8906,-11.5313 q 0.0312,-0.2031 0.0312,-0.2812 0,-0.2344 -0.2343,-0.2656 -0.4063,-0.0782 -1.5157,-0.0782 -0.2187,0 -0.2187,-0.2812 0.0156,-0.0469 0.0469,-0.1719 0.0312,-0.125 0.0859,-0.2031 0.0547,-0.0781 0.1328,-0.0781 h 7.25 q 1,0 1.9375,0.3515 0.9375,0.3516 1.5313,1.0782 0.5937,0.7265 0.5937,1.7734 0,1.3281 -0.9375,2.375 -0.9375,1.0469 -2.3437,1.6328 -1.4063,0.5859 -2.7188,0.5859 h -3.4062 l -1.2813,5.1875 q -0.0469,0.2032 -0.0469,0.2969 0,0.0781 0.0235,0.1328 0.0234,0.0547 0.0703,0.0703 0.0469,0.0157 0.1562,0.0313 0.4063,0.0937 1.5157,0.0937 0.2031,0 0.2031,0.2657 -0.0625,0.2968 -0.1094,0.3828 -0.0469,0.0859 -0.25,0.0859 z m 5.4531,-7.1719 h 2.9531 q 2.0313,0 3.1094,-1.1093 0.5313,-0.5313 0.875,-1.5625 0.3438,-1.0313 0.3438,-1.8594 0,-1.0313 -0.7891,-1.4688 -0.7891,-0.4375 -1.9609,-0.4375 h -2 q -0.5782,0 -0.7657,0.1016 -0.1875,0.1016 -0.3281,0.6172 z"
         id="path71"
         inkscape:connector-curvature="0" />
      <path
         style="stroke:none"
         d="M 33.4407,8.2679 V 7.8616 q 0,-0.0312 0.0313,-0.0781 l 2.3281,-2.5781 q 0.5312,-0.5781 0.8594,-0.9609 0.3281,-0.3829 0.6484,-0.8907 0.3203,-0.5078 0.5078,-1.0312 0.1875,-0.5235 0.1875,-1.1016 0,-0.625 -0.2265,-1.1875 -0.2266,-0.5625 -0.6797,-0.8984 -0.4532,-0.336 -1.0938,-0.336 -0.6406,0 -1.164,0.3985 -0.5235,0.3984 -0.7422,1.0078 0.0625,-0.0156 0.1718,-0.0156 0.3282,0 0.5704,0.2265 0.2421,0.2266 0.2421,0.586 0,0.3437 -0.2421,0.5859 -0.2422,0.2422 -0.5704,0.2422 -0.3593,0 -0.5937,-0.2422 -0.2344,-0.2422 -0.2344,-0.5859 0,-0.5625 0.211,-1.0547 0.2109,-0.4922 0.6093,-0.875 0.3985,-0.3828 0.8985,-0.586 0.5,-0.2031 1.0625,-0.2031 0.8593,0 1.6015,0.3594 0.7422,0.3594 1.1719,1.0234 0.4297,0.6641 0.4297,1.5547 0,0.6406 -0.2813,1.2266 Q 38.8626,3.0335 38.4173,3.5179 37.972,4.0023 37.2688,4.6116 36.5657,5.221 36.347,5.4241 l -1.6875,1.625 h 1.4375 q 1.0625,0 1.7734,-0.0156 0.7109,-0.0156 0.7578,-0.0625 0.1719,-0.1875 0.3594,-1.375 h 0.4375 l -0.4219,2.6719 z"
         id="path73"
         inkscape:connector-curvature="0" />
    </g>
    <g
       style="color-interpolation:linearRGB;stroke-width:2.66669989;stroke-linecap:butt;stroke-linejoin:round;color-rendering:optimizeQuality;image-rendering:optimizeQuality;text-rendering:geometricPrecision"
       id="g79"
       transform="translate(78)">
      <line
         y2="171.791"
         style="fill:none"
         x1="409.83749"
         x2="463.46249"
         y1="171.791"
         id="line77" />
    </g>
    <g
       transform="translate(503.925,190.5133)"
       style="font-size:21.20000076px;font-family:mwa_cmr10;color-interpolation:linearRGB;color-rendering:optimizeQuality;image-rendering:optimizeQuality;text-rendering:geometricPrecision"
       id="g83">
      <path
         style="stroke:none"
         d="M 1.0469,5.0879 V 4.5254 q 0,-0.0469 0.0469,-0.1094 l 3.25,-3.6093 q 0.75,-0.8125 1.2109,-1.3516 0.4609,-0.5391 0.9062,-1.25 0.4453,-0.7109 0.711,-1.4375 0.2656,-0.7266 0.2656,-1.5547 0,-0.8594 -0.3203,-1.6484 -0.3203,-0.7891 -0.9531,-1.2578 -0.6329,-0.4688 -1.5235,-0.4688 -0.9062,0 -1.6328,0.5469 -0.7266,0.5469 -1.0234,1.4219 0.0781,-0.0157 0.2187,-0.0157 0.4688,0 0.8047,0.3125 0.336,0.3125 0.336,0.8282 0,0.4687 -0.336,0.8047 -0.3359,0.3359 -0.8047,0.3359 -0.4843,0 -0.8203,-0.3438 -0.3359,-0.3437 -0.3359,-0.7968 0,-0.7969 0.2969,-1.4844 0.2968,-0.6875 0.8593,-1.2266 0.5625,-0.539 1.2578,-0.8281 0.6953,-0.2891 1.4922,-0.2891 1.2031,0 2.2344,0.5079 1.0313,0.5078 1.6406,1.4375 0.6094,0.9296 0.6094,2.164 0,0.9063 -0.3984,1.7266 -0.3985,0.8203 -1.0235,1.4922 -0.625,0.6718 -1.6015,1.5234 Q 5.4375,0.8067 5.125,1.1035 L 2.75,3.3848 h 2.0156 q 1.4844,0 2.4844,-0.0234 1,-0.0235 1.0625,-0.086 0.25,-0.2656 0.5,-1.9375 h 0.625 l -0.5937,3.75 z"
         id="path81"
         inkscape:connector-curvature="0" />
    </g>
    <g
       transform="translate(503.925,190.5133)"
       style="font-size:14.84000015px;font-family:mwa_cmr10;color-interpolation:linearRGB;color-rendering:optimizeQuality;image-rendering:optimizeQuality;text-rendering:geometricPrecision"
       id="g91">
      <path
         style="stroke:none"
         d="m 12.0219,-3.7616 q 0.3594,0.5156 0.9531,0.7656 0.5938,0.25 1.2657,0.25 0.875,0 1.2421,-0.75 0.3672,-0.75 0.3672,-1.6875 0,-0.4219 -0.0781,-0.8516 -0.0781,-0.4297 -0.2578,-0.789 -0.1797,-0.3594 -0.5,-0.586 -0.3203,-0.2265 -0.7734,-0.2265 h -1 q -0.1407,0 -0.1407,-0.125 v -0.1407 q 0,-0.1093 0.1407,-0.1093 l 0.8281,-0.0782 q 0.5156,0 0.8672,-0.3906 0.3515,-0.3906 0.5156,-0.9609 0.1641,-0.5703 0.1641,-1.086 0,-0.7187 -0.336,-1.1797 -0.3359,-0.4609 -1.039,-0.4609 -0.5625,0 -1.086,0.2188 -0.5234,0.2187 -0.8203,0.6562 0.0313,0 0.0469,-0.0078 0.0156,-0.0078 0.0469,-0.0078 0.3437,0 0.5703,0.2344 0.2265,0.2343 0.2265,0.5625 0,0.3281 -0.2265,0.5625 -0.2266,0.2343 -0.5703,0.2343 -0.3282,0 -0.5625,-0.2343 -0.2344,-0.2344 -0.2344,-0.5625 0,-0.6407 0.3906,-1.1172 0.3906,-0.4766 1,-0.7188 0.6094,-0.2422 1.2188,-0.2422 0.4687,0 0.9687,0.1328 0.5,0.1329 0.9141,0.3829 0.414,0.25 0.6718,0.6484 0.2579,0.3984 0.2579,0.8984 0,0.6407 -0.2813,1.1719 -0.2812,0.5313 -0.7734,0.9219 -0.4922,0.3906 -1.0703,0.5781 0.6406,0.125 1.2265,0.4922 0.586,0.3672 0.9453,0.9375 0.3594,0.5703 0.3594,1.2266 0,0.8281 -0.4531,1.5 -0.4531,0.6718 -1.1953,1.0468 -0.7422,0.375 -1.5703,0.375 -0.7032,0 -1.4063,-0.2656 -0.7031,-0.2656 -1.1562,-0.8047 -0.4532,-0.539 -0.4532,-1.2734 0,-0.375 0.25,-0.625 0.25,-0.25 0.625,-0.25 0.25,0 0.4453,0.1094 0.1954,0.1093 0.3125,0.3203 0.1172,0.2109 0.1172,0.4453 0,0.3594 -0.2578,0.6094 -0.2578,0.25 -0.6172,0.25 z"
         id="path85"
         inkscape:connector-curvature="0" />
      <path
         style="stroke:none"
         d="m 20.1113,5.0879 q -0.2031,0 -0.2031,-0.2812 0,-0.0469 0.0312,-0.1719 0.0313,-0.125 0.0859,-0.2031 0.0547,-0.0782 0.1485,-0.0782 1.2812,0 1.7812,-0.1406 0.2657,-0.0937 0.3907,-0.5781 l 2.8906,-11.5313 q 0.0312,-0.2031 0.0312,-0.2812 0,-0.2344 -0.2343,-0.2656 -0.4063,-0.0782 -1.5157,-0.0782 -0.2187,0 -0.2187,-0.2812 0.0156,-0.0469 0.0469,-0.1719 0.0312,-0.125 0.0859,-0.2031 0.0547,-0.0781 0.1328,-0.0781 h 7.25 q 1,0 1.9375,0.3515 0.9375,0.3516 1.5313,1.0782 0.5937,0.7265 0.5937,1.7734 0,1.3281 -0.9375,2.375 -0.9375,1.0469 -2.3437,1.6328 -1.4063,0.5859 -2.7188,0.5859 h -3.4062 l -1.2813,5.1875 q -0.0469,0.2032 -0.0469,0.2969 0,0.0781 0.0235,0.1328 0.0234,0.0547 0.0703,0.0703 0.0469,0.0157 0.1562,0.0313 0.4063,0.0937 1.5157,0.0937 0.2031,0 0.2031,0.2657 -0.0625,0.2968 -0.1094,0.3828 -0.0469,0.0859 -0.25,0.0859 z m 5.4531,-7.1719 h 2.9531 q 2.0313,0 3.1094,-1.1093 0.5313,-0.5313 0.875,-1.5625 0.3438,-1.0313 0.3438,-1.8594 0,-1.0313 -0.7891,-1.4688 -0.7891,-0.4375 -1.9609,-0.4375 h -2 q -0.5782,0 -0.7657,0.1016 -0.1875,0.1016 -0.3281,0.6172 z"
         id="path87"
         inkscape:connector-curvature="0" />
      <path
         style="stroke:none"
         d="M 34.0813,8.2679 V 7.7366 q 1.875,0 1.875,-0.4687 v -7.875 q -0.7812,0.375 -1.9687,0.375 v -0.5313 q 1.8437,0 2.7812,-0.9531 h 0.2188 q 0.0469,0 0.0937,0.0391 0.0469,0.039 0.0469,0.0859 v 8.8594 q 0,0.4687 1.875,0.4687 v 0.5313 z"
         id="path89"
         inkscape:connector-curvature="0" />
    </g>
    <g
       style="color-interpolation:linearRGB;stroke-width:2.66669989;stroke-linecap:butt;stroke-linejoin:round;color-rendering:optimizeQuality;image-rendering:optimizeQuality;text-rendering:geometricPrecision"
       id="g95"
       transform="translate(78)">
      <line
         y2="117.1222"
         style="fill:none"
         x1="409.83749"
         x2="463.46249"
         y1="117.1222"
         id="line93" />
    </g>
    <g
       transform="translate(503.925,135.8444)"
       style="font-size:21.20000076px;font-family:mwa_cmr10;color-interpolation:linearRGB;color-rendering:optimizeQuality;image-rendering:optimizeQuality;text-rendering:geometricPrecision"
       id="g99">
      <path
         style="stroke:none"
         d="M 1.0469,5.0879 V 4.5254 q 0,-0.0469 0.0469,-0.1094 l 3.25,-3.6093 q 0.75,-0.8125 1.2109,-1.3516 0.4609,-0.5391 0.9062,-1.25 0.4453,-0.7109 0.711,-1.4375 0.2656,-0.7266 0.2656,-1.5547 0,-0.8594 -0.3203,-1.6484 -0.3203,-0.7891 -0.9531,-1.2578 -0.6329,-0.4688 -1.5235,-0.4688 -0.9062,0 -1.6328,0.5469 -0.7266,0.5469 -1.0234,1.4219 0.0781,-0.0157 0.2187,-0.0157 0.4688,0 0.8047,0.3125 0.336,0.3125 0.336,0.8282 0,0.4687 -0.336,0.8047 -0.3359,0.3359 -0.8047,0.3359 -0.4843,0 -0.8203,-0.3438 -0.3359,-0.3437 -0.3359,-0.7968 0,-0.7969 0.2969,-1.4844 0.2968,-0.6875 0.8593,-1.2266 0.5625,-0.539 1.2578,-0.8281 0.6953,-0.2891 1.4922,-0.2891 1.2031,0 2.2344,0.5079 1.0313,0.5078 1.6406,1.4375 0.6094,0.9296 0.6094,2.164 0,0.9063 -0.3984,1.7266 -0.3985,0.8203 -1.0235,1.4922 -0.625,0.6718 -1.6015,1.5234 Q 5.4375,0.8067 5.125,1.1035 L 2.75,3.3848 h 2.0156 q 1.4844,0 2.4844,-0.0234 1,-0.0235 1.0625,-0.086 0.25,-0.2656 0.5,-1.9375 h 0.625 l -0.5937,3.75 z"
         id="path97"
         inkscape:connector-curvature="0" />
    </g>
    <g
       transform="translate(503.925,135.8444)"
       style="font-size:14.84000015px;font-family:mwa_cmr10;color-interpolation:linearRGB;color-rendering:optimizeQuality;image-rendering:optimizeQuality;text-rendering:geometricPrecision"
       id="g107">
      <path
         style="stroke:none"
         d="m 12.0219,-3.7616 q 0.3594,0.5156 0.9531,0.7656 0.5938,0.25 1.2657,0.25 0.875,0 1.2421,-0.75 0.3672,-0.75 0.3672,-1.6875 0,-0.4219 -0.0781,-0.8516 -0.0781,-0.4297 -0.2578,-0.789 -0.1797,-0.3594 -0.5,-0.586 -0.3203,-0.2265 -0.7734,-0.2265 h -1 q -0.1407,0 -0.1407,-0.125 v -0.1407 q 0,-0.1093 0.1407,-0.1093 l 0.8281,-0.0782 q 0.5156,0 0.8672,-0.3906 0.3515,-0.3906 0.5156,-0.9609 0.1641,-0.5703 0.1641,-1.086 0,-0.7187 -0.336,-1.1797 -0.3359,-0.4609 -1.039,-0.4609 -0.5625,0 -1.086,0.2188 -0.5234,0.2187 -0.8203,0.6562 0.0313,0 0.0469,-0.0078 0.0156,-0.0078 0.0469,-0.0078 0.3437,0 0.5703,0.2344 0.2265,0.2343 0.2265,0.5625 0,0.3281 -0.2265,0.5625 -0.2266,0.2343 -0.5703,0.2343 -0.3282,0 -0.5625,-0.2343 -0.2344,-0.2344 -0.2344,-0.5625 0,-0.6407 0.3906,-1.1172 0.3906,-0.4766 1,-0.7188 0.6094,-0.2422 1.2188,-0.2422 0.4687,0 0.9687,0.1328 0.5,0.1329 0.9141,0.3829 0.414,0.25 0.6718,0.6484 0.2579,0.3984 0.2579,0.8984 0,0.6407 -0.2813,1.1719 -0.2812,0.5313 -0.7734,0.9219 -0.4922,0.3906 -1.0703,0.5781 0.6406,0.125 1.2265,0.4922 0.586,0.3672 0.9453,0.9375 0.3594,0.5703 0.3594,1.2266 0,0.8281 -0.4531,1.5 -0.4531,0.6718 -1.1953,1.0468 -0.7422,0.375 -1.5703,0.375 -0.7032,0 -1.4063,-0.2656 -0.7031,-0.2656 -1.1562,-0.8047 -0.4532,-0.539 -0.4532,-1.2734 0,-0.375 0.25,-0.625 0.25,-0.25 0.625,-0.25 0.25,0 0.4453,0.1094 0.1954,0.1093 0.3125,0.3203 0.1172,0.2109 0.1172,0.4453 0,0.3594 -0.2578,0.6094 -0.2578,0.25 -0.6172,0.25 z"
         id="path101"
         inkscape:connector-curvature="0" />
      <path
         style="stroke:none"
         d="m 20.1113,5.0879 q -0.2031,0 -0.2031,-0.2812 0,-0.0469 0.0312,-0.1719 0.0313,-0.125 0.0859,-0.2031 0.0547,-0.0782 0.1485,-0.0782 1.2812,0 1.7812,-0.1406 0.2657,-0.0937 0.3907,-0.5781 l 2.8906,-11.5313 q 0.0312,-0.2031 0.0312,-0.2812 0,-0.2344 -0.2343,-0.2656 -0.4063,-0.0782 -1.5157,-0.0782 -0.2187,0 -0.2187,-0.2812 0.0156,-0.0469 0.0469,-0.1719 0.0312,-0.125 0.0859,-0.2031 0.0547,-0.0781 0.1328,-0.0781 h 7.25 q 1,0 1.9375,0.3515 0.9375,0.3516 1.5313,1.0782 0.5937,0.7265 0.5937,1.7734 0,1.3281 -0.9375,2.375 -0.9375,1.0469 -2.3437,1.6328 -1.4063,0.5859 -2.7188,0.5859 h -3.4062 l -1.2813,5.1875 q -0.0469,0.2032 -0.0469,0.2969 0,0.0781 0.0235,0.1328 0.0234,0.0547 0.0703,0.0703 0.0469,0.0157 0.1562,0.0313 0.4063,0.0937 1.5157,0.0937 0.2031,0 0.2031,0.2657 -0.0625,0.2968 -0.1094,0.3828 -0.0469,0.0859 -0.25,0.0859 z m 5.4531,-7.1719 h 2.9531 q 2.0313,0 3.1094,-1.1093 0.5313,-0.5313 0.875,-1.5625 0.3438,-1.0313 0.3438,-1.8594 0,-1.0313 -0.7891,-1.4688 -0.7891,-0.4375 -1.9609,-0.4375 h -2 q -0.5782,0 -0.7657,0.1016 -0.1875,0.1016 -0.3281,0.6172 z"
         id="path103"
         inkscape:connector-curvature="0" />
      <path
         style="stroke:none"
         d="m 36.4407,8.596 q -1.8437,0 -2.5,-1.5156 -0.6562,-1.5156 -0.6562,-3.5938 0,-1.3125 0.2343,-2.4609 0.2344,-1.1484 0.9375,-1.9453 0.7032,-0.7969 1.9844,-0.7969 0.9844,0 1.6172,0.4766 0.6328,0.4765 0.9609,1.2422 0.3282,0.7656 0.4532,1.6406 0.125,0.875 0.125,1.8437 0,1.2813 -0.2422,2.4063 -0.2422,1.125 -0.9375,1.9141 -0.6953,0.789 -1.9766,0.789 z m 0,-0.3906 q 0.8281,0 1.2422,-0.8516 0.4141,-0.8515 0.5078,-1.8984 0.0938,-1.0469 0.0938,-2.2188 0,-1.125 -0.0938,-2.0781 -0.0937,-0.9531 -0.5,-1.7265 -0.4062,-0.7735 -1.25,-0.7735 -0.8437,0 -1.2578,0.7813 -0.4141,0.7812 -0.5078,1.7265 -0.0938,0.9453 -0.0938,2.0703 0,0.8438 0.0391,1.586 0.0391,0.7422 0.2188,1.5234 0.1796,0.7813 0.5703,1.3203 0.3906,0.5391 1.0312,0.5391 z"
         id="path105"
         inkscape:connector-curvature="0" />
    </g>
    <g
       style="color-interpolation:linearRGB;stroke-width:2.66669989;stroke-linecap:butt;stroke-linejoin:round;color-rendering:optimizeQuality;image-rendering:optimizeQuality;text-rendering:geometricPrecision"
       id="g111"
       transform="translate(-34)">
      <line
         y2="99.148903"
         style="fill:none"
         x1="98.8125"
         x2="152.4375"
         y1="99.148903"
         id="line109" />
    </g>
    <g
       transform="translate(80.9,117.8711)"
       style="font-size:25.20000076px;font-family:mwa_cmr10;color-interpolation:linearRGB;color-rendering:optimizeQuality;image-rendering:optimizeQuality;text-rendering:geometricPrecision"
       id="g115">
      <path
         style="stroke:none"
         d="M 1.25,6.0479 V 5.376 q 0,-0.0625 0.0469,-0.1406 l 3.875,-4.2969 q 0.8906,-0.9531 1.4375,-1.5937 0.5468,-0.6406 1.0859,-1.4844 0.5391,-0.8437 0.8438,-1.7187 0.3047,-0.875 0.3047,-1.8438 0,-1.0312 -0.375,-1.9687 -0.375,-0.9375 -1.125,-1.4922 -0.75,-0.5547 -1.8126,-0.5547 -1.0937,0 -1.9609,0.6484 -0.8672,0.6485 -1.2109,1.6953 0.0937,-0.0312 0.2656,-0.0312 0.5625,0 0.9609,0.375 0.3985,0.375 0.3985,0.9844 0,0.5625 -0.3985,0.9609 -0.3984,0.3984 -0.9609,0.3984 -0.5938,0 -0.9844,-0.4062 Q 1.25,-5.499 1.25,-6.0458 q 0,-0.9375 0.3516,-1.7657 0.3515,-0.8281 1.0156,-1.4687 0.664,-0.6406 1.5,-0.9844 0.8359,-0.3437 1.7734,-0.3437 1.4375,0 2.6719,0.6093 1.2344,0.6094 1.9531,1.711 0.7188,1.1015 0.7188,2.5859 0,1.0781 -0.4766,2.0547 -0.4766,0.9766 -1.2187,1.7812 -0.7422,0.8047 -1.9063,1.8125 -1.164,1.0079 -1.5234,1.3516 L 3.2656,4.0167 h 2.4063 q 1.7812,0 2.9687,-0.0313 Q 9.8281,3.9542 9.9062,3.8917 10.1875,3.5792 10.5,1.5948 h 0.7344 l -0.7188,4.4531 z"
         id="path113"
         inkscape:connector-curvature="0" />
    </g>
    <g
       transform="translate(80.9,117.8711)"
       style="font-size:17.63999939px;font-family:mwa_cmr10;color-interpolation:linearRGB;color-rendering:optimizeQuality;image-rendering:optimizeQuality;text-rendering:geometricPrecision"
       id="g123">
      <path
         style="stroke:none"
         d="m 14.2719,-3.097 v -0.6406 q 2.25,0 2.25,-0.5625 v -9.4531 q -0.9375,0.4531 -2.3594,0.4531 v -0.6406 q 2.2032,0 3.3282,-1.1406 h 0.2656 q 0.0625,0 0.1172,0.0468 0.0547,0.0469 0.0547,0.1094 v 10.625 q 0,0.5625 2.25,0.5625 v 0.6406 z"
         id="path117"
         inkscape:connector-curvature="0" />
      <path
         style="stroke:none"
         d="m 23.8988,6.0479 q -0.2344,0 -0.2344,-0.3281 0,-0.0625 0.0391,-0.2188 0.039,-0.1562 0.1094,-0.2422 0.0703,-0.0859 0.164,-0.0859 1.5156,0 2.1406,-0.1719 0.3125,-0.1093 0.4532,-0.6718 l 3.4375,-13.7344 q 0.0468,-0.25 0.0468,-0.3438 0,-0.2656 -0.2968,-0.2968 -0.4688,-0.1094 -1.7969,-0.1094 -0.25,0 -0.25,-0.3281 0.0156,-0.0625 0.0469,-0.211 0.0312,-0.1484 0.1015,-0.2422 0.0703,-0.0937 0.1641,-0.0937 h 8.6406 q 1.1719,0 2.2891,0.4219 1.1172,0.4218 1.8203,1.289 0.7031,0.8672 0.7031,2.1016 0,1.5781 -1.1172,2.8281 -1.1172,1.25 -2.7812,1.9453 -1.6641,0.6953 -3.2266,0.6953 h -4.0625 l -1.5312,6.1719 q -0.0469,0.25 -0.0469,0.3594 0,0.0937 0.0312,0.164 0.0313,0.0704 0.086,0.086 0.0547,0.0156 0.1797,0.0312 0.4687,0.1094 1.7968,0.1094 0.25,0 0.25,0.3281 -0.0937,0.3438 -0.1406,0.4453 -0.0469,0.1016 -0.2812,0.1016 z m 6.5156,-8.5469 h 3.5 q 2.4219,0 3.6875,-1.2968 0.6563,-0.6563 1.0625,-1.875 0.4063,-1.2188 0.4063,-2.2032 0,-1.2343 -0.9375,-1.7578 -0.9375,-0.5234 -2.3282,-0.5234 h -2.3906 q -0.6875,0 -0.9062,0.1172 -0.2188,0.1172 -0.4063,0.7422 z"
         id="path119"
         inkscape:connector-curvature="0" />
      <path
         style="stroke:none"
         d="M 40.5307,9.8279 V 9.1872 q 2.25,0 2.25,-0.5625 v -9.4531 q -0.9375,0.4531 -2.3594,0.4531 v -0.6406 q 2.2031,0 3.3281,-1.1406 h 0.2656 q 0.0625,0 0.1172,0.0469 0.0547,0.0468 0.0547,0.1093 v 10.625 q 0,0.5625 2.25,0.5625 v 0.6407 z"
         id="path121"
         inkscape:connector-curvature="0" />
    </g>
    <g
       style="color-interpolation:linearRGB;stroke-width:2.66669989;stroke-linecap:butt;stroke-linejoin:round;color-rendering:optimizeQuality;image-rendering:optimizeQuality;text-rendering:geometricPrecision"
       id="g127"
       transform="translate(28)">
      <line
         y2="52.083599"
         style="fill:none"
         x1="206.0625"
         x2="259.6875"
         y1="52.083599"
         id="line125" />
    </g>
    <g
       transform="translate(250.15,70.8059)"
       style="font-size:25.20000076px;font-family:mwa_cmr10;color-interpolation:linearRGB;color-rendering:optimizeQuality;image-rendering:optimizeQuality;text-rendering:geometricPrecision"
       id="g131">
      <path
         style="stroke:none"
         d="m 2.375,4.126 q 0.5938,0.8438 1.5781,1.2578 0.9844,0.4141 2.125,0.4141 1.4531,0 2.0625,-1.2344 Q 8.75,3.3292 8.75,1.751 8.75,1.0479 8.625,0.337 8.5,-0.374 8.1953,-0.9833 7.8906,-1.5927 7.3594,-1.9599 6.8281,-2.3271 6.0625,-2.3271 H 4.3906 q -0.2187,0 -0.2187,-0.2344 v -0.2187 q 0,-0.1875 0.2187,-0.1875 l 1.3906,-0.1094 q 0.875,0 1.4532,-0.6641 0.5781,-0.664 0.8437,-1.6093 0.2657,-0.9453 0.2657,-1.8047 0,-1.1875 -0.5547,-1.961 -0.5547,-0.7734 -1.711,-0.7734 -0.9531,0 -1.8203,0.3672 -0.8672,0.3672 -1.3828,1.0859 0.0625,0 0.0938,-0.0078 Q 3,-8.4521 3.0469,-8.4521 q 0.5625,0 0.9453,0.3906 0.3828,0.3907 0.3828,0.9375 0,0.5313 -0.3828,0.9219 -0.3828,0.3906 -0.9453,0.3906 -0.5469,0 -0.9375,-0.3906 -0.3906,-0.3906 -0.3906,-0.9219 0,-1.0781 0.6484,-1.8672 0.6484,-0.789 1.664,-1.2031 1.0157,-0.414 2.0469,-0.414 0.7657,0 1.6016,0.2265 0.8359,0.2266 1.5234,0.6485 0.6875,0.4218 1.1172,1.0859 0.4297,0.6641 0.4297,1.4922 0,1.0625 -0.4688,1.9531 -0.4687,0.8906 -1.289,1.5391 -0.8203,0.6484 -1.7891,0.9609 1.0781,0.2031 2.0547,0.8125 0.9766,0.6094 1.5703,1.5625 0.5938,0.9531 0.5938,2.0469 0,1.3906 -0.7578,2.5078 -0.7579,1.1172 -1.9844,1.7422 -1.2266,0.625 -2.6016,0.625 -1.1719,0 -2.3515,-0.4453 -1.1797,-0.4453 -1.9297,-1.336 -0.75,-0.8906 -0.75,-2.1406 0,-0.6094 0.414,-1.0312 Q 1.875,1.2198 2.5,1.2198 q 0.4062,0 0.7422,0.1953 0.3359,0.1953 0.5234,0.5312 0.1875,0.336 0.1875,0.7266 0,0.6094 -0.4297,1.0313 Q 3.0938,4.126 2.5,4.126 Z"
         id="path129"
         inkscape:connector-curvature="0" />
    </g>
    <g
       transform="translate(250.15,70.8059)"
       style="font-size:17.63999939px;font-family:mwa_cmr10;color-interpolation:linearRGB;color-rendering:optimizeQuality;image-rendering:optimizeQuality;text-rendering:geometricPrecision"
       id="g139">
      <path
         style="stroke:none"
         d="m 14.3188,-4.4876 q 0.4219,0.6094 1.1328,0.9141 0.7109,0.3047 1.5234,0.3047 1.0469,0 1.4844,-0.8907 0.4375,-0.8906 0.4375,-2.0312 0,-0.5156 -0.0859,-1.0235 -0.086,-0.5078 -0.3125,-0.9453 -0.2266,-0.4375 -0.6094,-0.7031 -0.3828,-0.2656 -0.9297,-0.2656 h -1.1875 q -0.1719,0 -0.1719,-0.1719 v -0.1562 q 0,-0.1407 0.1719,-0.1407 l 0.9844,-0.0781 q 0.6406,0 1.0547,-0.4766 0.414,-0.4765 0.6094,-1.1562 0.1953,-0.6797 0.1953,-1.2891 0,-0.8593 -0.4063,-1.414 -0.4062,-0.5547 -1.2344,-0.5547 -0.6875,0 -1.3125,0.2578 -0.625,0.2578 -0.9843,0.7891 0.0312,-0.0157 0.0547,-0.0157 0.0234,0 0.0703,0 0.4062,0 0.6718,0.2813 0.2657,0.2812 0.2657,0.6719 0,0.3906 -0.2657,0.6718 -0.2656,0.2813 -0.6718,0.2813 -0.4063,0 -0.6875,-0.2813 -0.2813,-0.2812 -0.2813,-0.6718 0,-0.7657 0.4688,-1.3438 0.4687,-0.5781 1.2031,-0.8672 0.7344,-0.289 1.4687,-0.289 0.5469,0 1.1563,0.164 0.6094,0.1641 1.1016,0.461 0.4921,0.2968 0.8046,0.7734 0.3125,0.4766 0.3125,1.0859 0,0.75 -0.3437,1.3907 -0.3438,0.6406 -0.9297,1.1093 -0.5859,0.4688 -1.2891,0.7032 0.7813,0.1406 1.4844,0.5781 0.7031,0.4375 1.1328,1.125 0.4297,0.6875 0.4297,1.4844 0,0.9843 -0.5469,1.789 -0.5468,0.8047 -1.4375,1.2578 -0.8906,0.4532 -1.875,0.4532 -0.8437,0 -1.6875,-0.3204 Q 14.4438,-3.347 13.8969,-3.9876 13.35,-4.6282 13.35,-5.5188 q 0,-0.4532 0.3047,-0.75 0.3047,-0.2969 0.7422,-0.2969 0.2969,0 0.5391,0.1328 0.2422,0.1328 0.375,0.3828 0.1328,0.25 0.1328,0.5313 0,0.4375 -0.3047,0.7343 -0.3047,0.2969 -0.7422,0.2969 z"
         id="path133"
         inkscape:connector-curvature="0" />
      <path
         style="stroke:none"
         d="m 24.2113,6.5948 q -0.0781,0 -0.1406,-0.086 Q 24.0082,6.4229 24.0082,6.3604 L 25.4457,0.5167 Q 25.4925,0.376 25.6644,0.376 h 0.2813 q 0.1093,0 0.164,0.0703 0.0547,0.0704 0.0547,0.1797 -0.2187,0.8594 -0.2187,1.5313 0,1.7969 1.25,2.6797 1.25,0.8828 3.1406,0.8828 0.8125,0 1.6094,-0.4063 0.7968,-0.4062 1.3906,-1.0468 0.5937,-0.6407 0.9453,-1.4454 0.3516,-0.8046 0.3516,-1.6171 0,-0.875 -0.4688,-1.5704 -0.4687,-0.6953 -1.2812,-0.8828 l -3.0469,-0.8125 q -1.2344,-0.3281 -1.9688,-1.3203 -0.7343,-0.9922 -0.7343,-2.2422 0,-1.5 0.8906,-2.8906 0.8906,-1.3906 2.3281,-2.2266 1.4375,-0.8359 2.9219,-0.8359 1.1562,0 2.1094,0.4219 0.9531,0.4219 1.4687,1.3281 l 1.4219,-1.6719 q 0.1562,-0.0781 0.1719,-0.0781 h 0.1718 q 0.0938,0 0.1563,0.0859 0.0625,0.086 0.0625,0.1641 l -1.4531,5.7969 q -0.0469,0.1719 -0.2032,0.1719 h -0.2968 q -0.2188,0 -0.2188,-0.2657 0.1094,-0.7968 0.1094,-1.375 0,-1.1562 -0.3906,-2.0234 -0.3907,-0.8672 -1.1953,-1.3125 -0.8047,-0.4453 -1.9922,-0.4453 -1,0 -1.9844,0.5781 -0.9844,0.5781 -1.5938,1.5313 -0.6093,0.9531 -0.6093,1.9687 0,0.8125 0.4687,1.4375 0.4688,0.625 1.25,0.8438 l 3.0469,0.7812 q 0.8281,0.2344 1.4453,0.7891 0.6172,0.5547 0.9375,1.3125 0.3203,0.7578 0.3203,1.664 0,1.1875 -0.5,2.3438 -0.5,1.1562 -1.3984,2.1015 -0.8985,0.9454 -2.0313,1.4844 -1.1328,0.5391 -2.3203,0.5391 -2.9844,0 -4.2812,-1.75 L 24.555,6.5167 q -0.1406,0.0781 -0.1718,0.0781 z"
         id="path135"
         inkscape:connector-curvature="0" />
      <path
         style="stroke:none"
         d="M 39.8044,9.8279 V 9.1872 q 2.25,0 2.25,-0.5625 v -9.4531 q -0.9375,0.4531 -2.3594,0.4531 v -0.6406 q 2.2032,0 3.3282,-1.1406 h 0.2656 q 0.0625,0 0.1172,0.0469 0.0547,0.0468 0.0547,0.1093 v 10.625 q 0,0.5625 2.25,0.5625 v 0.6407 z"
         id="path137"
         inkscape:connector-curvature="0" />
    </g>
    <g
       style="color-interpolation:linearRGB;stroke-width:2.66669989;stroke-linecap:butt;stroke-linejoin:round;color-rendering:optimizeQuality;image-rendering:optimizeQuality;text-rendering:geometricPrecision"
       id="g143"
       transform="translate(78)">
      <line
         y2="177.535"
         style="fill:none"
         x1="313.3125"
         x2="366.9375"
         y1="177.535"
         id="line141" />
    </g>
    <g
       transform="translate(407.4,196.2573)"
       style="font-size:25.20000076px;font-family:mwa_cmr10;color-interpolation:linearRGB;color-rendering:optimizeQuality;image-rendering:optimizeQuality;text-rendering:geometricPrecision"
       id="g147">
      <path
         style="stroke:none"
         d="M 1.25,6.0479 V 5.376 q 0,-0.0625 0.0469,-0.1406 l 3.875,-4.2969 q 0.8906,-0.9531 1.4375,-1.5937 0.5468,-0.6406 1.0859,-1.4844 0.5391,-0.8437 0.8438,-1.7187 0.3047,-0.875 0.3047,-1.8438 0,-1.0312 -0.375,-1.9687 -0.375,-0.9375 -1.125,-1.4922 -0.75,-0.5547 -1.8126,-0.5547 -1.0937,0 -1.9609,0.6484 -0.8672,0.6485 -1.2109,1.6953 0.0937,-0.0312 0.2656,-0.0312 0.5625,0 0.9609,0.375 0.3985,0.375 0.3985,0.9844 0,0.5625 -0.3985,0.9609 -0.3984,0.3984 -0.9609,0.3984 -0.5938,0 -0.9844,-0.4062 Q 1.25,-5.499 1.25,-6.0458 q 0,-0.9375 0.3516,-1.7657 0.3515,-0.8281 1.0156,-1.4687 0.664,-0.6406 1.5,-0.9844 0.8359,-0.3437 1.7734,-0.3437 1.4375,0 2.6719,0.6093 1.2344,0.6094 1.9531,1.711 0.7188,1.1015 0.7188,2.5859 0,1.0781 -0.4766,2.0547 -0.4766,0.9766 -1.2187,1.7812 -0.7422,0.8047 -1.9063,1.8125 -1.164,1.0079 -1.5234,1.3516 L 3.2656,4.0167 h 2.4063 q 1.7812,0 2.9687,-0.0313 Q 9.8281,3.9542 9.9062,3.8917 10.1875,3.5792 10.5,1.5948 h 0.7344 l -0.7188,4.4531 z"
         id="path145"
         inkscape:connector-curvature="0" />
    </g>
    <g
       transform="translate(407.4,196.2573)"
       style="font-size:17.63999939px;font-family:mwa_cmr10;color-interpolation:linearRGB;color-rendering:optimizeQuality;image-rendering:optimizeQuality;text-rendering:geometricPrecision"
       id="g153">
      <path
         style="stroke:none"
         d="m 14.3188,-4.4876 q 0.4219,0.6094 1.1328,0.9141 0.7109,0.3047 1.5234,0.3047 1.0469,0 1.4844,-0.8907 0.4375,-0.8906 0.4375,-2.0312 0,-0.5156 -0.0859,-1.0235 -0.086,-0.5078 -0.3125,-0.9453 -0.2266,-0.4375 -0.6094,-0.7031 -0.3828,-0.2656 -0.9297,-0.2656 h -1.1875 q -0.1719,0 -0.1719,-0.1719 v -0.1562 q 0,-0.1407 0.1719,-0.1407 l 0.9844,-0.0781 q 0.6406,0 1.0547,-0.4766 0.414,-0.4765 0.6094,-1.1562 0.1953,-0.6797 0.1953,-1.2891 0,-0.8593 -0.4063,-1.414 -0.4062,-0.5547 -1.2344,-0.5547 -0.6875,0 -1.3125,0.2578 -0.625,0.2578 -0.9843,0.7891 0.0312,-0.0157 0.0547,-0.0157 0.0234,0 0.0703,0 0.4062,0 0.6718,0.2813 0.2657,0.2812 0.2657,0.6719 0,0.3906 -0.2657,0.6718 -0.2656,0.2813 -0.6718,0.2813 -0.4063,0 -0.6875,-0.2813 -0.2813,-0.2812 -0.2813,-0.6718 0,-0.7657 0.4688,-1.3438 0.4687,-0.5781 1.2031,-0.8672 0.7344,-0.289 1.4687,-0.289 0.5469,0 1.1563,0.164 0.6094,0.1641 1.1016,0.461 0.4921,0.2968 0.8046,0.7734 0.3125,0.4766 0.3125,1.0859 0,0.75 -0.3437,1.3907 -0.3438,0.6406 -0.9297,1.1093 -0.5859,0.4688 -1.2891,0.7032 0.7813,0.1406 1.4844,0.5781 0.7031,0.4375 1.1328,1.125 0.4297,0.6875 0.4297,1.4844 0,0.9843 -0.5469,1.789 -0.5468,0.8047 -1.4375,1.2578 -0.8906,0.4532 -1.875,0.4532 -0.8437,0 -1.6875,-0.3204 Q 14.4438,-3.347 13.8969,-3.9876 13.35,-4.6282 13.35,-5.5188 q 0,-0.4532 0.3047,-0.75 0.3047,-0.2969 0.7422,-0.2969 0.2969,0 0.5391,0.1328 0.2422,0.1328 0.375,0.3828 0.1328,0.25 0.1328,0.5313 0,0.4375 -0.3047,0.7343 -0.3047,0.2969 -0.7422,0.2969 z"
         id="path149"
         inkscape:connector-curvature="0" />
      <path
         style="stroke:none"
         d="m 23.8988,6.0479 q -0.2344,0 -0.2344,-0.3281 0,-0.0625 0.0391,-0.2188 0.039,-0.1562 0.1094,-0.2422 0.0703,-0.0859 0.164,-0.0859 1.5156,0 2.1406,-0.1719 0.3125,-0.1093 0.4532,-0.6718 l 3.4375,-13.7344 q 0.0468,-0.25 0.0468,-0.3438 0,-0.2656 -0.2968,-0.2968 -0.4688,-0.1094 -1.7969,-0.1094 -0.25,0 -0.25,-0.3281 0.0156,-0.0625 0.0469,-0.211 0.0312,-0.1484 0.1015,-0.2422 0.0703,-0.0937 0.1641,-0.0937 h 8.6406 q 1.1719,0 2.2891,0.4219 1.1172,0.4218 1.8203,1.289 0.7031,0.8672 0.7031,2.1016 0,1.5781 -1.1172,2.8281 -1.1172,1.25 -2.7812,1.9453 -1.6641,0.6953 -3.2266,0.6953 h -4.0625 l -1.5312,6.1719 q -0.0469,0.25 -0.0469,0.3594 0,0.0937 0.0312,0.164 0.0313,0.0704 0.086,0.086 0.0547,0.0156 0.1797,0.0312 0.4687,0.1094 1.7968,0.1094 0.25,0 0.25,0.3281 -0.0937,0.3438 -0.1406,0.4453 -0.0469,0.1016 -0.2812,0.1016 z m 6.5156,-8.5469 h 3.5 q 2.4219,0 3.6875,-1.2968 0.6563,-0.6563 1.0625,-1.875 0.4063,-1.2188 0.4063,-2.2032 0,-1.2343 -0.9375,-1.7578 -0.9375,-0.5234 -2.3282,-0.5234 h -2.3906 q -0.6875,0 -0.9062,0.1172 -0.2188,0.1172 -0.4063,0.7422 z"
         id="path151"
         inkscape:connector-curvature="0" />
    </g>
    <g
       style="color-interpolation:linearRGB;stroke-width:0.66670001;stroke-linecap:butt;stroke-linejoin:bevel;stroke-miterlimit:1;stroke-dasharray:8, 3, 2, 3;color-rendering:optimizeQuality;image-rendering:optimizeQuality;text-rendering:geometricPrecision"
       id="g161"
       transform="translate(78)">
      <line
         y2="203.2444"
         style="fill:none"
         x1="366.9375"
         x2="409.83749"
         y1="177.535"
         id="line155" />
      <line
         y2="171.791"
         style="fill:none"
         x1="366.9375"
         x2="409.83749"
         y1="177.535"
         id="line157" />
      <line
         y2="117.1222"
         style="fill:none"
         x1="366.9375"
         x2="409.83749"
         y1="177.535"
         id="line159" />
    </g>
  </g>
  <path
     style="font-style:normal;font-weight:normal;font-size:12px;font-family:Dialog;color-interpolation:auto;fill:none;fill-opacity:1;stroke:#000000;stroke-width:1.24729764;stroke-linecap:butt;stroke-linejoin:miter;stroke-miterlimit:10;stroke-dasharray:1.24729768, 1.24729768;stroke-dashoffset:3.45959949;stroke-opacity:1;marker-mid:url(#StopL);marker-end:url(#marker6729);paint-order:markers fill stroke;color-rendering:auto;image-rendering:auto;shape-rendering:auto;text-rendering:auto"
     d="M 84.875444,344.05612 229.07222,273.58799"
     id="path6719"
     inkscape:connector-curvature="0"
     sodipodi:nodetypes="cc" />
  <path
     style="font-style:normal;font-weight:normal;font-size:12px;font-family:Dialog;color-interpolation:auto;fill:none;fill-opacity:1;stroke:#000000;stroke-width:0.91570282px;stroke-linecap:butt;stroke-linejoin:miter;stroke-miterlimit:10;stroke-dasharray:none;stroke-dashoffset:0;stroke-opacity:1;color-rendering:auto;image-rendering:auto;shape-rendering:auto;text-rendering:auto"
     d="m 134.59537,313.12583 4.8124,9.49173"
     id="path7377"
     inkscape:connector-curvature="0" />
  <path
     style="font-style:normal;font-weight:normal;font-size:12px;font-family:Dialog;color-interpolation:auto;fill:none;fill-opacity:1;stroke:#000000;stroke-width:0.91570282px;stroke-linecap:butt;stroke-linejoin:miter;stroke-miterlimit:10;stroke-dasharray:none;stroke-dashoffset:0;stroke-opacity:1;color-rendering:auto;image-rendering:auto;shape-rendering:auto;text-rendering:auto"
     d="m 141.88902,309.73593 4.8124,9.49172"
     id="path7377-8"
     inkscape:connector-curvature="0" />
  <text
     xml:space="preserve"
     style="font-style:normal;font-variant:normal;font-weight:normal;font-stretch:normal;font-size:21.33333397px;line-height:1.25;font-family:'Times New Roman';-inkscape-font-specification:'Times New Roman, ';letter-spacing:0px;word-spacing:0px;color-interpolation:auto;fill:#000000;fill-opacity:1;stroke:none;stroke-width:1.04146695;stroke-linecap:square;stroke-linejoin:miter;stroke-miterlimit:10;stroke-dasharray:none;stroke-dashoffset:0;stroke-opacity:1;color-rendering:auto;image-rendering:auto;shape-rendering:auto;text-rendering:auto"
     x="157.18304"
     y="317.25601"
     id="text9061"
     transform="scale(0.9601255,1.0415305)"><tspan
       sodipodi:role="line"
       id="tspan9059"
       x="157.18304"
       y="317.25601"
       style="font-style:normal;font-variant:normal;font-weight:normal;font-stretch:normal;font-size:21.33333397px;font-family:'Times New Roman';-inkscape-font-specification:'Times New Roman, ';stroke-width:1.04146695"><tspan
   style="font-style:normal;font-variant:normal;font-weight:normal;font-stretch:normal;font-size:21.33333397px;font-family:'Times New Roman';-inkscape-font-specification:'Times New Roman, ';stroke-width:1.04146695"
   id="tspan1506">20</tspan> eV</tspan></text>
  <path
     style="fill:none;stroke:#000073;stroke-width:1px;stroke-linecap:butt;stroke-linejoin:miter;stroke-opacity:1;marker-end:url(#marker3200)"
     d="M 234.47293,260.79639 267.53355,81.14623"
     id="path3190"
     inkscape:connector-curvature="0" />
  <g
     inkscape:groupmode="layer"
     id="layer1"
     inkscape:label="1083_arrows"
     style="display:none">
    <path
       style="font-style:normal;font-weight:normal;font-size:12px;font-family:Dialog;opacity:0.31999996;color-interpolation:auto;fill:none;fill-opacity:1;stroke:#000000;stroke-width:1px;stroke-linecap:butt;stroke-linejoin:miter;stroke-miterlimit:10;stroke-dasharray:none;stroke-dashoffset:0;stroke-opacity:1;marker-end:url(#marker2972);color-rendering:auto;image-rendering:auto;shape-rendering:auto;text-rendering:auto"
       d="m 412.12987,202.12088 -150.14999,65.9771"
       id="path2962"
       inkscape:connector-curvature="0" />
    <path
       style="font-style:normal;font-weight:normal;font-size:12px;font-family:Dialog;opacity:0.31999996;color-interpolation:auto;fill:none;fill-opacity:1;stroke:#000000;stroke-width:1px;stroke-linecap:butt;stroke-linejoin:miter;stroke-miterlimit:10;stroke-dasharray:none;stroke-dashoffset:0;stroke-opacity:1;marker-end:url(#marker3038);color-rendering:auto;image-rendering:auto;shape-rendering:auto;text-rendering:auto"
       d="M 412.12987,170.66748 259.9157,259.67287"
       id="path3028"
       inkscape:connector-curvature="0" />
    <path
       style="font-style:normal;font-weight:normal;font-size:12px;font-family:Dialog;opacity:0.32399998;color-interpolation:auto;fill:none;fill-opacity:1;stroke:#000000;stroke-width:1px;stroke-linecap:butt;stroke-linejoin:miter;stroke-miterlimit:10;stroke-dasharray:none;stroke-dashoffset:0;stroke-opacity:1;marker-end:url(#marker3122);color-rendering:auto;image-rendering:auto;shape-rendering:auto;text-rendering:auto"
       d="M 412.12987,115.99868 260.53949,250.93988"
       id="path3112"
       inkscape:connector-curvature="0" />
    <text
       xml:space="preserve"
       style="font-style:normal;font-weight:normal;font-size:40px;line-height:1.25;font-family:sans-serif;letter-spacing:0px;word-spacing:0px;fill:#000000;fill-opacity:1;stroke:none"
       id="text4677"
       x="-138.78114"
       y="-595.53076"
       transform="rotate(180,358.82694,236.01065)"><textPath
         xlink:href="#path2962"
         id="textPath4685"><tspan
   style="font-style:normal;font-variant:normal;font-weight:normal;font-stretch:normal;font-size:24px;font-family:'Times New Roman';-inkscape-font-specification:'Times New Roman, '"
   id="tspan4675">1083.3 nm</tspan></textPath></text>
  </g>
  <g
     inkscape:groupmode="layer"
     id="layer2"
     inkscape:label="706_arrows"
     style="display:none;opacity:0.31999996">
    <path
       style="fill:none;stroke:#f70000;stroke-width:1px;stroke-linecap:butt;stroke-linejoin:miter;stroke-opacity:1;marker-end:url(#marker4110)"
       d="m 267.8607,79.9931 134.48081,36.08511"
       id="path4100"
       inkscape:connector-curvature="0" />
    <path
       style="fill:none;stroke:#f70000;stroke-width:1px;stroke-linecap:butt;stroke-linejoin:miter;stroke-opacity:1;marker-end:url(#marker4200)"
       d="M 265.10874,86.760298 402.96529,165.98103"
       id="path4190"
       inkscape:connector-curvature="0" />
    <path
       style="fill:none;stroke:#f70000;stroke-width:1px;stroke-linecap:butt;stroke-linejoin:miter;stroke-opacity:1;marker-end:url(#marker4308)"
       d="M 261.98982,92.374365 407.33179,196.54651"
       id="path4298"
       inkscape:connector-curvature="0" />
  </g>
  <g
     inkscape:groupmode="layer"
     id="layer4"
     inkscape:label="arrows"
     style="display:inline">
    <path
       style="fill:none;stroke:#b60000;stroke-width:1.18540466px;stroke-linecap:butt;stroke-linejoin:miter;stroke-opacity:1;marker-end:url(#marker4705)"
       d="m 292.65766,59.173816 97.53809,89.612504"
       id="path4695"
       inkscape:connector-curvature="0"
       sodipodi:nodetypes="cc" />
    <path
       style="fill:none;stroke:#4a0000;stroke-width:1.09511471px;stroke-linecap:butt;stroke-linejoin:miter;stroke-opacity:1;marker-end:url(#marker4813)"
       d="m 388.90865,183.35847 -90.93887,79.10625"
       id="path4803"
       inkscape:connector-curvature="0"
       sodipodi:nodetypes="cc" />
    <text
       xml:space="preserve"
       style="font-style:normal;font-weight:normal;font-size:40px;line-height:1.25;font-family:sans-serif;letter-spacing:0px;word-spacing:0px;display:inline;opacity:1;color-interpolation:auto;fill:#000000;fill-opacity:1;stroke:none;stroke-width:1;stroke-linecap:square;stroke-linejoin:miter;stroke-miterlimit:10;stroke-dasharray:none;stroke-dashoffset:0;stroke-opacity:1;color-rendering:auto;image-rendering:auto;shape-rendering:auto;text-rendering:auto"
       id="text4408-2"
       transform="translate(22,8)"><textPath
         xlink:href="#path4695"
         id="textPath5152"><tspan
   style="font-style:normal;font-variant:normal;font-weight:normal;font-stretch:normal;font-size:24px;font-family:'Times New Roman';-inkscape-font-specification:'Times New Roman, '"
   id="tspan4406-5">706.7 nm</tspan></textPath></text>
    <text
       xml:space="preserve"
       style="font-style:normal;font-weight:normal;font-size:22.66666667px;line-height:1.25;font-family:sans-serif;letter-spacing:0px;word-spacing:0px;display:inline;color-interpolation:auto;fill:#000000;fill-opacity:1;stroke:none;stroke-width:1;stroke-linecap:square;stroke-linejoin:miter;stroke-miterlimit:10;stroke-dasharray:none;stroke-dashoffset:0;stroke-opacity:1;color-rendering:auto;image-rendering:auto;shape-rendering:auto;text-rendering:auto;"
       id="text4677-2"
       transform="rotate(-180,355.10251,226.64478)"><textPath
         xlink:href="#path4803"
         id="textPath5192"><tspan
   style="font-style:normal;font-variant:normal;font-weight:normal;font-stretch:normal;font-size:22.66666667px;font-family:'Times New Roman';-inkscape-font-specification:'Times New Roman, ';"
   id="tspan4675-7">1083.3 nm</tspan></textPath></text>
  </g>
  <g
     inkscape:groupmode="layer"
     id="layer7"
     inkscape:label="wim"
     style="display:inline">
    <path
       style="fill:none;stroke:#240a00;stroke-width:1px;stroke-linecap:butt;stroke-linejoin:miter;stroke-opacity:1;marker-end:url(#marker7792)"
       d="M 228.30541,265.78667 124.67535,226.95869"
       id="path7782"
       inkscape:connector-curvature="0"
       sodipodi:nodetypes="cc" />
    <text
       xml:space="preserve"
       style="font-style:normal;font-variant:normal;font-weight:normal;font-stretch:normal;font-size:22.66666731px;line-height:1.25;font-family:'Times New Roman';-inkscape-font-specification:'Times New Roman, ';letter-spacing:0px;word-spacing:0px;fill:#000000;fill-opacity:1;stroke:none;"
       id="text8102"
       x="-2"
       transform="rotate(-180,187.21755,248.91171)"><textPath
         xlink:href="#path7782"
         id="textPath8110"><tspan
   id="tspan8100"
   style="font-size:22.66666731px;">1557 nm</tspan></textPath></text>
  </g>
  <g
     inkscape:groupmode="layer"
     id="layer6"
     inkscape:label="energy"
     style="display:inline">
    <path
       style="font-style:normal;font-weight:normal;font-size:12px;font-family:Dialog;color-interpolation:auto;fill:none;fill-opacity:1;stroke:#000000;stroke-width:1.01738179;stroke-linecap:butt;stroke-linejoin:miter;stroke-miterlimit:10;stroke-dasharray:none;stroke-dashoffset:0;stroke-opacity:1;marker-end:url(#marker6027);color-rendering:auto;image-rendering:auto;shape-rendering:auto;text-rendering:auto"
       d="M 40.253863,380.62232 40.865798,13.56428"
       id="path1617"
       inkscape:connector-curvature="0"
       sodipodi:nodetypes="cc" />
    <text
       y="-153.32466"
       x="-52.314552"
       xml:space="preserve"
       style="font-style:normal;font-weight:normal;font-size:30.66666794px;line-height:1.25;font-family:sans-serif;letter-spacing:0px;word-spacing:0px;color-interpolation:auto;fill:#000000;fill-opacity:1;stroke:none;stroke-width:1;stroke-linecap:square;stroke-linejoin:miter;stroke-miterlimit:10;stroke-dasharray:none;stroke-dashoffset:0;stroke-opacity:1;color-rendering:auto;image-rendering:auto;shape-rendering:auto;text-rendering:auto"
       id="text9593"
       transform="translate(-44.071144,-139.87946)"><textPath
         xlink:href="#path9063"
         id="textPath9601"><tspan
   style="font-style:normal;font-variant:normal;font-weight:normal;font-stretch:normal;font-size:30.66666794px;font-family:'Times New Roman';-inkscape-font-specification:'Times New Roman, '"
   id="tspan9591">Energy</tspan></textPath></text>
  </g>
  <g
     inkscape:groupmode="layer"
     id="layer9"
     inkscape:label="white"
     style="display:inline">
    <rect
       style="font-style:normal;font-weight:normal;font-size:12px;font-family:Dialog;display:inline;color-interpolation:auto;fill:#ffffff;fill-opacity:1;stroke:#ffffff;stroke-width:0.34410411;stroke-linecap:butt;stroke-linejoin:miter;stroke-miterlimit:10;stroke-dasharray:none;stroke-dashoffset:0;stroke-opacity:1;paint-order:markers fill stroke;color-rendering:auto;image-rendering:auto;shape-rendering:auto;text-rendering:auto"
       id="rect8793"
       width="41.677052"
       height="15.444903"
       x="19.439631"
       y="292.87354" />
  </g>
  <g
     inkscape:groupmode="layer"
     id="layer8"
     inkscape:label="axis break"
     style="display:inline">
    <path
       style="fill:none;stroke:#000000;stroke-width:1px;stroke-linecap:butt;stroke-linejoin:miter;stroke-opacity:1"
       d="m 24.45627,296.84729 13.099492,-11.22813 5.614067,11.85192 12.475706,-11.85192 v 0"
       id="path8760"
       inkscape:connector-curvature="0" />
    <path
       style="font-style:normal;font-weight:normal;font-size:12px;font-family:Dialog;display:inline;color-interpolation:auto;fill:none;fill-opacity:1;stroke:#000000;stroke-width:1px;stroke-linecap:butt;stroke-linejoin:miter;stroke-miterlimit:10;stroke-dasharray:none;stroke-dashoffset:0;stroke-opacity:1;color-rendering:auto;image-rendering:auto;shape-rendering:auto;text-rendering:auto"
       d="m 24.45627,313.06571 13.0995,-11.22813 5.61406,11.85192 12.47571,-11.85192 v 0"
       id="path8760-2"
       inkscape:connector-curvature="0" />
  </g>
  <g
     inkscape:groupmode="layer"
     id="layer5"
     inkscape:label="lifetime"
     style="display:inline">
    <text
       xml:space="preserve"
       style="font-style:normal;font-variant:normal;font-weight:normal;font-stretch:normal;font-size:21.33333397px;line-height:1.25;font-family:'Times New Roman';-inkscape-font-specification:'Times New Roman, ';letter-spacing:0px;word-spacing:0px;fill:#000000;fill-opacity:1;stroke:none"
       x="238.64044"
       y="46.966682"
       id="text5870"><tspan
         sodipodi:role="line"
         id="tspan5868"
         x="238.64044"
         y="46.966682">33 ns</tspan></text>
    <text
       xml:space="preserve"
       style="font-style:normal;font-variant:normal;font-weight:normal;font-stretch:normal;font-size:21.33333397px;line-height:1.25;font-family:'Times New Roman';-inkscape-font-specification:'Times New Roman, ';letter-spacing:0px;word-spacing:0px;fill:#000000;fill-opacity:1;stroke:none"
       x="390.14252"
       y="171.35724"
       id="text6336"><tspan
         sodipodi:role="line"
         id="tspan6334"
         x="390.14252"
         y="171.35724">100 ns</tspan></text>
    <text
       xml:space="preserve"
       style="font-style:normal;font-variant:normal;font-weight:normal;font-stretch:normal;font-size:21.33333397px;line-height:1.25;font-family:'Times New Roman';-inkscape-font-specification:'Times New Roman, ';letter-spacing:0px;word-spacing:0px;fill:#000000;fill-opacity:1;stroke:none"
       x="240.32484"
       y="264.30124"
       id="text6340"><tspan
         sodipodi:role="line"
         id="tspan6338"
         x="240.32484"
         y="264.30124">7 ks</tspan></text>
  </g>
  <g
     inkscape:groupmode="layer"
     id="layer3"
     inkscape:label="text"
     style="display:none">
    <text
       xml:space="preserve"
       style="font-style:normal;font-weight:normal;font-size:40px;line-height:1.25;font-family:sans-serif;letter-spacing:0px;word-spacing:0px;opacity:1;color-interpolation:auto;fill:#000000;fill-opacity:1;stroke:none;stroke-width:1;stroke-linecap:square;stroke-linejoin:miter;stroke-miterlimit:10;stroke-dasharray:none;stroke-dashoffset:0;stroke-opacity:1;color-rendering:auto;image-rendering:auto;shape-rendering:auto;text-rendering:auto"
       id="text4408"
       x="2"
       transform="translate(24,4)"><textPath
         xlink:href="#path4100"
         id="textPath4416"><tspan
   style="font-style:normal;font-variant:normal;font-weight:normal;font-stretch:normal;font-size:24px;font-family:'Times New Roman';-inkscape-font-specification:'Times New Roman, '"
   id="tspan4406">706.7 nm</tspan></textPath></text>
  </g>
  <text
     xml:space="preserve"
     style="font-style:normal;font-variant:normal;font-weight:normal;font-stretch:normal;font-size:22.66666667px;line-height:1.25;font-family:'Times New Roman';-inkscape-font-specification:'Times New Roman, ';letter-spacing:0px;word-spacing:0px;fill:#000000;fill-opacity:1;stroke:none;"
     id="text4083"
     y="-2"
     transform="translate(6,-48)"><textPath
       xlink:href="#path3190"
       id="textPath4091"><tspan
   id="tspan4081"
   style="font-size:22.66666667px;">427.7 nm</tspan></textPath></text>
</svg>
