<?xml version="1.0" encoding="UTF-8" standalone="no"?>
<svg
   xmlns:dc="http://purl.org/dc/elements/1.1/"
   xmlns:cc="http://creativecommons.org/ns#"
   xmlns:rdf="http://www.w3.org/1999/02/22-rdf-syntax-ns#"
   xmlns:svg="http://www.w3.org/2000/svg"
   xmlns="http://www.w3.org/2000/svg"
   xmlns:xlink="http://www.w3.org/1999/xlink"
   xmlns:sodipodi="http://sodipodi.sourceforge.net/DTD/sodipodi-0.dtd"
   xmlns:inkscape="http://www.inkscape.org/namespaces/inkscape"
   style="fill-opacity:1; color-rendering:auto; color-interpolation:auto; text-rendering:auto; stroke:black; stroke-linecap:square; stroke-miterlimit:10; shape-rendering:auto; stroke-opacity:1; fill:black; stroke-dasharray:none; font-weight:normal; stroke-width:1; font-family:'Dialog'; font-style:normal; stroke-linejoin:miter; font-size:12px; stroke-dashoffset:0; image-rendering:auto;"
   width="554"
   height="413"
   version="1.1"
   id="svg4222"
   sodipodi:docname="level_scheme_v2.svg"
   inkscape:version="0.92.4 (5da689c313, 2019-01-14)">
  <metadata
     id="metadata4226">
    <rdf:RDF>
      <cc:Work
         rdf:about="">
        <dc:format>image/svg+xml</dc:format>
        <dc:type
           rdf:resource="http://purl.org/dc/dcmitype/StillImage" />
        <dc:title></dc:title>
      </cc:Work>
    </rdf:RDF>
  </metadata>
  <sodipodi:namedview
     pagecolor="#ffffff"
     bordercolor="#666666"
     borderopacity="1"
     objecttolerance="10"
     gridtolerance="10"
     guidetolerance="10"
     inkscape:pageopacity="0"
     inkscape:pageshadow="2"
     inkscape:window-width="1517"
     inkscape:window-height="866"
     id="namedview4224"
     showgrid="false"
     inkscape:snap-bbox="true"
     inkscape:snap-nodes="false"
     inkscape:zoom="1.6031157"
     inkscape:cx="219.18533"
     inkscape:cy="223.3507"
     inkscape:window-x="0"
     inkscape:window-y="0"
     inkscape:window-maximized="0"
     inkscape:current-layer="svg4222"
     inkscape:snap-global="true"
     inkscape:snap-grids="true" />
  <!--Generated by the Batik Graphics2D SVG Generator-->
  <defs
     id="genericDefs">
    <marker
       inkscape:stockid="Arrow2Lend"
       orient="auto"
       refY="0.0"
       refX="0.0"
       id="marker9073"
       style="overflow:visible;"
       inkscape:isstock="true">
      <path
         id="path9071"
         style="fill-rule:evenodd;stroke-width:0.625;stroke-linejoin:round;stroke:#000000;stroke-opacity:1;fill:#000000;fill-opacity:1"
         d="M 8.7185878,4.0337352 L -2.2072895,0.016013256 L 8.7185884,-4.0017078 C 6.9730900,-1.6296469 6.9831476,1.6157441 8.7185878,4.0337352 z "
         transform="scale(1.1) rotate(180) translate(1,0)" />
    </marker>
    <marker
       inkscape:stockid="Arrow2Lend"
       orient="auto"
       refY="0.0"
       refX="0.0"
       id="marker8572"
       style="overflow:visible;"
       inkscape:isstock="true">
      <path
         id="path8570"
         style="fill-rule:evenodd;stroke-width:0.625;stroke-linejoin:round;stroke:#410d5e;stroke-opacity:1;fill:#410d5e;fill-opacity:1"
         d="M 8.7185878,4.0337352 L -2.2072895,0.016013256 L 8.7185884,-4.0017078 C 6.9730900,-1.6296469 6.9831476,1.6157441 8.7185878,4.0337352 z "
         transform="scale(1.1) rotate(180) translate(1,0)" />
    </marker>
    <marker
       inkscape:stockid="StopL"
       orient="auto"
       refY="0.0"
       refX="0.0"
       id="StopL"
       style="overflow:visible"
       inkscape:isstock="true">
      <path
         id="path5204"
         d="M 0.0,5.65 L 0.0,-5.65"
         style="fill:none;fill-opacity:0.75;fill-rule:evenodd;stroke:#000000;stroke-width:1pt;stroke-opacity:1"
         transform="scale(0.8)" />
    </marker>
    <marker
       inkscape:stockid="Tail"
       orient="auto"
       refY="0.0"
       refX="0.0"
       id="Tail"
       style="overflow:visible"
       inkscape:isstock="true">
      <g
         id="g5083"
         transform="scale(-1.2)"
         style="stroke:#000000;stroke-opacity:1;fill:#000000;fill-opacity:1">
        <path
           id="path5071"
           d="M -3.8048674,-3.9585227 L 0.54352094,0"
           style="fill:#000000;fill-rule:evenodd;stroke:#000000;stroke-width:0.8;stroke-linecap:round;stroke-opacity:1;fill-opacity:1" />
        <path
           id="path5073"
           d="M -1.2866832,-3.9585227 L 3.0617053,0"
           style="fill:#000000;fill-rule:evenodd;stroke:#000000;stroke-width:0.8;stroke-linecap:round;stroke-opacity:1;fill-opacity:1" />
        <path
           id="path5075"
           d="M 1.3053582,-3.9585227 L 5.6537466,0"
           style="fill:#000000;fill-rule:evenodd;stroke:#000000;stroke-width:0.8;stroke-linecap:round;stroke-opacity:1;fill-opacity:1" />
        <path
           id="path5077"
           d="M -3.8048674,4.1775838 L 0.54352094,0.21974226"
           style="fill:#000000;fill-rule:evenodd;stroke:#000000;stroke-width:0.8;stroke-linecap:round;stroke-opacity:1;fill-opacity:1" />
        <path
           id="path5079"
           d="M -1.2866832,4.1775838 L 3.0617053,0.21974226"
           style="fill:#000000;fill-rule:evenodd;stroke:#000000;stroke-width:0.8;stroke-linecap:round;stroke-opacity:1;fill-opacity:1" />
        <path
           id="path5081"
           d="M 1.3053582,4.1775838 L 5.6537466,0.21974226"
           style="fill:#000000;fill-rule:evenodd;stroke:#000000;stroke-width:0.8;stroke-linecap:round;stroke-opacity:1;fill-opacity:1" />
      </g>
    </marker>
    <marker
       inkscape:isstock="true"
       style="overflow:visible;"
       id="marker6729"
       refX="0.0"
       refY="0.0"
       orient="auto"
       inkscape:stockid="Arrow2Lend"
       inkscape:collect="always">
      <path
         transform="scale(1.1) rotate(180) translate(1,0)"
         d="M 8.7185878,4.0337352 L -2.2072895,0.016013256 L 8.7185884,-4.0017078 C 6.9730900,-1.6296469 6.9831476,1.6157441 8.7185878,4.0337352 z "
         style="fill-rule:evenodd;stroke-width:0.625;stroke-linejoin:round;stroke:#000000;stroke-opacity:1;fill:#000000;fill-opacity:1"
         id="path6727" />
    </marker>
    <marker
       inkscape:isstock="true"
       style="overflow:visible;"
       id="marker6469"
       refX="0.0"
       refY="0.0"
       orient="auto"
       inkscape:stockid="Arrow2Lend"
       inkscape:collect="always">
      <path
         transform="scale(1.1) rotate(180) translate(1,0)"
         d="M 8.7185878,4.0337352 L -2.2072895,0.016013256 L 8.7185884,-4.0017078 C 6.9730900,-1.6296469 6.9831476,1.6157441 8.7185878,4.0337352 z "
         style="fill-rule:evenodd;stroke-width:0.625;stroke-linejoin:round;stroke:#410d5e;stroke-opacity:1;fill:#410d5e;fill-opacity:1"
         id="path6467" />
    </marker>
    <marker
       inkscape:stockid="Arrow2Lend"
       orient="auto"
       refY="0.0"
       refX="0.0"
       id="marker6325"
       style="overflow:visible;"
       inkscape:isstock="true"
       inkscape:collect="always">
      <path
         id="path6323"
         style="fill-rule:evenodd;stroke-width:0.625;stroke-linejoin:round;stroke:#410d5e;stroke-opacity:1;fill:#410d5e;fill-opacity:1"
         d="M 8.7185878,4.0337352 L -2.2072895,0.016013256 L 8.7185884,-4.0017078 C 6.9730900,-1.6296469 6.9831476,1.6157441 8.7185878,4.0337352 z "
         transform="scale(1.1) rotate(180) translate(1,0)" />
    </marker>
    <marker
       inkscape:stockid="Arrow1Lend"
       orient="auto"
       refY="0.0"
       refX="0.0"
       id="marker6255"
       style="overflow:visible;"
       inkscape:isstock="true">
      <path
         id="path6253"
         d="M 0.0,0.0 L 5.0,-5.0 L -12.5,0.0 L 5.0,5.0 L 0.0,0.0 z "
         style="fill-rule:evenodd;stroke:#000000;stroke-width:1pt;stroke-opacity:1;fill:#000000;fill-opacity:1"
         transform="scale(0.8) rotate(180) translate(12.5,0)" />
    </marker>
    <marker
       inkscape:stockid="Arrow1Lend"
       orient="auto"
       refY="0.0"
       refX="0.0"
       id="marker6167"
       style="overflow:visible;"
       inkscape:isstock="true">
      <path
         id="path6165"
         d="M 0.0,0.0 L 5.0,-5.0 L -12.5,0.0 L 5.0,5.0 L 0.0,0.0 z "
         style="fill-rule:evenodd;stroke:#400056;stroke-width:1pt;stroke-opacity:1;fill:#400056;fill-opacity:1"
         transform="scale(0.8) rotate(180) translate(12.5,0)" />
    </marker>
    <marker
       inkscape:isstock="true"
       style="overflow:visible;"
       id="marker6109"
       refX="0.0"
       refY="0.0"
       orient="auto"
       inkscape:stockid="Arrow1Lend">
      <path
         transform="scale(0.8) rotate(180) translate(12.5,0)"
         style="fill-rule:evenodd;stroke:#400056;stroke-width:1pt;stroke-opacity:1;fill:#400056;fill-opacity:1"
         d="M 0.0,0.0 L 5.0,-5.0 L -12.5,0.0 L 5.0,5.0 L 0.0,0.0 z "
         id="path6107" />
    </marker>
    <marker
       inkscape:stockid="Arrow2Lend"
       orient="auto"
       refY="0.0"
       refX="0.0"
       id="marker5675"
       style="overflow:visible;"
       inkscape:isstock="true">
      <path
         id="path5673"
         style="fill-rule:evenodd;stroke-width:0.625;stroke-linejoin:round;stroke:#000000;stroke-opacity:1;fill:#000000;fill-opacity:1"
         d="M 8.7185878,4.0337352 L -2.2072895,0.016013256 L 8.7185884,-4.0017078 C 6.9730900,-1.6296469 6.9831476,1.6157441 8.7185878,4.0337352 z "
         transform="scale(1.1) rotate(180) translate(1,0)" />
    </marker>
    <marker
       inkscape:stockid="Arrow2Mend"
       orient="auto"
       refY="0.0"
       refX="0.0"
       id="Arrow2Mend"
       style="overflow:visible;"
       inkscape:isstock="true">
      <path
         id="path5062"
         style="fill-rule:evenodd;stroke-width:0.625;stroke-linejoin:round;stroke:#400056;stroke-opacity:1;fill:#400056;fill-opacity:1"
         d="M 8.7185878,4.0337352 L -2.2072895,0.016013256 L 8.7185884,-4.0017078 C 6.9730900,-1.6296469 6.9831476,1.6157441 8.7185878,4.0337352 z "
         transform="scale(0.6) rotate(180) translate(0,0)" />
    </marker>
    <marker
       inkscape:stockid="Arrow2Lend"
       orient="auto"
       refY="0.0"
       refX="0.0"
       id="Arrow2Lend"
       style="overflow:visible;"
       inkscape:isstock="true">
      <path
         id="path5056"
         style="fill-rule:evenodd;stroke-width:0.625;stroke-linejoin:round;stroke:#000000;stroke-opacity:1;fill:#000000;fill-opacity:1"
         d="M 8.7185878,4.0337352 L -2.2072895,0.016013256 L 8.7185884,-4.0017078 C 6.9730900,-1.6296469 6.9831476,1.6157441 8.7185878,4.0337352 z "
         transform="scale(1.1) rotate(180) translate(1,0)" />
    </marker>
    <marker
       inkscape:stockid="Arrow2Lstart"
       orient="auto"
       refY="0.0"
       refX="0.0"
       id="Arrow2Lstart"
       style="overflow:visible"
       inkscape:isstock="true">
      <path
         id="path5053"
         style="fill-rule:evenodd;stroke-width:0.625;stroke-linejoin:round;stroke:#000000;stroke-opacity:1;fill:#000000;fill-opacity:1"
         d="M 8.7185878,4.0337352 L -2.2072895,0.016013256 L 8.7185884,-4.0017078 C 6.9730900,-1.6296469 6.9831476,1.6157441 8.7185878,4.0337352 z "
         transform="scale(1.1) translate(1,0)" />
    </marker>
    <marker
       inkscape:stockid="Arrow1Lend"
       orient="auto"
       refY="0.0"
       refX="0.0"
       id="Arrow1Lend"
       style="overflow:visible;"
       inkscape:isstock="true">
      <path
         id="path5038"
         d="M 0.0,0.0 L 5.0,-5.0 L -12.5,0.0 L 5.0,5.0 L 0.0,0.0 z "
         style="fill-rule:evenodd;stroke:#400056;stroke-width:1pt;stroke-opacity:1;fill:#400056;fill-opacity:1"
         transform="scale(0.8) rotate(180) translate(12.5,0)" />
    </marker>
    <path
       style="fill:none;stroke:#410d5e;stroke-width:0.93545181px;stroke-linecap:butt;stroke-linejoin:miter;stroke-opacity:1;marker-end:url(#marker8572)"
       d="M 245.18523,264.65674 261.17614,70.463148"
       id="path8562-1"
       inkscape:connector-curvature="0" />
    <path
       style="fill:none;stroke:#410d5e;stroke-width:0.95495975px;stroke-linecap:butt;stroke-linejoin:miter;stroke-opacity:1;marker-end:url(#marker6325)"
       d="M 268.40832,263.91532 373.64738,182.82323"
       id="path6399-3"
       inkscape:connector-curvature="0" />
  </defs>
  <g
     id="g4220">
    <defs
       id="defs1">
      <clipPath
         clipPathUnits="userSpaceOnUse"
         id="clipPath1">
        <path
           d="M0 0 L554 0 L554 413 L0 413 L0 0 Z"
           id="path4052" />
      </clipPath>
    </defs>
    <g
       style="fill:white; stroke:white;"
       id="g4058">
      <rect
         x="0"
         y="0"
         width="554"
         style="clip-path:url(#clipPath1); stroke:none;"
         height="413"
         clip-path="url(#clipPath1)"
         id="rect4056" />
    </g>
    <g
       style="fill:white; text-rendering:optimizeSpeed; color-rendering:optimizeSpeed; image-rendering:optimizeSpeed; shape-rendering:crispEdges; stroke:white; color-interpolation:sRGB;"
       id="g4064">
      <rect
         x="0"
         width="554"
         height="413"
         y="0"
         style="stroke:none;"
         id="rect4060" />
      <path
         style="stroke:none;"
         d="M72 368 L501 368 L501 31 L72 31 Z"
         id="path4062" />
    </g>
    <g
       style="fill:rgb(38,38,38); text-rendering:geometricPrecision; image-rendering:optimizeQuality; color-rendering:optimizeQuality; stroke-linejoin:round; stroke:rgb(38,38,38); color-interpolation:linearRGB; stroke-width:0.6667;"
       id="g4070">
      <line
         y2="368"
         style="fill:none;"
         x1="72"
         x2="501"
         y1="368"
         id="line4066" />
      <line
         y2="31"
         style="fill:none;"
         x1="72"
         x2="72"
         y1="368"
         id="line4068" />
    </g>
    <g
       style="stroke-linecap:butt; text-rendering:geometricPrecision; color-rendering:optimizeQuality; image-rendering:optimizeQuality; stroke-linejoin:round; color-interpolation:linearRGB; stroke-width:2.6667;"
       id="g4074">
      <line
         y2="345.5334"
         style="fill:none;"
         x1="121.0286"
         x2="145.5429"
         y1="345.5334"
         id="line4072" />
    </g>
    <g
       transform="translate(133.2857,356.7667)"
       style="font-size:13.3333px; text-rendering:geometricPrecision; color-rendering:optimizeQuality; image-rendering:optimizeQuality; font-family:'mwa_cmr10'; color-interpolation:linearRGB;"
       id="g4084">
      <path
         style="stroke:none;"
         d="M1.2031 3.2 L1.2031 2.7468 Q2.8281 2.7468 2.8281 2.325 L2.8281 -4.4875 Q2.1562 -4.175 1.125 -4.175 L1.125 -4.6282 Q2.7188 -4.6282 3.5312 -5.4563 L3.7188 -5.4563 Q3.7656 -5.4563 3.8047 -5.425 Q3.8438 -5.3938 3.8438 -5.3469 L3.8438 2.325 Q3.8438 2.7468 5.4688 2.7468 L5.4688 3.2 L1.2031 3.2 Z"
         id="path4076" />
      <path
         style="stroke:none;"
         d="M7.4948 -1.6386 L7.4948 -1.9511 Q8.6198 -1.9511 8.6198 -2.248 L8.6198 -6.9667 Q8.1667 -6.748 7.4479 -6.748 L7.4479 -7.0605 Q8.5573 -7.0605 9.1198 -7.6386 L9.2448 -7.6386 Q9.2761 -7.6386 9.2995 -7.6152 Q9.3229 -7.5917 9.3229 -7.5605 L9.3229 -2.248 Q9.3229 -1.9511 10.4479 -1.9511 L10.4479 -1.6386 L7.4948 -1.6386 Z"
         id="path4078" />
      <path
         style="stroke:none;"
         d="M12.7969 3.4812 Q12.75 3.4812 12.7188 3.4421 Q12.6875 3.4031 12.6875 3.3562 L13.4375 0.325 Q13.4688 0.2468 13.5469 0.2468 L13.7031 0.2468 Q13.75 0.2468 13.7813 0.2859 Q13.8125 0.325 13.8125 0.3875 Q13.7031 0.825 13.7031 1.1687 Q13.7031 2.1218 14.3516 2.575 Q15 3.0281 15.9844 3.0281 Q16.4063 3.0281 16.8203 2.8171 Q17.2344 2.6062 17.5391 2.2703 Q17.8438 1.9343 18.0313 1.5203 Q18.2188 1.1062 18.2188 0.6843 Q18.2188 0.2156 17.9766 -0.136 Q17.7344 -0.4875 17.3125 -0.5969 L15.7188 -1.0188 Q15.0781 -1.1907 14.6953 -1.7063 Q14.3125 -2.2219 14.3125 -2.8625 Q14.3125 -3.6438 14.7813 -4.3704 Q15.25 -5.0969 15.9922 -5.5344 Q16.7344 -5.9719 17.5156 -5.9719 Q18.1094 -5.9719 18.6094 -5.7532 Q19.1094 -5.5344 19.375 -5.05 L20.1094 -5.925 Q20.1875 -5.9719 20.2031 -5.9719 L20.2813 -5.9719 Q20.3281 -5.9719 20.3594 -5.925 Q20.3906 -5.8782 20.3906 -5.8313 L19.6406 -2.8157 Q19.625 -2.7219 19.5469 -2.7219 L19.375 -2.7219 Q19.2656 -2.7219 19.2656 -2.8625 Q19.3281 -3.2844 19.3281 -3.5813 Q19.3281 -4.1907 19.125 -4.636 Q18.9219 -5.0813 18.5078 -5.3157 Q18.0938 -5.55 17.4688 -5.55 Q16.9531 -5.55 16.4375 -5.2532 Q15.9219 -4.9563 15.6016 -4.4563 Q15.2813 -3.9563 15.2813 -3.425 Q15.2813 -3.0032 15.5313 -2.6829 Q15.7813 -2.3625 16.1875 -2.2532 L17.7656 -1.8313 Q18.2031 -1.7219 18.5235 -1.4329 Q18.8438 -1.1438 19.0078 -0.7454 Q19.1719 -0.3469 19.1719 0.1218 Q19.1719 0.7312 18.9141 1.3328 Q18.6563 1.9343 18.1875 2.4343 Q17.7188 2.9343 17.125 3.2078 Q16.5313 3.4812 15.9219 3.4812 Q14.375 3.4812 13.7031 2.575 L12.9844 3.45 Q12.9063 3.4812 12.875 3.4812 L12.7969 3.4812 Z"
         id="path4080" />
      <path
         style="stroke:none;"
         d="M22.4259 5.4031 Q21.3166 5.4031 20.9259 4.489 Q20.5353 3.5749 20.5353 2.3249 Q20.5353 1.5437 20.6759 0.8562 Q20.8166 0.1687 21.2384 -0.3157 Q21.6603 -0.8001 22.4259 -0.8001 Q23.0197 -0.8001 23.3947 -0.511 Q23.7697 -0.2219 23.9728 0.239 Q24.1759 0.6999 24.2463 1.2234 Q24.3166 1.7468 24.3166 2.3249 Q24.3166 3.1062 24.1759 3.7781 Q24.0353 4.4499 23.6134 4.9265 Q23.1916 5.4031 22.4259 5.4031 ZM22.4259 5.1687 Q22.9259 5.1687 23.1759 4.6531 Q23.4259 4.1374 23.4806 3.5124 Q23.5353 2.8874 23.5353 2.1843 Q23.5353 1.5124 23.4806 0.9421 Q23.4259 0.3718 23.1759 -0.0969 Q22.9259 -0.5657 22.4259 -0.5657 Q21.9103 -0.5657 21.6681 -0.0969 Q21.4259 0.3718 21.3713 0.9421 Q21.3166 1.5124 21.3166 2.1843 Q21.3166 2.6843 21.34 3.1296 Q21.3634 3.5749 21.465 4.0437 Q21.5666 4.5124 21.8009 4.8406 Q22.0353 5.1687 22.4259 5.1687 Z"
         id="path4082" />
    </g>
    <g
       style="stroke-linecap:butt; text-rendering:geometricPrecision; color-rendering:optimizeQuality; image-rendering:optimizeQuality; stroke-linejoin:round; color-interpolation:linearRGB; stroke-width:2.6667;"
       id="g4088">
      <line
         y2="269.2215"
         style="fill:none;"
         x1="243.6"
         x2="268.1143"
         y1="269.2215"
         id="line4086" />
    </g>
    <g
       transform="translate(255.8571,280.4548)"
       style="font-size:13.3333px; text-rendering:geometricPrecision; color-rendering:optimizeQuality; image-rendering:optimizeQuality; font-family:'mwa_cmr10'; color-interpolation:linearRGB;"
       id="g4092">
      <path
         style="stroke:none;"
         d="M0.6406 3.2 L0.6406 2.8562 Q0.6406 2.825 0.6719 2.7781 L2.6875 0.5437 Q3.1562 0.0437 3.4375 -0.2922 Q3.7188 -0.6282 4 -1.0657 Q4.2812 -1.5032 4.4453 -1.9563 Q4.6094 -2.4094 4.6094 -2.9094 Q4.6094 -3.4407 4.4062 -3.9329 Q4.2031 -4.425 3.8125 -4.7141 Q3.4219 -5.0032 2.875 -5.0032 Q2.3125 -5.0032 1.8594 -4.6594 Q1.4062 -4.3157 1.2188 -3.7844 Q1.2812 -3.8 1.3594 -3.8 Q1.6562 -3.8 1.8594 -3.6047 Q2.0625 -3.4094 2.0625 -3.0969 Q2.0625 -2.8 1.8594 -2.5891 Q1.6562 -2.3782 1.3594 -2.3782 Q1.0625 -2.3782 0.8516 -2.5891 Q0.6406 -2.8 0.6406 -3.0969 Q0.6406 -3.5813 0.8281 -4.011 Q1.0156 -4.4407 1.3594 -4.7688 Q1.7031 -5.0969 2.1406 -5.2766 Q2.5781 -5.4563 3.0625 -5.4563 Q3.8125 -5.4563 4.4531 -5.1438 Q5.0938 -4.8313 5.4688 -4.2532 Q5.8438 -3.675 5.8438 -2.9094 Q5.8438 -2.3469 5.5938 -1.8391 Q5.3438 -1.3313 4.9609 -0.9172 Q4.5781 -0.5032 3.9688 0.0281 Q3.3594 0.5593 3.1719 0.7312 L1.7031 2.1531 L2.9531 2.1531 Q3.875 2.1531 4.4922 2.1375 Q5.1094 2.1218 5.1406 2.075 Q5.2969 1.9187 5.4531 0.8875 L5.8438 0.8875 L5.4688 3.2 L0.6406 3.2 Z"
         id="path4090" />
    </g>
    <g
       transform="translate(255.8571,280.4548)"
       style="font-size:9.3333px; text-rendering:geometricPrecision; color-rendering:optimizeQuality; image-rendering:optimizeQuality; font-family:'mwa_cmr10'; color-interpolation:linearRGB;"
       id="g4100">
      <path
         style="stroke:none;"
         d="M7.5261 -2.3261 Q7.7292 -2.0292 8.0886 -1.8808 Q8.4479 -1.7324 8.8542 -1.7324 Q9.3854 -1.7324 9.6042 -2.1777 Q9.8229 -2.623 9.8229 -3.1855 Q9.8229 -3.4355 9.7761 -3.6933 Q9.7292 -3.9511 9.6198 -4.1699 Q9.5104 -4.3886 9.3151 -4.5214 Q9.1198 -4.6542 8.8542 -4.6542 L8.2448 -4.6542 Q8.1667 -4.6542 8.1667 -4.7324 L8.1667 -4.8105 Q8.1667 -4.8886 8.2448 -4.8886 L8.7448 -4.9199 Q9.0573 -4.9199 9.2682 -5.162 Q9.4792 -5.4042 9.5729 -5.7402 Q9.6667 -6.0761 9.6667 -6.3886 Q9.6667 -6.8261 9.4714 -7.0995 Q9.2761 -7.373 8.8542 -7.373 Q8.5104 -7.373 8.1979 -7.2402 Q7.8854 -7.1074 7.6979 -6.8574 Q7.7292 -6.8574 7.737 -6.8574 Q7.7448 -6.8574 7.7604 -6.8574 Q7.9636 -6.8574 8.1042 -6.7167 Q8.2448 -6.5761 8.2448 -6.373 Q8.2448 -6.1855 8.1042 -6.0449 Q7.9636 -5.9042 7.7604 -5.9042 Q7.5729 -5.9042 7.4323 -6.0449 Q7.2917 -6.1855 7.2917 -6.373 Q7.2917 -6.7636 7.5182 -7.0527 Q7.7448 -7.3417 8.112 -7.4902 Q8.4792 -7.6386 8.8542 -7.6386 Q9.1354 -7.6386 9.4323 -7.5527 Q9.7292 -7.4667 9.9792 -7.3183 Q10.2292 -7.1699 10.3854 -6.9277 Q10.5417 -6.6855 10.5417 -6.3886 Q10.5417 -6.0136 10.3698 -5.6933 Q10.1979 -5.373 9.9011 -5.1386 Q9.6042 -4.9042 9.2604 -4.7949 Q9.6511 -4.7167 10.0026 -4.498 Q10.3542 -4.2792 10.5651 -3.9355 Q10.7761 -3.5917 10.7761 -3.2011 Q10.7761 -2.7011 10.5026 -2.2949 Q10.2292 -1.8886 9.7917 -1.662 Q9.3542 -1.4355 8.8542 -1.4355 Q8.4323 -1.4355 8.0104 -1.5995 Q7.5886 -1.7636 7.3151 -2.0839 Q7.0417 -2.4042 7.0417 -2.8574 Q7.0417 -3.0761 7.1901 -3.2245 Q7.3386 -3.373 7.5729 -3.373 Q7.7136 -3.373 7.8307 -3.3027 Q7.9479 -3.2324 8.0182 -3.1152 Q8.0886 -2.998 8.0886 -2.8574 Q8.0886 -2.6386 7.9323 -2.4824 Q7.7761 -2.3261 7.5729 -2.3261 L7.5261 -2.3261 Z"
         id="path4094" />
      <path
         style="stroke:none;"
         d="M12.7969 3.4812 Q12.75 3.4812 12.7188 3.4421 Q12.6875 3.4031 12.6875 3.3562 L13.4375 0.325 Q13.4688 0.2468 13.5469 0.2468 L13.7031 0.2468 Q13.75 0.2468 13.7813 0.2859 Q13.8125 0.325 13.8125 0.3875 Q13.7031 0.825 13.7031 1.1687 Q13.7031 2.1218 14.3516 2.575 Q15 3.0281 15.9844 3.0281 Q16.4063 3.0281 16.8203 2.8171 Q17.2344 2.6062 17.5391 2.2703 Q17.8438 1.9343 18.0313 1.5203 Q18.2188 1.1062 18.2188 0.6843 Q18.2188 0.2156 17.9766 -0.136 Q17.7344 -0.4875 17.3125 -0.5969 L15.7188 -1.0188 Q15.0781 -1.1907 14.6953 -1.7063 Q14.3125 -2.2219 14.3125 -2.8625 Q14.3125 -3.6438 14.7813 -4.3704 Q15.25 -5.0969 15.9922 -5.5344 Q16.7344 -5.9719 17.5156 -5.9719 Q18.1094 -5.9719 18.6094 -5.7532 Q19.1094 -5.5344 19.375 -5.05 L20.1094 -5.925 Q20.1875 -5.9719 20.2031 -5.9719 L20.2813 -5.9719 Q20.3281 -5.9719 20.3594 -5.925 Q20.3906 -5.8782 20.3906 -5.8313 L19.6406 -2.8157 Q19.625 -2.7219 19.5469 -2.7219 L19.375 -2.7219 Q19.2656 -2.7219 19.2656 -2.8625 Q19.3281 -3.2844 19.3281 -3.5813 Q19.3281 -4.1907 19.125 -4.636 Q18.9219 -5.0813 18.5078 -5.3157 Q18.0938 -5.55 17.4688 -5.55 Q16.9531 -5.55 16.4375 -5.2532 Q15.9219 -4.9563 15.6016 -4.4563 Q15.2813 -3.9563 15.2813 -3.425 Q15.2813 -3.0032 15.5313 -2.6829 Q15.7813 -2.3625 16.1875 -2.2532 L17.7656 -1.8313 Q18.2031 -1.7219 18.5235 -1.4329 Q18.8438 -1.1438 19.0078 -0.7454 Q19.1719 -0.3469 19.1719 0.1218 Q19.1719 0.7312 18.9141 1.3328 Q18.6563 1.9343 18.1875 2.4343 Q17.7188 2.9343 17.125 3.2078 Q16.5313 3.4812 15.9219 3.4812 Q14.375 3.4812 13.7031 2.575 L12.9844 3.45 Q12.9063 3.4812 12.875 3.4812 L12.7969 3.4812 Z"
         id="path4096" />
      <path
         style="stroke:none;"
         d="M21.0041 5.1999 L21.0041 4.8874 Q22.1291 4.8874 22.1291 4.5906 L22.1291 -0.1282 Q21.6759 0.0906 20.9572 0.0906 L20.9572 -0.2219 Q22.0666 -0.2219 22.6291 -0.8001 L22.7541 -0.8001 Q22.7853 -0.8001 22.8088 -0.7766 Q22.8322 -0.7532 22.8322 -0.7219 L22.8322 4.5906 Q22.8322 4.8874 23.9572 4.8874 L23.9572 5.1999 L21.0041 5.1999 Z"
         id="path4098" />
    </g>
    <g
       style="stroke-linecap:butt; text-rendering:geometricPrecision; color-rendering:optimizeQuality; image-rendering:optimizeQuality; stroke-linejoin:round; color-interpolation:linearRGB; stroke-width:2.6667;"
       id="g4104">
      <line
         y2="225.7111"
         style="fill:none;"
         x1="121.0286"
         x2="145.5429"
         y1="225.7111"
         id="line4102" />
    </g>
    <g
       transform="translate(133.2857,236.9444)"
       style="font-size:13.3333px; text-rendering:geometricPrecision; color-rendering:optimizeQuality; image-rendering:optimizeQuality; font-family:'mwa_cmr10'; color-interpolation:linearRGB;"
       id="g4108">
      <path
         style="stroke:none;"
         d="M0.6406 3.2 L0.6406 2.8562 Q0.6406 2.825 0.6719 2.7781 L2.6875 0.5437 Q3.1562 0.0437 3.4375 -0.2922 Q3.7188 -0.6282 4 -1.0657 Q4.2812 -1.5032 4.4453 -1.9563 Q4.6094 -2.4094 4.6094 -2.9094 Q4.6094 -3.4407 4.4062 -3.9329 Q4.2031 -4.425 3.8125 -4.7141 Q3.4219 -5.0032 2.875 -5.0032 Q2.3125 -5.0032 1.8594 -4.6594 Q1.4062 -4.3157 1.2188 -3.7844 Q1.2812 -3.8 1.3594 -3.8 Q1.6562 -3.8 1.8594 -3.6047 Q2.0625 -3.4094 2.0625 -3.0969 Q2.0625 -2.8 1.8594 -2.5891 Q1.6562 -2.3782 1.3594 -2.3782 Q1.0625 -2.3782 0.8516 -2.5891 Q0.6406 -2.8 0.6406 -3.0969 Q0.6406 -3.5813 0.8281 -4.011 Q1.0156 -4.4407 1.3594 -4.7688 Q1.7031 -5.0969 2.1406 -5.2766 Q2.5781 -5.4563 3.0625 -5.4563 Q3.8125 -5.4563 4.4531 -5.1438 Q5.0938 -4.8313 5.4688 -4.2532 Q5.8438 -3.675 5.8438 -2.9094 Q5.8438 -2.3469 5.5938 -1.8391 Q5.3438 -1.3313 4.9609 -0.9172 Q4.5781 -0.5032 3.9688 0.0281 Q3.3594 0.5593 3.1719 0.7312 L1.7031 2.1531 L2.9531 2.1531 Q3.875 2.1531 4.4922 2.1375 Q5.1094 2.1218 5.1406 2.075 Q5.2969 1.9187 5.4531 0.8875 L5.8438 0.8875 L5.4688 3.2 L0.6406 3.2 Z"
         id="path4106" />
    </g>
    <g
       transform="translate(133.2857,236.9444)"
       style="font-size:9.3333px; text-rendering:geometricPrecision; color-rendering:optimizeQuality; image-rendering:optimizeQuality; font-family:'mwa_cmr10'; color-interpolation:linearRGB;"
       id="g4116">
      <path
         style="stroke:none;"
         d="M7.4948 -1.6386 L7.4948 -1.9511 Q8.6198 -1.9511 8.6198 -2.248 L8.6198 -6.9667 Q8.1667 -6.748 7.4479 -6.748 L7.4479 -7.0605 Q8.5573 -7.0605 9.1198 -7.6386 L9.2448 -7.6386 Q9.2761 -7.6386 9.2995 -7.6152 Q9.3229 -7.5917 9.3229 -7.5605 L9.3229 -2.248 Q9.3229 -1.9511 10.4479 -1.9511 L10.4479 -1.6386 L7.4948 -1.6386 Z"
         id="path4110" />
      <path
         style="stroke:none;"
         d="M12.7969 3.4812 Q12.75 3.4812 12.7188 3.4421 Q12.6875 3.4031 12.6875 3.3562 L13.4375 0.325 Q13.4688 0.2468 13.5469 0.2468 L13.7031 0.2468 Q13.75 0.2468 13.7813 0.2859 Q13.8125 0.325 13.8125 0.3875 Q13.7031 0.825 13.7031 1.1687 Q13.7031 2.1218 14.3516 2.575 Q15 3.0281 15.9844 3.0281 Q16.4063 3.0281 16.8203 2.8171 Q17.2344 2.6062 17.5391 2.2703 Q17.8438 1.9343 18.0313 1.5203 Q18.2188 1.1062 18.2188 0.6843 Q18.2188 0.2156 17.9766 -0.136 Q17.7344 -0.4875 17.3125 -0.5969 L15.7188 -1.0188 Q15.0781 -1.1907 14.6953 -1.7063 Q14.3125 -2.2219 14.3125 -2.8625 Q14.3125 -3.6438 14.7813 -4.3704 Q15.25 -5.0969 15.9922 -5.5344 Q16.7344 -5.9719 17.5156 -5.9719 Q18.1094 -5.9719 18.6094 -5.7532 Q19.1094 -5.5344 19.375 -5.05 L20.1094 -5.925 Q20.1875 -5.9719 20.2031 -5.9719 L20.2813 -5.9719 Q20.3281 -5.9719 20.3594 -5.925 Q20.3906 -5.8782 20.3906 -5.8313 L19.6406 -2.8157 Q19.625 -2.7219 19.5469 -2.7219 L19.375 -2.7219 Q19.2656 -2.7219 19.2656 -2.8625 Q19.3281 -3.2844 19.3281 -3.5813 Q19.3281 -4.1907 19.125 -4.636 Q18.9219 -5.0813 18.5078 -5.3157 Q18.0938 -5.55 17.4688 -5.55 Q16.9531 -5.55 16.4375 -5.2532 Q15.9219 -4.9563 15.6016 -4.4563 Q15.2813 -3.9563 15.2813 -3.425 Q15.2813 -3.0032 15.5313 -2.6829 Q15.7813 -2.3625 16.1875 -2.2532 L17.7656 -1.8313 Q18.2031 -1.7219 18.5235 -1.4329 Q18.8438 -1.1438 19.0078 -0.7454 Q19.1719 -0.3469 19.1719 0.1218 Q19.1719 0.7312 18.9141 1.3328 Q18.6563 1.9343 18.1875 2.4343 Q17.7188 2.9343 17.125 3.2078 Q16.5313 3.4812 15.9219 3.4812 Q14.375 3.4812 13.7031 2.575 L12.9844 3.45 Q12.9063 3.4812 12.875 3.4812 L12.7969 3.4812 Z"
         id="path4112" />
      <path
         style="stroke:none;"
         d="M22.4259 5.4031 Q21.3166 5.4031 20.9259 4.489 Q20.5353 3.5749 20.5353 2.3249 Q20.5353 1.5437 20.6759 0.8562 Q20.8166 0.1687 21.2384 -0.3157 Q21.6603 -0.8001 22.4259 -0.8001 Q23.0197 -0.8001 23.3947 -0.511 Q23.7697 -0.2219 23.9728 0.239 Q24.1759 0.6999 24.2463 1.2234 Q24.3166 1.7468 24.3166 2.3249 Q24.3166 3.1062 24.1759 3.7781 Q24.0353 4.4499 23.6134 4.9265 Q23.1916 5.4031 22.4259 5.4031 ZM22.4259 5.1687 Q22.9259 5.1687 23.1759 4.6531 Q23.4259 4.1374 23.4806 3.5124 Q23.5353 2.8874 23.5353 2.1843 Q23.5353 1.5124 23.4806 0.9421 Q23.4259 0.3718 23.1759 -0.0969 Q22.9259 -0.5657 22.4259 -0.5657 Q21.9103 -0.5657 21.6681 -0.0969 Q21.4259 0.3718 21.3713 0.9421 Q21.3166 1.5124 21.3166 2.1843 Q21.3166 2.6843 21.34 3.1296 Q21.3634 3.5749 21.465 4.0437 Q21.5666 4.5124 21.8009 4.8406 Q22.0353 5.1687 22.4259 5.1687 Z"
         id="path4114" />
    </g>
    <g
       style="stroke-linecap:butt; text-rendering:geometricPrecision; color-rendering:optimizeQuality; image-rendering:optimizeQuality; stroke-linejoin:round; color-interpolation:linearRGB; stroke-width:2.6667;"
       id="g4120">
      <line
         y2="203.2444"
         style="fill:none;"
         x1="427.4572"
         x2="451.9714"
         y1="203.2444"
         id="line4118" />
    </g>
    <g
       transform="translate(439.7143,214.4778)"
       style="font-size:13.3333px; text-rendering:geometricPrecision; color-rendering:optimizeQuality; image-rendering:optimizeQuality; font-family:'mwa_cmr10'; color-interpolation:linearRGB;"
       id="g4124">
      <path
         style="stroke:none;"
         d="M0.6406 3.2 L0.6406 2.8562 Q0.6406 2.825 0.6719 2.7781 L2.6875 0.5437 Q3.1562 0.0437 3.4375 -0.2922 Q3.7188 -0.6282 4 -1.0657 Q4.2812 -1.5032 4.4453 -1.9563 Q4.6094 -2.4094 4.6094 -2.9094 Q4.6094 -3.4407 4.4062 -3.9329 Q4.2031 -4.425 3.8125 -4.7141 Q3.4219 -5.0032 2.875 -5.0032 Q2.3125 -5.0032 1.8594 -4.6594 Q1.4062 -4.3157 1.2188 -3.7844 Q1.2812 -3.8 1.3594 -3.8 Q1.6562 -3.8 1.8594 -3.6047 Q2.0625 -3.4094 2.0625 -3.0969 Q2.0625 -2.8 1.8594 -2.5891 Q1.6562 -2.3782 1.3594 -2.3782 Q1.0625 -2.3782 0.8516 -2.5891 Q0.6406 -2.8 0.6406 -3.0969 Q0.6406 -3.5813 0.8281 -4.011 Q1.0156 -4.4407 1.3594 -4.7688 Q1.7031 -5.0969 2.1406 -5.2766 Q2.5781 -5.4563 3.0625 -5.4563 Q3.8125 -5.4563 4.4531 -5.1438 Q5.0938 -4.8313 5.4688 -4.2532 Q5.8438 -3.675 5.8438 -2.9094 Q5.8438 -2.3469 5.5938 -1.8391 Q5.3438 -1.3313 4.9609 -0.9172 Q4.5781 -0.5032 3.9688 0.0281 Q3.3594 0.5593 3.1719 0.7312 L1.7031 2.1531 L2.9531 2.1531 Q3.875 2.1531 4.4922 2.1375 Q5.1094 2.1218 5.1406 2.075 Q5.2969 1.9187 5.4531 0.8875 L5.8438 0.8875 L5.4688 3.2 L0.6406 3.2 Z"
         id="path4122" />
    </g>
    <g
       transform="translate(439.7143,214.4778)"
       style="font-size:9.3333px; text-rendering:geometricPrecision; color-rendering:optimizeQuality; image-rendering:optimizeQuality; font-family:'mwa_cmr10'; color-interpolation:linearRGB;"
       id="g4132">
      <path
         style="stroke:none;"
         d="M7.5261 -2.3261 Q7.7292 -2.0292 8.0886 -1.8808 Q8.4479 -1.7324 8.8542 -1.7324 Q9.3854 -1.7324 9.6042 -2.1777 Q9.8229 -2.623 9.8229 -3.1855 Q9.8229 -3.4355 9.7761 -3.6933 Q9.7292 -3.9511 9.6198 -4.1699 Q9.5104 -4.3886 9.3151 -4.5214 Q9.1198 -4.6542 8.8542 -4.6542 L8.2448 -4.6542 Q8.1667 -4.6542 8.1667 -4.7324 L8.1667 -4.8105 Q8.1667 -4.8886 8.2448 -4.8886 L8.7448 -4.9199 Q9.0573 -4.9199 9.2682 -5.162 Q9.4792 -5.4042 9.5729 -5.7402 Q9.6667 -6.0761 9.6667 -6.3886 Q9.6667 -6.8261 9.4714 -7.0995 Q9.2761 -7.373 8.8542 -7.373 Q8.5104 -7.373 8.1979 -7.2402 Q7.8854 -7.1074 7.6979 -6.8574 Q7.7292 -6.8574 7.737 -6.8574 Q7.7448 -6.8574 7.7604 -6.8574 Q7.9636 -6.8574 8.1042 -6.7167 Q8.2448 -6.5761 8.2448 -6.373 Q8.2448 -6.1855 8.1042 -6.0449 Q7.9636 -5.9042 7.7604 -5.9042 Q7.5729 -5.9042 7.4323 -6.0449 Q7.2917 -6.1855 7.2917 -6.373 Q7.2917 -6.7636 7.5182 -7.0527 Q7.7448 -7.3417 8.112 -7.4902 Q8.4792 -7.6386 8.8542 -7.6386 Q9.1354 -7.6386 9.4323 -7.5527 Q9.7292 -7.4667 9.9792 -7.3183 Q10.2292 -7.1699 10.3854 -6.9277 Q10.5417 -6.6855 10.5417 -6.3886 Q10.5417 -6.0136 10.3698 -5.6933 Q10.1979 -5.373 9.9011 -5.1386 Q9.6042 -4.9042 9.2604 -4.7949 Q9.6511 -4.7167 10.0026 -4.498 Q10.3542 -4.2792 10.5651 -3.9355 Q10.7761 -3.5917 10.7761 -3.2011 Q10.7761 -2.7011 10.5026 -2.2949 Q10.2292 -1.8886 9.7917 -1.662 Q9.3542 -1.4355 8.8542 -1.4355 Q8.4323 -1.4355 8.0104 -1.5995 Q7.5886 -1.7636 7.3151 -2.0839 Q7.0417 -2.4042 7.0417 -2.8574 Q7.0417 -3.0761 7.1901 -3.2245 Q7.3386 -3.373 7.5729 -3.373 Q7.7136 -3.373 7.8307 -3.3027 Q7.9479 -3.2324 8.0182 -3.1152 Q8.0886 -2.998 8.0886 -2.8574 Q8.0886 -2.6386 7.9323 -2.4824 Q7.7761 -2.3261 7.5729 -2.3261 L7.5261 -2.3261 Z"
         id="path4126" />
      <path
         style="stroke:none;"
         d="M12.6406 3.2 Q12.5156 3.2 12.5156 3.0281 Q12.5156 2.9968 12.5313 2.9187 Q12.5469 2.8406 12.586 2.7937 Q12.625 2.7468 12.6719 2.7468 Q13.4688 2.7468 13.7813 2.6531 Q13.9531 2.5906 14.0313 2.3093 L15.8125 -4.8313 Q15.8281 -4.9563 15.8281 -5.0188 Q15.8281 -5.1594 15.6875 -5.175 Q15.4375 -5.2219 14.75 -5.2219 Q14.6094 -5.2219 14.6094 -5.3938 Q14.625 -5.425 14.6406 -5.5032 Q14.6563 -5.5813 14.6953 -5.6282 Q14.7344 -5.675 14.7813 -5.675 L19.2656 -5.675 Q19.8906 -5.675 20.4688 -5.4563 Q21.0469 -5.2375 21.4141 -4.7922 Q21.7813 -4.3469 21.7813 -3.7063 Q21.7813 -2.8782 21.1953 -2.2297 Q20.6094 -1.5813 19.7422 -1.2219 Q18.875 -0.8625 18.0625 -0.8625 L15.9531 -0.8625 L15.1563 2.3562 Q15.1406 2.4812 15.1406 2.5437 Q15.1406 2.5906 15.1563 2.6218 Q15.1719 2.6531 15.1953 2.6687 Q15.2188 2.6843 15.2813 2.6843 Q15.5313 2.7468 16.2344 2.7468 Q16.3594 2.7468 16.3594 2.9187 Q16.3125 3.0906 16.2891 3.1453 Q16.2656 3.2 16.125 3.2 L12.6406 3.2 ZM16.0156 -1.2375 L17.8438 -1.2375 Q19.1094 -1.2375 19.7656 -1.925 Q20.0938 -2.2532 20.3125 -2.8938 Q20.5313 -3.5344 20.5313 -4.05 Q20.5313 -4.6907 20.0391 -4.9563 Q19.5469 -5.2219 18.8281 -5.2219 L17.5781 -5.2219 Q17.2188 -5.2219 17.1094 -5.1594 Q17 -5.0969 16.9063 -4.7844 L16.0156 -1.2375 Z"
         id="path4128" />
      <path
         style="stroke:none;"
         d="M21.0133 5.1999 L21.0133 4.9656 Q21.0133 4.9343 21.029 4.9031 L22.4196 3.3562 Q22.7477 3.0124 22.943 2.7859 Q23.1383 2.5593 23.3336 2.2546 Q23.529 1.9499 23.6383 1.6374 Q23.7477 1.3249 23.7477 0.9656 Q23.7477 0.6062 23.6071 0.2624 Q23.4665 -0.0813 23.2008 -0.2766 Q22.9352 -0.4719 22.5446 -0.4719 Q22.154 -0.4719 21.8415 -0.2376 Q21.529 -0.0032 21.404 0.3718 Q21.4508 0.3562 21.4977 0.3562 Q21.7008 0.3562 21.8493 0.489 Q21.9977 0.6218 21.9977 0.8406 Q21.9977 1.0437 21.8493 1.1921 Q21.7008 1.3406 21.4977 1.3406 Q21.2946 1.3406 21.154 1.1921 Q21.0133 1.0437 21.0133 0.8406 Q21.0133 0.5124 21.1383 0.2156 Q21.2633 -0.0813 21.5055 -0.3157 Q21.7477 -0.5501 22.0446 -0.6751 Q22.3415 -0.8001 22.6852 -0.8001 Q23.2008 -0.8001 23.6461 -0.5813 Q24.0915 -0.3626 24.3493 0.0359 Q24.6071 0.4343 24.6071 0.9656 Q24.6071 1.3562 24.4352 1.7077 Q24.2633 2.0593 23.9977 2.3484 Q23.7321 2.6374 23.3102 3.0046 Q22.8883 3.3718 22.7633 3.4968 L21.7321 4.4656 L22.6071 4.4656 Q23.2477 4.4656 23.6696 4.4577 Q24.0915 4.4499 24.1227 4.4187 Q24.2321 4.3093 24.3415 3.5906 L24.6071 3.5906 L24.3415 5.1999 L21.0133 5.1999 Z"
         id="path4130" />
    </g>
    <g
       style="stroke-linecap:butt; text-rendering:geometricPrecision; color-rendering:optimizeQuality; image-rendering:optimizeQuality; stroke-linejoin:round; color-interpolation:linearRGB; stroke-width:2.6667;"
       id="g4136">
      <line
         y2="186.02"
         style="fill:none;"
         x1="427.4572"
         x2="451.9714"
         y1="186.02"
         id="line4134" />
    </g>
    <g
       transform="translate(439.7143,197.2533)"
       style="font-size:13.3333px; text-rendering:geometricPrecision; color-rendering:optimizeQuality; image-rendering:optimizeQuality; font-family:'mwa_cmr10'; color-interpolation:linearRGB;"
       id="g4140">
      <path
         style="stroke:none;"
         d="M0.6406 3.2 L0.6406 2.8562 Q0.6406 2.825 0.6719 2.7781 L2.6875 0.5437 Q3.1562 0.0437 3.4375 -0.2922 Q3.7188 -0.6282 4 -1.0657 Q4.2812 -1.5032 4.4453 -1.9563 Q4.6094 -2.4094 4.6094 -2.9094 Q4.6094 -3.4407 4.4062 -3.9329 Q4.2031 -4.425 3.8125 -4.7141 Q3.4219 -5.0032 2.875 -5.0032 Q2.3125 -5.0032 1.8594 -4.6594 Q1.4062 -4.3157 1.2188 -3.7844 Q1.2812 -3.8 1.3594 -3.8 Q1.6562 -3.8 1.8594 -3.6047 Q2.0625 -3.4094 2.0625 -3.0969 Q2.0625 -2.8 1.8594 -2.5891 Q1.6562 -2.3782 1.3594 -2.3782 Q1.0625 -2.3782 0.8516 -2.5891 Q0.6406 -2.8 0.6406 -3.0969 Q0.6406 -3.5813 0.8281 -4.011 Q1.0156 -4.4407 1.3594 -4.7688 Q1.7031 -5.0969 2.1406 -5.2766 Q2.5781 -5.4563 3.0625 -5.4563 Q3.8125 -5.4563 4.4531 -5.1438 Q5.0938 -4.8313 5.4688 -4.2532 Q5.8438 -3.675 5.8438 -2.9094 Q5.8438 -2.3469 5.5938 -1.8391 Q5.3438 -1.3313 4.9609 -0.9172 Q4.5781 -0.5032 3.9688 0.0281 Q3.3594 0.5593 3.1719 0.7312 L1.7031 2.1531 L2.9531 2.1531 Q3.875 2.1531 4.4922 2.1375 Q5.1094 2.1218 5.1406 2.075 Q5.2969 1.9187 5.4531 0.8875 L5.8438 0.8875 L5.4688 3.2 L0.6406 3.2 Z"
         id="path4138" />
    </g>
    <g
       transform="translate(439.7143,197.2533)"
       style="font-size:9.3333px; text-rendering:geometricPrecision; color-rendering:optimizeQuality; image-rendering:optimizeQuality; font-family:'mwa_cmr10'; color-interpolation:linearRGB;"
       id="g4148">
      <path
         style="stroke:none;"
         d="M7.5261 -2.3261 Q7.7292 -2.0292 8.0886 -1.8808 Q8.4479 -1.7324 8.8542 -1.7324 Q9.3854 -1.7324 9.6042 -2.1777 Q9.8229 -2.623 9.8229 -3.1855 Q9.8229 -3.4355 9.7761 -3.6933 Q9.7292 -3.9511 9.6198 -4.1699 Q9.5104 -4.3886 9.3151 -4.5214 Q9.1198 -4.6542 8.8542 -4.6542 L8.2448 -4.6542 Q8.1667 -4.6542 8.1667 -4.7324 L8.1667 -4.8105 Q8.1667 -4.8886 8.2448 -4.8886 L8.7448 -4.9199 Q9.0573 -4.9199 9.2682 -5.162 Q9.4792 -5.4042 9.5729 -5.7402 Q9.6667 -6.0761 9.6667 -6.3886 Q9.6667 -6.8261 9.4714 -7.0995 Q9.2761 -7.373 8.8542 -7.373 Q8.5104 -7.373 8.1979 -7.2402 Q7.8854 -7.1074 7.6979 -6.8574 Q7.7292 -6.8574 7.737 -6.8574 Q7.7448 -6.8574 7.7604 -6.8574 Q7.9636 -6.8574 8.1042 -6.7167 Q8.2448 -6.5761 8.2448 -6.373 Q8.2448 -6.1855 8.1042 -6.0449 Q7.9636 -5.9042 7.7604 -5.9042 Q7.5729 -5.9042 7.4323 -6.0449 Q7.2917 -6.1855 7.2917 -6.373 Q7.2917 -6.7636 7.5182 -7.0527 Q7.7448 -7.3417 8.112 -7.4902 Q8.4792 -7.6386 8.8542 -7.6386 Q9.1354 -7.6386 9.4323 -7.5527 Q9.7292 -7.4667 9.9792 -7.3183 Q10.2292 -7.1699 10.3854 -6.9277 Q10.5417 -6.6855 10.5417 -6.3886 Q10.5417 -6.0136 10.3698 -5.6933 Q10.1979 -5.373 9.9011 -5.1386 Q9.6042 -4.9042 9.2604 -4.7949 Q9.6511 -4.7167 10.0026 -4.498 Q10.3542 -4.2792 10.5651 -3.9355 Q10.7761 -3.5917 10.7761 -3.2011 Q10.7761 -2.7011 10.5026 -2.2949 Q10.2292 -1.8886 9.7917 -1.662 Q9.3542 -1.4355 8.8542 -1.4355 Q8.4323 -1.4355 8.0104 -1.5995 Q7.5886 -1.7636 7.3151 -2.0839 Q7.0417 -2.4042 7.0417 -2.8574 Q7.0417 -3.0761 7.1901 -3.2245 Q7.3386 -3.373 7.5729 -3.373 Q7.7136 -3.373 7.8307 -3.3027 Q7.9479 -3.2324 8.0182 -3.1152 Q8.0886 -2.998 8.0886 -2.8574 Q8.0886 -2.6386 7.9323 -2.4824 Q7.7761 -2.3261 7.5729 -2.3261 L7.5261 -2.3261 Z"
         id="path4142" />
      <path
         style="stroke:none;"
         d="M12.6406 3.2 Q12.5156 3.2 12.5156 3.0281 Q12.5156 2.9968 12.5313 2.9187 Q12.5469 2.8406 12.586 2.7937 Q12.625 2.7468 12.6719 2.7468 Q13.4688 2.7468 13.7813 2.6531 Q13.9531 2.5906 14.0313 2.3093 L15.8125 -4.8313 Q15.8281 -4.9563 15.8281 -5.0188 Q15.8281 -5.1594 15.6875 -5.175 Q15.4375 -5.2219 14.75 -5.2219 Q14.6094 -5.2219 14.6094 -5.3938 Q14.625 -5.425 14.6406 -5.5032 Q14.6563 -5.5813 14.6953 -5.6282 Q14.7344 -5.675 14.7813 -5.675 L19.2656 -5.675 Q19.8906 -5.675 20.4688 -5.4563 Q21.0469 -5.2375 21.4141 -4.7922 Q21.7813 -4.3469 21.7813 -3.7063 Q21.7813 -2.8782 21.1953 -2.2297 Q20.6094 -1.5813 19.7422 -1.2219 Q18.875 -0.8625 18.0625 -0.8625 L15.9531 -0.8625 L15.1563 2.3562 Q15.1406 2.4812 15.1406 2.5437 Q15.1406 2.5906 15.1563 2.6218 Q15.1719 2.6531 15.1953 2.6687 Q15.2188 2.6843 15.2813 2.6843 Q15.5313 2.7468 16.2344 2.7468 Q16.3594 2.7468 16.3594 2.9187 Q16.3125 3.0906 16.2891 3.1453 Q16.2656 3.2 16.125 3.2 L12.6406 3.2 ZM16.0156 -1.2375 L17.8438 -1.2375 Q19.1094 -1.2375 19.7656 -1.925 Q20.0938 -2.2532 20.3125 -2.8938 Q20.5313 -3.5344 20.5313 -4.05 Q20.5313 -4.6907 20.0391 -4.9563 Q19.5469 -5.2219 18.8281 -5.2219 L17.5781 -5.2219 Q17.2188 -5.2219 17.1094 -5.1594 Q17 -5.0969 16.9063 -4.7844 L16.0156 -1.2375 Z"
         id="path4144" />
      <path
         style="stroke:none;"
         d="M21.3883 5.1999 L21.3883 4.8874 Q22.5133 4.8874 22.5133 4.5906 L22.5133 -0.1282 Q22.0602 0.0906 21.3415 0.0906 L21.3415 -0.2219 Q22.4508 -0.2219 23.0133 -0.8001 L23.1383 -0.8001 Q23.1696 -0.8001 23.193 -0.7766 Q23.2165 -0.7532 23.2165 -0.7219 L23.2165 4.5906 Q23.2165 4.8874 24.3415 4.8874 L24.3415 5.1999 L21.3883 5.1999 Z"
         id="path4146" />
    </g>
    <g
       style="stroke-linecap:butt; text-rendering:geometricPrecision; color-rendering:optimizeQuality; image-rendering:optimizeQuality; stroke-linejoin:round; color-interpolation:linearRGB; stroke-width:2.6667;"
       id="g4152">
      <line
         y2="143.3333"
         style="fill:none;"
         x1="427.4572"
         x2="451.9714"
         y1="143.3333"
         id="line4150" />
    </g>
    <g
       transform="translate(439.7143,154.5666)"
       style="font-size:13.3333px; text-rendering:geometricPrecision; color-rendering:optimizeQuality; image-rendering:optimizeQuality; font-family:'mwa_cmr10'; color-interpolation:linearRGB;"
       id="g4156">
      <path
         style="stroke:none;"
         d="M0.6406 3.2 L0.6406 2.8562 Q0.6406 2.825 0.6719 2.7781 L2.6875 0.5437 Q3.1562 0.0437 3.4375 -0.2922 Q3.7188 -0.6282 4 -1.0657 Q4.2812 -1.5032 4.4453 -1.9563 Q4.6094 -2.4094 4.6094 -2.9094 Q4.6094 -3.4407 4.4062 -3.9329 Q4.2031 -4.425 3.8125 -4.7141 Q3.4219 -5.0032 2.875 -5.0032 Q2.3125 -5.0032 1.8594 -4.6594 Q1.4062 -4.3157 1.2188 -3.7844 Q1.2812 -3.8 1.3594 -3.8 Q1.6562 -3.8 1.8594 -3.6047 Q2.0625 -3.4094 2.0625 -3.0969 Q2.0625 -2.8 1.8594 -2.5891 Q1.6562 -2.3782 1.3594 -2.3782 Q1.0625 -2.3782 0.8516 -2.5891 Q0.6406 -2.8 0.6406 -3.0969 Q0.6406 -3.5813 0.8281 -4.011 Q1.0156 -4.4407 1.3594 -4.7688 Q1.7031 -5.0969 2.1406 -5.2766 Q2.5781 -5.4563 3.0625 -5.4563 Q3.8125 -5.4563 4.4531 -5.1438 Q5.0938 -4.8313 5.4688 -4.2532 Q5.8438 -3.675 5.8438 -2.9094 Q5.8438 -2.3469 5.5938 -1.8391 Q5.3438 -1.3313 4.9609 -0.9172 Q4.5781 -0.5032 3.9688 0.0281 Q3.3594 0.5593 3.1719 0.7312 L1.7031 2.1531 L2.9531 2.1531 Q3.875 2.1531 4.4922 2.1375 Q5.1094 2.1218 5.1406 2.075 Q5.2969 1.9187 5.4531 0.8875 L5.8438 0.8875 L5.4688 3.2 L0.6406 3.2 Z"
         id="path4154" />
    </g>
    <g
       transform="translate(439.7143,154.5666)"
       style="font-size:9.3333px; text-rendering:geometricPrecision; color-rendering:optimizeQuality; image-rendering:optimizeQuality; font-family:'mwa_cmr10'; color-interpolation:linearRGB;"
       id="g4164">
      <path
         style="stroke:none;"
         d="M7.5261 -2.3261 Q7.7292 -2.0292 8.0886 -1.8808 Q8.4479 -1.7324 8.8542 -1.7324 Q9.3854 -1.7324 9.6042 -2.1777 Q9.8229 -2.623 9.8229 -3.1855 Q9.8229 -3.4355 9.7761 -3.6933 Q9.7292 -3.9511 9.6198 -4.1699 Q9.5104 -4.3886 9.3151 -4.5214 Q9.1198 -4.6542 8.8542 -4.6542 L8.2448 -4.6542 Q8.1667 -4.6542 8.1667 -4.7324 L8.1667 -4.8105 Q8.1667 -4.8886 8.2448 -4.8886 L8.7448 -4.9199 Q9.0573 -4.9199 9.2682 -5.162 Q9.4792 -5.4042 9.5729 -5.7402 Q9.6667 -6.0761 9.6667 -6.3886 Q9.6667 -6.8261 9.4714 -7.0995 Q9.2761 -7.373 8.8542 -7.373 Q8.5104 -7.373 8.1979 -7.2402 Q7.8854 -7.1074 7.6979 -6.8574 Q7.7292 -6.8574 7.737 -6.8574 Q7.7448 -6.8574 7.7604 -6.8574 Q7.9636 -6.8574 8.1042 -6.7167 Q8.2448 -6.5761 8.2448 -6.373 Q8.2448 -6.1855 8.1042 -6.0449 Q7.9636 -5.9042 7.7604 -5.9042 Q7.5729 -5.9042 7.4323 -6.0449 Q7.2917 -6.1855 7.2917 -6.373 Q7.2917 -6.7636 7.5182 -7.0527 Q7.7448 -7.3417 8.112 -7.4902 Q8.4792 -7.6386 8.8542 -7.6386 Q9.1354 -7.6386 9.4323 -7.5527 Q9.7292 -7.4667 9.9792 -7.3183 Q10.2292 -7.1699 10.3854 -6.9277 Q10.5417 -6.6855 10.5417 -6.3886 Q10.5417 -6.0136 10.3698 -5.6933 Q10.1979 -5.373 9.9011 -5.1386 Q9.6042 -4.9042 9.2604 -4.7949 Q9.6511 -4.7167 10.0026 -4.498 Q10.3542 -4.2792 10.5651 -3.9355 Q10.7761 -3.5917 10.7761 -3.2011 Q10.7761 -2.7011 10.5026 -2.2949 Q10.2292 -1.8886 9.7917 -1.662 Q9.3542 -1.4355 8.8542 -1.4355 Q8.4323 -1.4355 8.0104 -1.5995 Q7.5886 -1.7636 7.3151 -2.0839 Q7.0417 -2.4042 7.0417 -2.8574 Q7.0417 -3.0761 7.1901 -3.2245 Q7.3386 -3.373 7.5729 -3.373 Q7.7136 -3.373 7.8307 -3.3027 Q7.9479 -3.2324 8.0182 -3.1152 Q8.0886 -2.998 8.0886 -2.8574 Q8.0886 -2.6386 7.9323 -2.4824 Q7.7761 -2.3261 7.5729 -2.3261 L7.5261 -2.3261 Z"
         id="path4158" />
      <path
         style="stroke:none;"
         d="M12.6406 3.2 Q12.5156 3.2 12.5156 3.0281 Q12.5156 2.9968 12.5313 2.9187 Q12.5469 2.8406 12.586 2.7937 Q12.625 2.7468 12.6719 2.7468 Q13.4688 2.7468 13.7813 2.6531 Q13.9531 2.5906 14.0313 2.3093 L15.8125 -4.8313 Q15.8281 -4.9563 15.8281 -5.0188 Q15.8281 -5.1594 15.6875 -5.175 Q15.4375 -5.2219 14.75 -5.2219 Q14.6094 -5.2219 14.6094 -5.3938 Q14.625 -5.425 14.6406 -5.5032 Q14.6563 -5.5813 14.6953 -5.6282 Q14.7344 -5.675 14.7813 -5.675 L19.2656 -5.675 Q19.8906 -5.675 20.4688 -5.4563 Q21.0469 -5.2375 21.4141 -4.7922 Q21.7813 -4.3469 21.7813 -3.7063 Q21.7813 -2.8782 21.1953 -2.2297 Q20.6094 -1.5813 19.7422 -1.2219 Q18.875 -0.8625 18.0625 -0.8625 L15.9531 -0.8625 L15.1563 2.3562 Q15.1406 2.4812 15.1406 2.5437 Q15.1406 2.5906 15.1563 2.6218 Q15.1719 2.6531 15.1953 2.6687 Q15.2188 2.6843 15.2813 2.6843 Q15.5313 2.7468 16.2344 2.7468 Q16.3594 2.7468 16.3594 2.9187 Q16.3125 3.0906 16.2891 3.1453 Q16.2656 3.2 16.125 3.2 L12.6406 3.2 ZM16.0156 -1.2375 L17.8438 -1.2375 Q19.1094 -1.2375 19.7656 -1.925 Q20.0938 -2.2532 20.3125 -2.8938 Q20.5313 -3.5344 20.5313 -4.05 Q20.5313 -4.6907 20.0391 -4.9563 Q19.5469 -5.2219 18.8281 -5.2219 L17.5781 -5.2219 Q17.2188 -5.2219 17.1094 -5.1594 Q17 -5.0969 16.9063 -4.7844 L16.0156 -1.2375 Z"
         id="path4160" />
      <path
         style="stroke:none;"
         d="M22.8102 5.4031 Q21.7008 5.4031 21.3102 4.489 Q20.9196 3.5749 20.9196 2.3249 Q20.9196 1.5437 21.0602 0.8562 Q21.2008 0.1687 21.6227 -0.3157 Q22.0446 -0.8001 22.8102 -0.8001 Q23.404 -0.8001 23.779 -0.511 Q24.154 -0.2219 24.3571 0.239 Q24.5602 0.6999 24.6305 1.2234 Q24.7008 1.7468 24.7008 2.3249 Q24.7008 3.1062 24.5602 3.7781 Q24.4196 4.4499 23.9977 4.9265 Q23.5758 5.4031 22.8102 5.4031 ZM22.8102 5.1687 Q23.3102 5.1687 23.5602 4.6531 Q23.8102 4.1374 23.8649 3.5124 Q23.9196 2.8874 23.9196 2.1843 Q23.9196 1.5124 23.8649 0.9421 Q23.8102 0.3718 23.5602 -0.0969 Q23.3102 -0.5657 22.8102 -0.5657 Q22.2946 -0.5657 22.0524 -0.0969 Q21.8102 0.3718 21.7555 0.9421 Q21.7008 1.5124 21.7008 2.1843 Q21.7008 2.6843 21.7243 3.1296 Q21.7477 3.5749 21.8493 4.0437 Q21.9508 4.5124 22.1852 4.8406 Q22.4196 5.1687 22.8102 5.1687 Z"
         id="path4162" />
    </g>
    <g
       style="stroke-linecap:butt; text-rendering:geometricPrecision; color-rendering:optimizeQuality; image-rendering:optimizeQuality; stroke-linejoin:round; color-interpolation:linearRGB; stroke-width:2.6667;"
       id="g4168">
      <line
         y2="109.6333"
         style="fill:none;"
         x1="121.0286"
         x2="145.5429"
         y1="109.6333"
         id="line4166" />
    </g>
    <g
       transform="translate(133.2857,120.8667)"
       style="font-size:13.3333px; text-rendering:geometricPrecision; color-rendering:optimizeQuality; image-rendering:optimizeQuality; font-family:'mwa_cmr10'; color-interpolation:linearRGB;"
       id="g4172">
      <path
         style="stroke:none;"
         d="M0.6406 3.2 L0.6406 2.8562 Q0.6406 2.825 0.6719 2.7781 L2.6875 0.5437 Q3.1562 0.0437 3.4375 -0.2922 Q3.7188 -0.6282 4 -1.0657 Q4.2812 -1.5032 4.4453 -1.9563 Q4.6094 -2.4094 4.6094 -2.9094 Q4.6094 -3.4407 4.4062 -3.9329 Q4.2031 -4.425 3.8125 -4.7141 Q3.4219 -5.0032 2.875 -5.0032 Q2.3125 -5.0032 1.8594 -4.6594 Q1.4062 -4.3157 1.2188 -3.7844 Q1.2812 -3.8 1.3594 -3.8 Q1.6562 -3.8 1.8594 -3.6047 Q2.0625 -3.4094 2.0625 -3.0969 Q2.0625 -2.8 1.8594 -2.5891 Q1.6562 -2.3782 1.3594 -2.3782 Q1.0625 -2.3782 0.8516 -2.5891 Q0.6406 -2.8 0.6406 -3.0969 Q0.6406 -3.5813 0.8281 -4.011 Q1.0156 -4.4407 1.3594 -4.7688 Q1.7031 -5.0969 2.1406 -5.2766 Q2.5781 -5.4563 3.0625 -5.4563 Q3.8125 -5.4563 4.4531 -5.1438 Q5.0938 -4.8313 5.4688 -4.2532 Q5.8438 -3.675 5.8438 -2.9094 Q5.8438 -2.3469 5.5938 -1.8391 Q5.3438 -1.3313 4.9609 -0.9172 Q4.5781 -0.5032 3.9688 0.0281 Q3.3594 0.5593 3.1719 0.7312 L1.7031 2.1531 L2.9531 2.1531 Q3.875 2.1531 4.4922 2.1375 Q5.1094 2.1218 5.1406 2.075 Q5.2969 1.9187 5.4531 0.8875 L5.8438 0.8875 L5.4688 3.2 L0.6406 3.2 Z"
         id="path4170" />
    </g>
    <g
       transform="translate(133.2857,120.8667)"
       style="font-size:9.3333px; text-rendering:geometricPrecision; color-rendering:optimizeQuality; image-rendering:optimizeQuality; font-family:'mwa_cmr10'; color-interpolation:linearRGB;"
       id="g4180">
      <path
         style="stroke:none;"
         d="M7.4948 -1.6386 L7.4948 -1.9511 Q8.6198 -1.9511 8.6198 -2.248 L8.6198 -6.9667 Q8.1667 -6.748 7.4479 -6.748 L7.4479 -7.0605 Q8.5573 -7.0605 9.1198 -7.6386 L9.2448 -7.6386 Q9.2761 -7.6386 9.2995 -7.6152 Q9.3229 -7.5917 9.3229 -7.5605 L9.3229 -2.248 Q9.3229 -1.9511 10.4479 -1.9511 L10.4479 -1.6386 L7.4948 -1.6386 Z"
         id="path4174" />
      <path
         style="stroke:none;"
         d="M12.6406 3.2 Q12.5156 3.2 12.5156 3.0281 Q12.5156 2.9968 12.5313 2.9187 Q12.5469 2.8406 12.586 2.7937 Q12.625 2.7468 12.6719 2.7468 Q13.4688 2.7468 13.7813 2.6531 Q13.9531 2.5906 14.0313 2.3093 L15.8125 -4.8313 Q15.8281 -4.9563 15.8281 -5.0188 Q15.8281 -5.1594 15.6875 -5.175 Q15.4375 -5.2219 14.75 -5.2219 Q14.6094 -5.2219 14.6094 -5.3938 Q14.625 -5.425 14.6406 -5.5032 Q14.6563 -5.5813 14.6953 -5.6282 Q14.7344 -5.675 14.7813 -5.675 L19.2656 -5.675 Q19.8906 -5.675 20.4688 -5.4563 Q21.0469 -5.2375 21.4141 -4.7922 Q21.7813 -4.3469 21.7813 -3.7063 Q21.7813 -2.8782 21.1953 -2.2297 Q20.6094 -1.5813 19.7422 -1.2219 Q18.875 -0.8625 18.0625 -0.8625 L15.9531 -0.8625 L15.1563 2.3562 Q15.1406 2.4812 15.1406 2.5437 Q15.1406 2.5906 15.1563 2.6218 Q15.1719 2.6531 15.1953 2.6687 Q15.2188 2.6843 15.2813 2.6843 Q15.5313 2.7468 16.2344 2.7468 Q16.3594 2.7468 16.3594 2.9187 Q16.3125 3.0906 16.2891 3.1453 Q16.2656 3.2 16.125 3.2 L12.6406 3.2 ZM16.0156 -1.2375 L17.8438 -1.2375 Q19.1094 -1.2375 19.7656 -1.925 Q20.0938 -2.2532 20.3125 -2.8938 Q20.5313 -3.5344 20.5313 -4.05 Q20.5313 -4.6907 20.0391 -4.9563 Q19.5469 -5.2219 18.8281 -5.2219 L17.5781 -5.2219 Q17.2188 -5.2219 17.1094 -5.1594 Q17 -5.0969 16.9063 -4.7844 L16.0156 -1.2375 Z"
         id="path4176" />
      <path
         style="stroke:none;"
         d="M21.3883 5.1999 L21.3883 4.8874 Q22.5133 4.8874 22.5133 4.5906 L22.5133 -0.1282 Q22.0602 0.0906 21.3415 0.0906 L21.3415 -0.2219 Q22.4508 -0.2219 23.0133 -0.8001 L23.1383 -0.8001 Q23.1696 -0.8001 23.193 -0.7766 Q23.2165 -0.7532 23.2165 -0.7219 L23.2165 4.5906 Q23.2165 4.8874 24.3415 4.8874 L24.3415 5.1999 L21.3883 5.1999 Z"
         id="path4178" />
    </g>
    <g
       style="stroke-linecap:butt; text-rendering:geometricPrecision; color-rendering:optimizeQuality; image-rendering:optimizeQuality; stroke-linejoin:round; color-interpolation:linearRGB; stroke-width:2.6667;"
       id="g4184">
      <line
         y2="52.0836"
         style="fill:none;"
         x1="243.6"
         x2="268.1143"
         y1="52.0836"
         id="line4182" />
    </g>
    <g
       transform="translate(255.8571,63.3171)"
       style="font-size:13.3333px; text-rendering:geometricPrecision; color-rendering:optimizeQuality; image-rendering:optimizeQuality; font-family:'mwa_cmr10'; color-interpolation:linearRGB;"
       id="g4188">
      <path
         style="stroke:none;"
         d="M1.2344 2.2 Q1.5469 2.6375 2.0625 2.8562 Q2.5781 3.075 3.1562 3.075 Q3.9219 3.075 4.2344 2.4265 Q4.5469 1.7781 4.5469 0.9656 Q4.5469 0.5906 4.4844 0.2234 Q4.4219 -0.1438 4.2578 -0.4563 Q4.0938 -0.7688 3.8203 -0.9641 Q3.5469 -1.1594 3.1562 -1.1594 L2.2812 -1.1594 Q2.1719 -1.1594 2.1719 -1.2688 L2.1719 -1.3938 Q2.1719 -1.4875 2.2812 -1.4875 L3 -1.55 Q3.4531 -1.55 3.7578 -1.8938 Q4.0625 -2.2375 4.2031 -2.7297 Q4.3438 -3.2219 4.3438 -3.6594 Q4.3438 -4.2844 4.0547 -4.6829 Q3.7656 -5.0813 3.1562 -5.0813 Q2.6719 -5.0813 2.2188 -4.8938 Q1.7656 -4.7063 1.5 -4.3313 Q1.5312 -4.3313 1.5469 -4.3391 Q1.5625 -4.3469 1.5938 -4.3469 Q1.875 -4.3469 2.0703 -4.1438 Q2.2656 -3.9407 2.2656 -3.6438 Q2.2656 -3.3625 2.0703 -3.1594 Q1.875 -2.9563 1.5938 -2.9563 Q1.2969 -2.9563 1.0938 -3.1594 Q0.8906 -3.3625 0.8906 -3.6438 Q0.8906 -4.2063 1.2266 -4.6204 Q1.5625 -5.0344 2.0938 -5.2454 Q2.625 -5.4563 3.1562 -5.4563 Q3.5625 -5.4563 4 -5.3391 Q4.4375 -5.2219 4.7891 -5.0032 Q5.1406 -4.7844 5.3672 -4.4407 Q5.5938 -4.0969 5.5938 -3.6594 Q5.5938 -3.1125 5.3516 -2.6516 Q5.1094 -2.1907 4.6797 -1.8547 Q4.25 -1.5188 3.75 -1.3469 Q4.3125 -1.2375 4.8203 -0.925 Q5.3281 -0.6125 5.6328 -0.1125 Q5.9375 0.3875 5.9375 0.95 Q5.9375 1.6687 5.5469 2.2468 Q5.1562 2.825 4.5156 3.1531 Q3.875 3.4812 3.1562 3.4812 Q2.5469 3.4812 1.9375 3.2546 Q1.3281 3.0281 0.9375 2.5593 Q0.5469 2.0906 0.5469 1.45 Q0.5469 1.1218 0.7656 0.9109 Q0.9844 0.7 1.2969 0.7 Q1.5156 0.7 1.6875 0.7937 Q1.8594 0.8875 1.9609 1.0671 Q2.0625 1.2468 2.0625 1.45 Q2.0625 1.7625 1.8359 1.9812 Q1.6094 2.2 1.2969 2.2 L1.2344 2.2 Z"
         id="path4186" />
    </g>
    <g
       transform="translate(255.8571,63.3171)"
       style="font-size:9.3333px; text-rendering:geometricPrecision; color-rendering:optimizeQuality; image-rendering:optimizeQuality; font-family:'mwa_cmr10'; color-interpolation:linearRGB;"
       id="g4196">
      <path
         style="stroke:none;"
         d="M7.5261 -2.3261 Q7.7292 -2.0292 8.0886 -1.8808 Q8.4479 -1.7324 8.8542 -1.7324 Q9.3854 -1.7324 9.6042 -2.1777 Q9.8229 -2.623 9.8229 -3.1855 Q9.8229 -3.4355 9.7761 -3.6933 Q9.7292 -3.9511 9.6198 -4.1699 Q9.5104 -4.3886 9.3151 -4.5214 Q9.1198 -4.6542 8.8542 -4.6542 L8.2448 -4.6542 Q8.1667 -4.6542 8.1667 -4.7324 L8.1667 -4.8105 Q8.1667 -4.8886 8.2448 -4.8886 L8.7448 -4.9199 Q9.0573 -4.9199 9.2682 -5.162 Q9.4792 -5.4042 9.5729 -5.7402 Q9.6667 -6.0761 9.6667 -6.3886 Q9.6667 -6.8261 9.4714 -7.0995 Q9.2761 -7.373 8.8542 -7.373 Q8.5104 -7.373 8.1979 -7.2402 Q7.8854 -7.1074 7.6979 -6.8574 Q7.7292 -6.8574 7.737 -6.8574 Q7.7448 -6.8574 7.7604 -6.8574 Q7.9636 -6.8574 8.1042 -6.7167 Q8.2448 -6.5761 8.2448 -6.373 Q8.2448 -6.1855 8.1042 -6.0449 Q7.9636 -5.9042 7.7604 -5.9042 Q7.5729 -5.9042 7.4323 -6.0449 Q7.2917 -6.1855 7.2917 -6.373 Q7.2917 -6.7636 7.5182 -7.0527 Q7.7448 -7.3417 8.112 -7.4902 Q8.4792 -7.6386 8.8542 -7.6386 Q9.1354 -7.6386 9.4323 -7.5527 Q9.7292 -7.4667 9.9792 -7.3183 Q10.2292 -7.1699 10.3854 -6.9277 Q10.5417 -6.6855 10.5417 -6.3886 Q10.5417 -6.0136 10.3698 -5.6933 Q10.1979 -5.373 9.9011 -5.1386 Q9.6042 -4.9042 9.2604 -4.7949 Q9.6511 -4.7167 10.0026 -4.498 Q10.3542 -4.2792 10.5651 -3.9355 Q10.7761 -3.5917 10.7761 -3.2011 Q10.7761 -2.7011 10.5026 -2.2949 Q10.2292 -1.8886 9.7917 -1.662 Q9.3542 -1.4355 8.8542 -1.4355 Q8.4323 -1.4355 8.0104 -1.5995 Q7.5886 -1.7636 7.3151 -2.0839 Q7.0417 -2.4042 7.0417 -2.8574 Q7.0417 -3.0761 7.1901 -3.2245 Q7.3386 -3.373 7.5729 -3.373 Q7.7136 -3.373 7.8307 -3.3027 Q7.9479 -3.2324 8.0182 -3.1152 Q8.0886 -2.998 8.0886 -2.8574 Q8.0886 -2.6386 7.9323 -2.4824 Q7.7761 -2.3261 7.5729 -2.3261 L7.5261 -2.3261 Z"
         id="path4190" />
      <path
         style="stroke:none;"
         d="M12.7969 3.4812 Q12.75 3.4812 12.7188 3.4421 Q12.6875 3.4031 12.6875 3.3562 L13.4375 0.325 Q13.4688 0.2468 13.5469 0.2468 L13.7031 0.2468 Q13.75 0.2468 13.7813 0.2859 Q13.8125 0.325 13.8125 0.3875 Q13.7031 0.825 13.7031 1.1687 Q13.7031 2.1218 14.3516 2.575 Q15 3.0281 15.9844 3.0281 Q16.4063 3.0281 16.8203 2.8171 Q17.2344 2.6062 17.5391 2.2703 Q17.8438 1.9343 18.0313 1.5203 Q18.2188 1.1062 18.2188 0.6843 Q18.2188 0.2156 17.9766 -0.136 Q17.7344 -0.4875 17.3125 -0.5969 L15.7188 -1.0188 Q15.0781 -1.1907 14.6953 -1.7063 Q14.3125 -2.2219 14.3125 -2.8625 Q14.3125 -3.6438 14.7813 -4.3704 Q15.25 -5.0969 15.9922 -5.5344 Q16.7344 -5.9719 17.5156 -5.9719 Q18.1094 -5.9719 18.6094 -5.7532 Q19.1094 -5.5344 19.375 -5.05 L20.1094 -5.925 Q20.1875 -5.9719 20.2031 -5.9719 L20.2813 -5.9719 Q20.3281 -5.9719 20.3594 -5.925 Q20.3906 -5.8782 20.3906 -5.8313 L19.6406 -2.8157 Q19.625 -2.7219 19.5469 -2.7219 L19.375 -2.7219 Q19.2656 -2.7219 19.2656 -2.8625 Q19.3281 -3.2844 19.3281 -3.5813 Q19.3281 -4.1907 19.125 -4.636 Q18.9219 -5.0813 18.5078 -5.3157 Q18.0938 -5.55 17.4688 -5.55 Q16.9531 -5.55 16.4375 -5.2532 Q15.9219 -4.9563 15.6016 -4.4563 Q15.2813 -3.9563 15.2813 -3.425 Q15.2813 -3.0032 15.5313 -2.6829 Q15.7813 -2.3625 16.1875 -2.2532 L17.7656 -1.8313 Q18.2031 -1.7219 18.5235 -1.4329 Q18.8438 -1.1438 19.0078 -0.7454 Q19.1719 -0.3469 19.1719 0.1218 Q19.1719 0.7312 18.9141 1.3328 Q18.6563 1.9343 18.1875 2.4343 Q17.7188 2.9343 17.125 3.2078 Q16.5313 3.4812 15.9219 3.4812 Q14.375 3.4812 13.7031 2.575 L12.9844 3.45 Q12.9063 3.4812 12.875 3.4812 L12.7969 3.4812 Z"
         id="path4192" />
      <path
         style="stroke:none;"
         d="M21.0041 5.1999 L21.0041 4.8874 Q22.1291 4.8874 22.1291 4.5906 L22.1291 -0.1282 Q21.6759 0.0906 20.9572 0.0906 L20.9572 -0.2219 Q22.0666 -0.2219 22.6291 -0.8001 L22.7541 -0.8001 Q22.7853 -0.8001 22.8088 -0.7766 Q22.8322 -0.7532 22.8322 -0.7219 L22.8322 4.5906 Q22.8322 4.8874 23.9572 4.8874 L23.9572 5.1999 L21.0041 5.1999 Z"
         id="path4194" />
    </g>
    <g
       style="stroke-linecap:butt; text-rendering:geometricPrecision; color-rendering:optimizeQuality; image-rendering:optimizeQuality; stroke-linejoin:round; color-interpolation:linearRGB; stroke-width:2.6667;"
       id="g4200">
      <line
         y2="177.535"
         style="fill:none;"
         x1="366.1714"
         x2="390.6857"
         y1="177.535"
         id="line4198" />
    </g>
    <g
       transform="translate(378.4286,188.7685)"
       style="font-size:13.3333px; text-rendering:geometricPrecision; color-rendering:optimizeQuality; image-rendering:optimizeQuality; font-family:'mwa_cmr10'; color-interpolation:linearRGB;"
       id="g4204">
      <path
         style="stroke:none;"
         d="M0.6406 3.2 L0.6406 2.8562 Q0.6406 2.825 0.6719 2.7781 L2.6875 0.5437 Q3.1562 0.0437 3.4375 -0.2922 Q3.7188 -0.6282 4 -1.0657 Q4.2812 -1.5032 4.4453 -1.9563 Q4.6094 -2.4094 4.6094 -2.9094 Q4.6094 -3.4407 4.4062 -3.9329 Q4.2031 -4.425 3.8125 -4.7141 Q3.4219 -5.0032 2.875 -5.0032 Q2.3125 -5.0032 1.8594 -4.6594 Q1.4062 -4.3157 1.2188 -3.7844 Q1.2812 -3.8 1.3594 -3.8 Q1.6562 -3.8 1.8594 -3.6047 Q2.0625 -3.4094 2.0625 -3.0969 Q2.0625 -2.8 1.8594 -2.5891 Q1.6562 -2.3782 1.3594 -2.3782 Q1.0625 -2.3782 0.8516 -2.5891 Q0.6406 -2.8 0.6406 -3.0969 Q0.6406 -3.5813 0.8281 -4.011 Q1.0156 -4.4407 1.3594 -4.7688 Q1.7031 -5.0969 2.1406 -5.2766 Q2.5781 -5.4563 3.0625 -5.4563 Q3.8125 -5.4563 4.4531 -5.1438 Q5.0938 -4.8313 5.4688 -4.2532 Q5.8438 -3.675 5.8438 -2.9094 Q5.8438 -2.3469 5.5938 -1.8391 Q5.3438 -1.3313 4.9609 -0.9172 Q4.5781 -0.5032 3.9688 0.0281 Q3.3594 0.5593 3.1719 0.7312 L1.7031 2.1531 L2.9531 2.1531 Q3.875 2.1531 4.4922 2.1375 Q5.1094 2.1218 5.1406 2.075 Q5.2969 1.9187 5.4531 0.8875 L5.8438 0.8875 L5.4688 3.2 L0.6406 3.2 Z"
         id="path4202" />
    </g>
    <g
       transform="translate(378.4286,188.7685)"
       style="font-size:9.3333px; text-rendering:geometricPrecision; color-rendering:optimizeQuality; image-rendering:optimizeQuality; font-family:'mwa_cmr10'; color-interpolation:linearRGB;"
       id="g4210">
      <path
         style="stroke:none;"
         d="M7.5261 -2.3261 Q7.7292 -2.0292 8.0886 -1.8808 Q8.4479 -1.7324 8.8542 -1.7324 Q9.3854 -1.7324 9.6042 -2.1777 Q9.8229 -2.623 9.8229 -3.1855 Q9.8229 -3.4355 9.7761 -3.6933 Q9.7292 -3.9511 9.6198 -4.1699 Q9.5104 -4.3886 9.3151 -4.5214 Q9.1198 -4.6542 8.8542 -4.6542 L8.2448 -4.6542 Q8.1667 -4.6542 8.1667 -4.7324 L8.1667 -4.8105 Q8.1667 -4.8886 8.2448 -4.8886 L8.7448 -4.9199 Q9.0573 -4.9199 9.2682 -5.162 Q9.4792 -5.4042 9.5729 -5.7402 Q9.6667 -6.0761 9.6667 -6.3886 Q9.6667 -6.8261 9.4714 -7.0995 Q9.2761 -7.373 8.8542 -7.373 Q8.5104 -7.373 8.1979 -7.2402 Q7.8854 -7.1074 7.6979 -6.8574 Q7.7292 -6.8574 7.737 -6.8574 Q7.7448 -6.8574 7.7604 -6.8574 Q7.9636 -6.8574 8.1042 -6.7167 Q8.2448 -6.5761 8.2448 -6.373 Q8.2448 -6.1855 8.1042 -6.0449 Q7.9636 -5.9042 7.7604 -5.9042 Q7.5729 -5.9042 7.4323 -6.0449 Q7.2917 -6.1855 7.2917 -6.373 Q7.2917 -6.7636 7.5182 -7.0527 Q7.7448 -7.3417 8.112 -7.4902 Q8.4792 -7.6386 8.8542 -7.6386 Q9.1354 -7.6386 9.4323 -7.5527 Q9.7292 -7.4667 9.9792 -7.3183 Q10.2292 -7.1699 10.3854 -6.9277 Q10.5417 -6.6855 10.5417 -6.3886 Q10.5417 -6.0136 10.3698 -5.6933 Q10.1979 -5.373 9.9011 -5.1386 Q9.6042 -4.9042 9.2604 -4.7949 Q9.6511 -4.7167 10.0026 -4.498 Q10.3542 -4.2792 10.5651 -3.9355 Q10.7761 -3.5917 10.7761 -3.2011 Q10.7761 -2.7011 10.5026 -2.2949 Q10.2292 -1.8886 9.7917 -1.662 Q9.3542 -1.4355 8.8542 -1.4355 Q8.4323 -1.4355 8.0104 -1.5995 Q7.5886 -1.7636 7.3151 -2.0839 Q7.0417 -2.4042 7.0417 -2.8574 Q7.0417 -3.0761 7.1901 -3.2245 Q7.3386 -3.373 7.5729 -3.373 Q7.7136 -3.373 7.8307 -3.3027 Q7.9479 -3.2324 8.0182 -3.1152 Q8.0886 -2.998 8.0886 -2.8574 Q8.0886 -2.6386 7.9323 -2.4824 Q7.7761 -2.3261 7.5729 -2.3261 L7.5261 -2.3261 Z"
         id="path4206" />
      <path
         style="stroke:none;"
         d="M12.6406 3.2 Q12.5156 3.2 12.5156 3.0281 Q12.5156 2.9968 12.5313 2.9187 Q12.5469 2.8406 12.586 2.7937 Q12.625 2.7468 12.6719 2.7468 Q13.4688 2.7468 13.7813 2.6531 Q13.9531 2.5906 14.0313 2.3093 L15.8125 -4.8313 Q15.8281 -4.9563 15.8281 -5.0188 Q15.8281 -5.1594 15.6875 -5.175 Q15.4375 -5.2219 14.75 -5.2219 Q14.6094 -5.2219 14.6094 -5.3938 Q14.625 -5.425 14.6406 -5.5032 Q14.6563 -5.5813 14.6953 -5.6282 Q14.7344 -5.675 14.7813 -5.675 L19.2656 -5.675 Q19.8906 -5.675 20.4688 -5.4563 Q21.0469 -5.2375 21.4141 -4.7922 Q21.7813 -4.3469 21.7813 -3.7063 Q21.7813 -2.8782 21.1953 -2.2297 Q20.6094 -1.5813 19.7422 -1.2219 Q18.875 -0.8625 18.0625 -0.8625 L15.9531 -0.8625 L15.1563 2.3562 Q15.1406 2.4812 15.1406 2.5437 Q15.1406 2.5906 15.1563 2.6218 Q15.1719 2.6531 15.1953 2.6687 Q15.2188 2.6843 15.2813 2.6843 Q15.5313 2.7468 16.2344 2.7468 Q16.3594 2.7468 16.3594 2.9187 Q16.3125 3.0906 16.2891 3.1453 Q16.2656 3.2 16.125 3.2 L12.6406 3.2 ZM16.0156 -1.2375 L17.8438 -1.2375 Q19.1094 -1.2375 19.7656 -1.925 Q20.0938 -2.2532 20.3125 -2.8938 Q20.5313 -3.5344 20.5313 -4.05 Q20.5313 -4.6907 20.0391 -4.9563 Q19.5469 -5.2219 18.8281 -5.2219 L17.5781 -5.2219 Q17.2188 -5.2219 17.1094 -5.1594 Q17 -5.0969 16.9063 -4.7844 L16.0156 -1.2375 Z"
         id="path4208" />
    </g>
    <g
       style="stroke-linecap:butt; text-rendering:geometricPrecision; image-rendering:optimizeQuality; color-rendering:optimizeQuality; stroke-linejoin:bevel; stroke-dasharray:8,3,2,3; color-interpolation:linearRGB; stroke-width:0.6667; stroke-miterlimit:1;"
       id="g4218">
      <line
         y2="203.2444"
         style="fill:none;"
         x1="390.6857"
         x2="427.4572"
         y1="177.535"
         id="line4212" />
      <line
         y2="186.02"
         style="fill:none;"
         x1="390.6857"
         x2="427.4572"
         y1="177.535"
         id="line4214" />
      <line
         y2="143.3333"
         style="fill:none;"
         x1="390.6857"
         x2="427.4572"
         y1="177.535"
         id="line4216" />
    </g>
  </g>
  <path
     style="fill:none;stroke:#410d5e;stroke-width:0.99070114;stroke-linecap:butt;stroke-linejoin:miter;stroke-miterlimit:10;stroke-dasharray:none;stroke-opacity:1;marker-end:url(#marker6469);paint-order:fill markers stroke"
     d="M 375.53721,172.83138 266.16284,71.138207"
     id="path5647"
     inkscape:connector-curvature="0" />
  <path
     style="fill:none;stroke:#410d5e;stroke-width:0.95495975px;stroke-linecap:butt;stroke-linejoin:miter;stroke-opacity:1;marker-end:url(#marker6325)"
     d="M 268.40832,263.91532 373.64738,182.82323"
     id="path6399"
     inkscape:connector-curvature="0" />
  <path
     style="fill:none;stroke:#000000;stroke-width:1;stroke-linecap:butt;stroke-linejoin:miter;stroke-opacity:1;marker-end:url(#marker6729);stroke-miterlimit:10;stroke-dasharray:1, 1;stroke-dashoffset:0;marker-mid:url(#StopL);paint-order:markers fill stroke"
     d="m 130.37112,340.64091 114.7765,-64.24989"
     id="path6719"
     inkscape:connector-curvature="0" />
  <path
     style="fill:none;stroke:#000000;stroke-width:1px;stroke-linecap:butt;stroke-linejoin:miter;stroke-opacity:1"
     d="m 175.90745,309.45164 6.23785,8.733"
     id="path7377"
     inkscape:connector-curvature="0" />
  <path
     style="font-style:normal;font-weight:normal;font-size:12px;font-family:Dialog;color-interpolation:auto;fill:none;fill-opacity:1;stroke:#000000;stroke-width:1px;stroke-linecap:butt;stroke-linejoin:miter;stroke-miterlimit:10;stroke-dasharray:none;stroke-dashoffset:0;stroke-opacity:1;color-rendering:auto;image-rendering:auto;shape-rendering:auto;text-rendering:auto"
     d="m 182.76909,306.33271 6.23785,8.733"
     id="path7377-8"
     inkscape:connector-curvature="0" />
  <text
     xml:space="preserve"
     style="font-style:normal;font-weight:normal;font-size:40px;line-height:1.25;font-family:sans-serif;letter-spacing:0px;word-spacing:0px;fill:#000000;fill-opacity:1;stroke:none;stroke-width:0.99800003;stroke-miterlimit:10;stroke-dasharray:none"
     id="text7642"
     transform="translate(4,-74)"><textPath
       xlink:href="#path8562"
       id="textPath8820"><tspan
   style="font-size:14.66666698px;stroke-width:0.99800003;stroke-miterlimit:10;stroke-dasharray:none"
   id="tspan7640">427.7 nm</tspan></textPath></text>
  <path
     style="fill:none;stroke:#410d5e;stroke-width:0.93545181px;stroke-linecap:butt;stroke-linejoin:miter;stroke-opacity:1;marker-end:url(#marker8572)"
     d="M 245.18523,264.65674 261.17614,70.463148"
     id="path8562"
     inkscape:connector-curvature="0" />
  <text
     xml:space="preserve"
     style="font-style:normal;font-weight:normal;font-size:40px;line-height:1.25;font-family:sans-serif;letter-spacing:0px;word-spacing:0px;color-interpolation:auto;fill:#000000;fill-opacity:1;stroke:none;stroke-width:0.99800003;stroke-linecap:square;stroke-linejoin:miter;stroke-miterlimit:10;stroke-dasharray:none;stroke-dashoffset:0;stroke-opacity:1;color-rendering:auto;image-rendering:auto;shape-rendering:auto;text-rendering:auto"
     id="text7642-8"
     transform="translate(16,-16)"><textPath
       xlink:href="#path6399"
       id="textPath8878"><tspan
   style="font-size:14.66666698px;stroke-width:0.99800003;stroke-miterlimit:10;stroke-dasharray:none"
   id="tspan7640-9">1083.3 nm</tspan></textPath></text>
  <text
     xml:space="preserve"
     style="font-style:normal;font-weight:normal;font-size:40px;line-height:1.25;font-family:sans-serif;letter-spacing:0px;word-spacing:0px;color-interpolation:auto;fill:#000000;fill-opacity:1;stroke:none;stroke-width:0.99800003;stroke-linecap:square;stroke-linejoin:miter;stroke-miterlimit:10;stroke-dasharray:none;stroke-dashoffset:0;stroke-opacity:1;color-rendering:auto;image-rendering:auto;shape-rendering:auto;text-rendering:auto"
     id="text7642-8-1"
     transform="rotate(180,337.65873,135.48818)"><textPath
       xlink:href="#path5647"
       id="textPath9050"><tspan
   style="font-size:14.66666698px;stroke-width:0.99800003;stroke-miterlimit:10;stroke-dasharray:none"
   id="tspan7640-9-1">706.7 nm</tspan></textPath></text>
  <text
     xml:space="preserve"
     style="font-style:normal;font-weight:normal;font-size:16px;line-height:1.25;font-family:sans-serif;letter-spacing:0px;word-spacing:0px;fill:#000000;fill-opacity:1;stroke:none;"
     x="200.23508"
     y="328.16519"
     id="text9061"><tspan
       sodipodi:role="line"
       id="tspan9059"
       x="200.23508"
       y="328.16519">20 eV</tspan></text>
  <path
     style="fill:none;stroke:#000000;stroke-width:0.99400121;stroke-linecap:butt;stroke-linejoin:miter;stroke-miterlimit:10;stroke-dasharray:none;stroke-opacity:1;marker-end:url(#marker9073)"
     d="M 71.735307,368.71124 72.359092,24.986364"
     id="path9063"
     inkscape:connector-curvature="0"
     sodipodi:nodetypes="cc" />
  <text
     xml:space="preserve"
     style="font-style:normal;font-weight:normal;font-size:40px;line-height:1.25;font-family:sans-serif;letter-spacing:0px;word-spacing:0px;fill:#000000;fill-opacity:1;stroke:none"
     id="text9593"
     transform="translate(-8,-130)"><textPath
       xlink:href="#path9063"
       id="textPath9601"><tspan
   style="font-style:normal;font-variant:normal;font-weight:normal;font-stretch:normal;font-size:29.33333397px;font-family:'Times New Roman';-inkscape-font-specification:'Times New Roman, '"
   id="tspan9591">Energy</tspan></textPath></text>
</svg>
