<?xml version="1.0" encoding="UTF-8" standalone="no"?>
<!-- Created with Inkscape (http://www.inkscape.org/) -->

<svg
   xmlns:dc="http://purl.org/dc/elements/1.1/"
   xmlns:cc="http://creativecommons.org/ns#"
   xmlns:rdf="http://www.w3.org/1999/02/22-rdf-syntax-ns#"
   xmlns:svg="http://www.w3.org/2000/svg"
   xmlns="http://www.w3.org/2000/svg"
   xmlns:sodipodi="http://sodipodi.sourceforge.net/DTD/sodipodi-0.dtd"
   xmlns:inkscape="http://www.inkscape.org/namespaces/inkscape"
   version="1.1"
   id="svg10"
   xml:space="preserve"
   width="311.51917"
   height="349.17123"
   viewBox="0 0 311.51917 349.17123"
   sodipodi:docname="EnergyLevelsSimple.svg"
   inkscape:version="0.92.2 (5c3e80d, 2017-08-06)"><metadata
     id="metadata16"><rdf:RDF><cc:Work
         rdf:about=""><dc:format>image/svg+xml</dc:format><dc:type
           rdf:resource="http://purl.org/dc/dcmitype/StillImage" /><dc:title></dc:title></cc:Work></rdf:RDF></metadata><defs
     id="defs14"><clipPath
       clipPathUnits="userSpaceOnUse"
       id="clipPath28"><path
         d="M 0,0 H 595.276 V 841.89 H 0 Z"
         id="path26"
         inkscape:connector-curvature="0" /></clipPath><clipPath
       clipPathUnits="userSpaceOnUse"
       id="clipPath48"><path
         d="M 0,0 H 822.047 V 620.787 H 0 Z"
         id="path46"
         inkscape:connector-curvature="0" /></clipPath><clipPath
       clipPathUnits="userSpaceOnUse"
       id="clipPath58"><path
         d="M 0,620.787 H 822.047 V 0 H 0 Z"
         id="path56"
         inkscape:connector-curvature="0" /></clipPath><clipPath
       clipPathUnits="userSpaceOnUse"
       id="clipPath888"><path
         d="M 0,620.787 H 822.047 V 0 H 0 Z"
         id="path886"
         inkscape:connector-curvature="0" /></clipPath><clipPath
       clipPathUnits="userSpaceOnUse"
       id="clipPath900"><path
         d="M 0,620.787 H 822.047 V 0 H 0 Z"
         id="path898"
         inkscape:connector-curvature="0" /></clipPath><clipPath
       clipPathUnits="userSpaceOnUse"
       id="clipPath912"><path
         d="M 0,620.787 H 822.047 V 0 H 0 Z"
         id="path910"
         inkscape:connector-curvature="0" /></clipPath></defs><sodipodi:namedview
     pagecolor="#ffffff"
     bordercolor="#666666"
     borderopacity="1"
     objecttolerance="10"
     gridtolerance="10"
     guidetolerance="10"
     inkscape:pageopacity="0"
     inkscape:pageshadow="2"
     inkscape:window-width="1920"
     inkscape:window-height="1017"
     id="namedview12"
     showgrid="false"
     inkscape:zoom="1.6157878"
     inkscape:cx="190.3529"
     inkscape:cy="160.09938"
     inkscape:window-x="1912"
     inkscape:window-y="210"
     inkscape:window-maximized="1"
     inkscape:current-layer="g18"
     fit-margin-top="0"
     fit-margin-left="0"
     fit-margin-right="0"
     fit-margin-bottom="0" /><g
     id="g18"
     inkscape:groupmode="layer"
     inkscape:label="EnergyLevels"
     transform="matrix(1.3333333,0,0,-1.3333333,-174.56919,988.97307)"><g
       id="g60"
       transform="matrix(0.44827,0,0,0.44827,158.98114,494.66671)"><path
         d="M 0,0 H 85.646"
         style="fill:none;stroke:#231f20;stroke-width:5;stroke-linecap:butt;stroke-linejoin:miter;stroke-miterlimit:4;stroke-dasharray:none;stroke-opacity:1"
         id="path62"
         inkscape:connector-curvature="0" /></g><g
       id="g64"
       transform="matrix(0.44827,0,0,0.44827,158.26391,618.07902)"><path
         d="M 0,0 H 85.646"
         style="fill:none;stroke:#231f20;stroke-width:5;stroke-linecap:butt;stroke-linejoin:miter;stroke-miterlimit:4;stroke-dasharray:none;stroke-opacity:1"
         id="path66"
         inkscape:connector-curvature="0" /></g><g
       id="g68"
       transform="matrix(0.44827,0,0,0.44827,213.41815,642.6487)"><path
         d="M 0,0 H 85.647"
         style="fill:none;stroke:#231f20;stroke-width:5;stroke-linecap:butt;stroke-linejoin:miter;stroke-miterlimit:4;stroke-dasharray:none;stroke-opacity:1"
         id="path70"
         inkscape:connector-curvature="0" /></g><g
       id="g72"
       transform="matrix(0.44827,0,0,0.44827,181.99622,490.96444)"><path
         d="M 0,0 C 0,0.521 0,0.567 -0.502,0.567 -1.856,-0.824 -3.778,-0.824 -4.477,-0.824 V -1.49 c 0.435,0 1.716,0 2.845,0.551 v -11.232 c 0,-0.781 -0.065,-1.041 -2.02,-1.041 h -0.695 v -0.665 c 0.759,0.065 2.644,0.065 3.511,0.065 0.868,0 2.753,0 3.512,-0.065 v 0.665 H 1.99 c -1.926,0 -1.99,0.239 -1.99,1.042"
         style="fill:#231f20;fill-opacity:1;fill-rule:nonzero;stroke:none"
         id="path74"
         inkscape:connector-curvature="0" /></g><g
       id="g76"
       transform="matrix(0.44827,0,0,0.44827,186.24895,492.62439)"><path
         d="m 0,0 c 0,0.411 -0.03,0.428 -0.455,0.428 -0.969,-0.953 -2.346,-0.967 -2.966,-0.967 v -0.544 c 0.365,0 1.373,0 2.213,0.401 v -7.739 c 0,-0.5 0,-0.698 -1.528,-0.698 h -0.579 v -0.544 c 0.273,0.015 2.139,0.06 2.7,0.06 0.471,0 2.382,-0.045 2.716,-0.06 v 0.544 H 1.522 C 0,-9.119 0,-8.921 0,-8.419"
         style="fill:#231f20;fill-opacity:1;fill-rule:nonzero;stroke:none"
         id="path78"
         inkscape:connector-curvature="0" /></g><g
       id="g80"
       transform="matrix(0.44827,0,0,0.44827,191.72457,488.5151)"><path
         d="M 0,0 -2.774,0.673 C -4.118,1 -4.963,2.171 -4.963,3.429 c 0,1.52 1.167,2.844 2.853,2.844 3.61,0 4.086,-3.565 4.217,-4.542 0.021,-0.13 0.021,-0.26 0.261,-0.26 0.282,0 0.282,0.109 0.282,0.52 v 4.364 c 0,0.369 0,0.521 -0.23,0.521 -0.146,0 -0.167,-0.022 -0.313,-0.284 L 1.346,5.349 c -0.651,0.633 -1.54,1.527 -3.47,1.527 -2.408,0 -4.23,-1.911 -4.23,-4.211 0,-1.802 1.149,-3.386 2.839,-3.973 0.239,-0.087 1.345,-0.347 2.863,-0.716 0.585,-0.152 1.235,-0.304 1.842,-1.106 0.455,-0.566 0.674,-1.281 0.674,-1.996 0,-1.541 -1.086,-3.105 -2.906,-3.105 -0.628,0 -2.275,0.109 -3.424,1.174 -1.257,1.174 -1.322,2.564 -1.344,3.346 -0.022,0.218 -0.196,0.218 -0.261,0.218 -0.283,0 -0.283,-0.152 -0.283,-0.543 v -4.339 c 0,-0.369 0,-0.521 0.231,-0.521 0.145,0 0.167,0.044 0.313,0.282 0,0.022 0.065,0.088 0.783,1.241 0.673,-0.739 2.064,-1.523 3.998,-1.523 2.542,0 4.283,2.128 4.283,4.513 C 3.254,-2.212 1.822,-0.433 0,0"
         style="fill:#231f20;fill-opacity:1;fill-rule:nonzero;stroke:none"
         id="path82"
         inkscape:connector-curvature="0" /></g><g
       id="g84"
       transform="matrix(0.44827,0,0,0.44827,197.24681,485.48165)"><path
         d="m 0,0 c 0,1.671 -0.199,2.872 -0.9,3.934 -0.472,0.7 -1.417,1.309 -2.635,1.309 -3.536,0 -3.536,-4.15 -3.536,-5.243 0,-1.095 0,-5.15 3.536,-5.15 C 0,-5.15 0,-1.095 0,0 m -3.535,-4.728 c -0.7,0 -1.628,0.411 -1.933,1.657 -0.212,0.896 -0.212,2.143 -0.212,3.267 0,1.111 0,2.266 0.228,3.104 0.319,1.199 1.293,1.521 1.917,1.521 0.82,0 1.612,-0.504 1.885,-1.387 0.244,-0.82 0.26,-1.914 0.26,-3.238 0,-1.124 0,-2.248 -0.199,-3.205 -0.304,-1.384 -1.339,-1.719 -1.946,-1.719"
         style="fill:#231f20;fill-opacity:1;fill-rule:nonzero;stroke:none"
         id="path86"
         inkscape:connector-curvature="0" /></g><g
       id="g88"
       transform="matrix(0.44827,0,0,0.44827,181.57126,610.3903)"><path
         d="m 0,0 h -0.543 c -0.108,-0.642 -0.26,-1.585 -0.477,-1.906 -0.151,-0.172 -1.581,-0.172 -2.058,-0.172 h -3.9 l 2.297,2.23 C -1.301,3.138 0,4.308 0,6.472 c 0,2.469 -1.951,4.2 -4.593,4.2 -2.448,0 -4.052,-1.993 -4.052,-3.923 0,-1.213 1.095,-1.213 1.16,-1.213 0.372,0 1.138,0.261 1.138,1.159 0,0.568 -0.398,1.137 -1.169,1.137 h -0.286 c 0.497,1.386 1.662,2.175 2.913,2.175 1.965,0 2.893,-1.76 2.893,-3.539 0,-1.734 -1.081,-3.449 -2.267,-4.794 L -8.407,-2.968 C -8.645,-3.207 -8.645,-3.251 -8.645,-3.77 h 8.038"
         style="fill:#231f20;fill-opacity:1;fill-rule:nonzero;stroke:none"
         id="path90"
         inkscape:connector-curvature="0" /></g><g
       id="g92"
       transform="matrix(0.44827,0,0,0.44827,184.36084,616.5809)"><path
         d="m 0,0 c 0,0.411 -0.031,0.428 -0.454,0.428 -0.97,-0.952 -2.347,-0.967 -2.968,-0.967 v -0.545 c 0.366,0 1.373,0 2.213,0.401 v -7.738 c 0,-0.501 0,-0.698 -1.527,-0.698 h -0.58 v -0.544 c 0.274,0.015 2.139,0.059 2.7,0.059 0.471,0 2.382,-0.044 2.716,-0.059 v 0.544 H 1.522 C 0,-9.119 0,-8.922 0,-8.42"
         style="fill:#231f20;fill-opacity:1;fill-rule:nonzero;stroke:none"
         id="path94"
         inkscape:connector-curvature="0" /></g><g
       id="g96"
       transform="matrix(0.44827,0,0,0.44827,189.80956,612.47161)"><path
         d="m 0,0 -2.775,0.673 c -1.344,0.325 -2.189,1.498 -2.189,2.756 0,1.519 1.167,2.842 2.853,2.842 3.611,0 4.087,-3.562 4.217,-4.54 0.021,-0.13 0.021,-0.259 0.261,-0.259 0.283,0 0.283,0.107 0.283,0.519 v 4.363 c 0,0.37 0,0.522 -0.23,0.522 -0.147,0 -0.167,-0.022 -0.314,-0.283 L 1.345,5.349 c -0.65,0.632 -1.54,1.527 -3.47,1.527 -2.407,0 -4.23,-1.91 -4.23,-4.211 0,-1.803 1.149,-3.387 2.839,-3.973 0.24,-0.088 1.345,-0.347 2.863,-0.716 0.585,-0.153 1.236,-0.303 1.842,-1.107 0.455,-0.564 0.674,-1.28 0.674,-1.997 0,-1.541 -1.085,-3.103 -2.906,-3.103 -0.627,0 -2.275,0.109 -3.424,1.173 -1.257,1.174 -1.322,2.564 -1.344,3.347 -0.022,0.218 -0.196,0.218 -0.261,0.218 -0.283,0 -0.283,-0.153 -0.283,-0.543 v -4.34 c 0,-0.367 0,-0.521 0.231,-0.521 0.146,0 0.167,0.044 0.313,0.283 0,0.022 0.065,0.088 0.783,1.242 0.674,-0.74 2.065,-1.525 3.998,-1.525 2.543,0 4.283,2.127 4.283,4.513 C 3.253,-2.212 1.821,-0.435 0,0"
         style="fill:#231f20;fill-opacity:1;fill-rule:nonzero;stroke:none"
         id="path98"
         inkscape:connector-curvature="0" /></g><g
       id="g100"
       transform="matrix(0.44827,0,0,0.44827,195.35825,609.43817)"><path
         d="M 0,0 C 0,1.67 -0.198,2.871 -0.9,3.934 -1.371,4.633 -2.316,5.243 -3.535,5.243 -7.07,5.243 -7.07,1.093 -7.07,0 c 0,-1.095 0,-5.15 3.535,-5.15 C 0,-5.15 0,-1.095 0,0 m -3.535,-4.728 c -0.7,0 -1.628,0.41 -1.932,1.657 -0.212,0.897 -0.212,2.144 -0.212,3.268 0,1.11 0,2.264 0.228,3.101 0.319,1.2 1.293,1.522 1.916,1.522 0.822,0 1.612,-0.504 1.886,-1.386 0.244,-0.82 0.259,-1.914 0.259,-3.237 0,-1.124 0,-2.249 -0.198,-3.206 -0.304,-1.385 -1.338,-1.719 -1.947,-1.719"
         style="fill:#231f20;fill-opacity:1;fill-rule:nonzero;stroke:none"
         id="path102"
         inkscape:connector-curvature="0" /></g><g
       id="g104"
       transform="matrix(0.44827,0,0,0.44827,183.75702,653.57887)"><path
         d="m 0,0 h -0.543 c -0.108,-0.642 -0.261,-1.585 -0.478,-1.906 -0.15,-0.172 -1.58,-0.172 -2.057,-0.172 h -3.9 l 2.297,2.229 C -1.301,3.138 0,4.308 0,6.472 c 0,2.469 -1.951,4.2 -4.593,4.2 -2.448,0 -4.052,-1.993 -4.052,-3.923 0,-1.213 1.095,-1.213 1.16,-1.213 0.372,0 1.138,0.261 1.138,1.159 0,0.568 -0.398,1.137 -1.169,1.137 h -0.286 c 0.497,1.386 1.662,2.175 2.913,2.175 1.965,0 2.893,-1.76 2.893,-3.539 0,-1.734 -1.081,-3.449 -2.267,-4.794 L -8.407,-2.969 C -8.645,-3.207 -8.645,-3.251 -8.645,-3.77 h 8.039"
         style="fill:#231f20;fill-opacity:1;fill-rule:nonzero;stroke:none"
         id="path106"
         inkscape:connector-curvature="0" /></g><g
       id="g108"
       transform="matrix(0.44827,0,0,0.44827,238.08465,568.51112)"><path
         d="M 0,0 H -0.542 C -0.65,-0.644 -0.802,-1.586 -1.019,-1.908 -1.17,-2.079 -2.6,-2.079 -3.077,-2.079 h -3.9 L -4.681,0.15 C -1.3,3.136 0,4.306 0,6.47 c 0,2.469 -1.95,4.2 -4.592,4.2 -2.449,0 -4.051,-1.995 -4.051,-3.922 0,-1.214 1.093,-1.214 1.158,-1.214 0.373,0 1.138,0.261 1.138,1.159 0,0.567 -0.397,1.137 -1.168,1.137 h -0.287 c 0.497,1.386 1.662,2.174 2.914,2.174 1.964,0 2.893,-1.758 2.893,-3.537 0,-1.735 -1.08,-3.45 -2.267,-4.794 L -8.406,-2.969 C -8.643,-3.208 -8.643,-3.25 -8.643,-3.772 h 8.036"
         style="fill:#231f20;fill-opacity:1;fill-rule:nonzero;stroke:none"
         id="path110"
         inkscape:connector-curvature="0" /></g><g
       id="g112"
       transform="matrix(0.44827,0,0,0.44827,240.45331,572.61727)"><path
         d="m 0,0 c 1.18,0 2.028,-0.822 2.028,-2.449 0,-1.883 -1.091,-2.446 -1.969,-2.446 -0.606,0 -1.938,0.171 -2.574,1.088 0.711,0.029 0.878,0.533 0.878,0.854 0,0.488 -0.363,0.838 -0.833,0.838 -0.424,0 -0.848,-0.26 -0.848,-0.889 0,-1.44 1.577,-2.373 3.413,-2.373 2.107,0 3.564,1.412 3.564,2.931 0,1.186 -0.974,2.37 -2.647,2.72 1.597,0.576 2.175,1.716 2.175,2.644 0,1.199 -1.384,2.097 -3.073,2.097 -1.688,0 -2.981,-0.82 -2.981,-2.035 0,-0.515 0.335,-0.804 0.792,-0.804 0.474,0 0.78,0.351 0.78,0.779 0,0.441 -0.3,0.762 -0.763,0.793 0.529,0.676 1.574,0.845 2.133,0.845 0.68,0 1.634,-0.335 1.634,-1.66 0,-0.639 -0.212,-1.34 -0.605,-1.81 C 0.605,0.545 0.18,0.514 -0.576,0.468 -0.954,0.438 -0.984,0.438 -1.06,0.424 -1.09,0.424 -1.211,0.392 -1.211,0.22 -1.211,0 -1.075,0 -0.817,0"
         style="fill:#231f20;fill-opacity:1;fill-rule:nonzero;stroke:none"
         id="path114"
         inkscape:connector-curvature="0" /></g><g
       id="g116"
       transform="matrix(0.44827,0,0,0.44827,246.32296,570.59154)"><path
         d="m 0,0 -2.774,0.673 c -1.345,0.326 -2.19,1.497 -2.19,2.756 0,1.519 1.168,2.844 2.854,2.844 3.611,0 4.086,-3.565 4.217,-4.541 0.021,-0.131 0.021,-0.261 0.26,-0.261 0.283,0 0.283,0.108 0.283,0.52 v 4.364 c 0,0.369 0,0.521 -0.23,0.521 -0.146,0 -0.167,-0.022 -0.313,-0.283 L 1.345,5.35 c -0.649,0.632 -1.54,1.526 -3.47,1.526 -2.406,0 -4.23,-1.91 -4.23,-4.213 0,-1.801 1.15,-3.384 2.841,-3.97 0.239,-0.086 1.343,-0.348 2.861,-0.717 0.586,-0.153 1.236,-0.303 1.843,-1.107 0.455,-0.563 0.674,-1.28 0.674,-1.997 0,-1.541 -1.085,-3.102 -2.906,-3.102 -0.628,0 -2.276,0.108 -3.424,1.173 -1.257,1.173 -1.323,2.564 -1.344,3.346 -0.022,0.218 -0.196,0.218 -0.261,0.218 -0.284,0 -0.284,-0.152 -0.284,-0.543 v -4.34 c 0,-0.367 0,-0.519 0.232,-0.519 0.145,0 0.167,0.043 0.313,0.281 0,0.022 0.066,0.088 0.782,1.242 0.675,-0.74 2.065,-1.523 3.998,-1.523 2.543,0 4.284,2.126 4.284,4.511 C 3.254,-2.212 1.822,-0.432 0,0"
         style="fill:#231f20;fill-opacity:1;fill-rule:nonzero;stroke:none"
         id="path118"
         inkscape:connector-curvature="0" /></g><g
       id="g120"
       transform="matrix(0.44827,0,0,0.44827,250.62635,569.68917)"><path
         d="m 0,0 c 0,0.413 -0.031,0.428 -0.455,0.428 -0.968,-0.951 -2.346,-0.967 -2.967,-0.967 v -0.544 c 0.366,0 1.374,0 2.213,0.402 v -7.74 c 0,-0.5 0,-0.698 -1.526,-0.698 h -0.581 v -0.543 c 0.273,0.014 2.14,0.06 2.701,0.06 0.47,0 2.381,-0.046 2.715,-0.06 v 0.543 H 1.522 C 0,-9.119 0,-8.921 0,-8.419"
         style="fill:#231f20;fill-opacity:1;fill-rule:nonzero;stroke:none"
         id="path122"
         inkscape:connector-curvature="0" /></g><g
       id="g124"
       transform="matrix(0.44827,0,0,0.44827,236.54081,636.67237)"><path
         d="m 0,0 c 1.77,0.586 3.022,2.104 3.022,3.819 0,1.779 -1.901,2.994 -3.976,2.994 -2.18,0 -3.822,-1.293 -3.822,-2.931 0,-0.71 0.483,-1.12 1.119,-1.12 0.68,0 1.117,0.475 1.117,1.1 0,1.077 -1.048,1.077 -1.383,1.077 0.67,1.05 2.097,1.329 2.875,1.329 0.886,0 2.074,-0.479 2.074,-2.434 C 1.026,3.574 0.983,2.315 0.421,1.36 -0.227,0.317 -0.961,0.252 -1.501,0.231 -1.673,0.209 -2.191,0.166 -2.343,0.166 -2.516,0.145 -2.667,0.123 -2.667,-0.088 c 0,-0.23 0.151,-0.23 0.521,-0.23 h 0.953 c 1.778,0 2.581,-1.479 2.581,-3.608 0,-2.954 -1.497,-3.583 -2.451,-3.583 -0.932,0 -2.557,0.369 -3.315,1.644 0.751,-0.107 1.417,0.369 1.417,1.191 0,0.78 -0.582,1.213 -1.208,1.213 -0.519,0 -1.21,-0.302 -1.21,-1.256 0,-1.968 2.018,-3.398 4.382,-3.398 2.647,0 4.622,1.977 4.622,4.189 C 3.625,-2.147 2.257,-0.456 0,0"
         style="fill:#231f20;fill-opacity:1;fill-rule:nonzero;stroke:none"
         id="path126"
         inkscape:connector-curvature="0" /></g><g
       id="g128"
       transform="matrix(0.44827,0,0,0.44827,240.45331,639.04864)"><path
         d="m 0,0 c 1.18,0 2.028,-0.822 2.028,-2.447 0,-1.885 -1.091,-2.447 -1.969,-2.447 -0.606,0 -1.938,0.171 -2.574,1.087 0.711,0.031 0.878,0.534 0.878,0.854 0,0.488 -0.363,0.84 -0.833,0.84 -0.424,0 -0.848,-0.262 -0.848,-0.889 0,-1.441 1.577,-2.375 3.413,-2.375 2.107,0 3.564,1.412 3.564,2.932 0,1.185 -0.974,2.37 -2.647,2.719 1.597,0.577 2.175,1.716 2.175,2.644 0,1.199 -1.384,2.099 -3.073,2.099 -1.688,0 -2.981,-0.822 -2.981,-2.036 0,-0.516 0.335,-0.805 0.792,-0.805 0.474,0 0.78,0.351 0.78,0.779 0,0.442 -0.3,0.763 -0.763,0.793 0.529,0.676 1.574,0.845 2.133,0.845 0.68,0 1.634,-0.335 1.634,-1.66 C 1.709,2.295 1.497,1.596 1.104,1.123 0.605,0.545 0.18,0.516 -0.576,0.469 -0.954,0.439 -0.984,0.439 -1.06,0.425 -1.09,0.425 -1.211,0.393 -1.211,0.221 -1.211,0 -1.075,0 -0.817,0"
         style="fill:#231f20;fill-opacity:1;fill-rule:nonzero;stroke:none"
         id="path130"
         inkscape:connector-curvature="0" /></g><g
       id="g132"
       transform="matrix(0.44827,0,0,0.44827,246.32296,637.02291)"><path
         d="m 0,0 -2.774,0.674 c -1.345,0.326 -2.19,1.497 -2.19,2.755 0,1.52 1.168,2.843 2.854,2.843 3.611,0 4.086,-3.563 4.217,-4.54 0.021,-0.131 0.021,-0.26 0.26,-0.26 0.283,0 0.283,0.108 0.283,0.52 v 4.363 c 0,0.37 0,0.521 -0.23,0.521 -0.146,0 -0.167,-0.021 -0.313,-0.283 L 1.345,5.35 c -0.649,0.633 -1.54,1.526 -3.47,1.526 -2.406,0 -4.23,-1.91 -4.23,-4.21 0,-1.803 1.15,-3.387 2.841,-3.973 0.239,-0.088 1.343,-0.348 2.861,-0.717 0.586,-0.152 1.236,-0.303 1.843,-1.106 0.455,-0.564 0.674,-1.281 0.674,-1.997 0,-1.541 -1.085,-3.103 -2.906,-3.103 -0.628,0 -2.276,0.108 -3.424,1.173 -1.257,1.174 -1.323,2.564 -1.344,3.347 -0.022,0.217 -0.196,0.217 -0.261,0.217 -0.284,0 -0.284,-0.152 -0.284,-0.543 v -4.339 c 0,-0.368 0,-0.522 0.232,-0.522 0.145,0 0.167,0.045 0.313,0.283 0,0.024 0.066,0.088 0.782,1.242 0.675,-0.74 2.065,-1.525 3.998,-1.525 2.543,0 4.284,2.128 4.284,4.514 C 3.254,-2.211 1.822,-0.434 0,0"
         style="fill:#231f20;fill-opacity:1;fill-rule:nonzero;stroke:none"
         id="path134"
         inkscape:connector-curvature="0" /></g><g
       id="g136"
       transform="matrix(0.44827,0,0,0.44827,250.62635,636.12099)"><path
         d="m 0,0 c 0,0.412 -0.031,0.428 -0.455,0.428 -0.968,-0.952 -2.346,-0.967 -2.967,-0.967 v -0.544 c 0.366,0 1.374,0 2.213,0.401 V -8.42 c 0,-0.502 0,-0.699 -1.526,-0.699 h -0.581 v -0.543 c 0.273,0.013 2.14,0.059 2.701,0.059 0.47,0 2.381,-0.046 2.715,-0.059 v 0.543 H 1.522 C 0,-9.119 0,-8.922 0,-8.42"
         style="fill:#231f20;fill-opacity:1;fill-rule:nonzero;stroke:none"
         id="path138"
         inkscape:connector-curvature="0" /></g><g
       id="g140"
       transform="matrix(0.44827,0,0,0.44827,289.57474,589.6717)"><path
         d="M 0,0 H -0.543 C -0.651,-0.642 -0.803,-1.584 -1.02,-1.906 -1.171,-2.078 -2.6,-2.078 -3.078,-2.078 h -3.9 l 2.297,2.229 C -1.301,3.138 0,4.307 0,6.472 c 0,2.467 -1.95,4.2 -4.593,4.2 -2.448,0 -4.051,-1.995 -4.051,-3.924 0,-1.213 1.094,-1.213 1.159,-1.213 0.372,0 1.138,0.262 1.138,1.158 0,0.569 -0.398,1.139 -1.169,1.139 h -0.286 c 0.497,1.384 1.662,2.174 2.913,2.174 1.965,0 2.893,-1.758 2.893,-3.538 0,-1.735 -1.08,-3.449 -2.267,-4.795 L -8.407,-2.969 C -8.644,-3.207 -8.644,-3.25 -8.644,-3.772 h 8.037"
         style="fill:#231f20;fill-opacity:1;fill-rule:nonzero;stroke:none"
         id="path142"
         inkscape:connector-curvature="0" /></g><g
       id="g144"
       transform="matrix(0.44827,0,0,0.44827,291.94295,593.80475)"><path
         d="m 0,0 c 1.181,0 2.028,-0.82 2.028,-2.447 0,-1.885 -1.09,-2.446 -1.969,-2.446 -0.605,0 -1.938,0.171 -2.573,1.087 0.711,0.031 0.878,0.533 0.878,0.853 0,0.489 -0.364,0.84 -0.834,0.84 -0.423,0 -0.848,-0.262 -0.848,-0.89 0,-1.44 1.578,-2.373 3.413,-2.373 2.107,0 3.565,1.412 3.565,2.932 0,1.186 -0.975,2.37 -2.647,2.72 1.596,0.576 2.174,1.717 2.174,2.643 0,1.201 -1.384,2.099 -3.072,2.099 -1.689,0 -2.982,-0.821 -2.982,-2.035 0,-0.518 0.336,-0.805 0.794,-0.805 0.473,0 0.777,0.351 0.777,0.777 0,0.444 -0.298,0.764 -0.762,0.793 0.53,0.677 1.573,0.846 2.134,0.846 C 0.757,4.594 1.71,4.26 1.71,2.935 1.71,2.295 1.497,1.596 1.104,1.123 0.605,0.546 0.181,0.516 -0.575,0.47 -0.953,0.44 -0.984,0.44 -1.059,0.426 -1.09,0.426 -1.21,0.393 -1.21,0.221 c 0,-0.219 0.136,-0.219 0.393,-0.219"
         style="fill:#231f20;fill-opacity:1;fill-rule:nonzero;stroke:none"
         id="path146"
         inkscape:connector-curvature="0" /></g><g
       id="g148"
       transform="matrix(0.44827,0,0,0.44827,296.62961,591.04251)"><path
         d="m 0,0 h 3.666 c 2.602,0 4.947,1.76 4.947,3.934 0,2.129 -2.15,4.043 -5.121,4.043 H -4.164 V 7.311 h 0.513 c 1.646,0 1.688,-0.238 1.688,-1.02 V -5.144 c 0,-0.782 -0.042,-1.02 -1.688,-1.02 h -0.513 v -0.664 c 0.759,0.065 2.365,0.065 3.188,0.065 0.825,0 2.451,0 3.21,-0.065 v 0.664 H 1.713 C 0.043,-6.164 0,-5.926 0,-5.147 Z m -0.088,0.543 v 5.895 c 0,0.72 0.043,0.875 1.066,0.875 h 1.938 c 3.461,0 3.461,-2.316 3.461,-3.385 0,-1.026 0,-3.384 -3.461,-3.384"
         style="fill:#231f20;fill-opacity:1;fill-rule:nonzero;stroke:none"
         id="path150"
         inkscape:connector-curvature="0" /></g><g
       id="g152"
       transform="matrix(0.44827,0,0,0.44827,350.53094,727.37487)"><path
         d="m 0,0 c 1.383,0.456 2.362,1.636 2.362,2.968 0,1.382 -1.487,2.328 -3.11,2.328 -1.707,0 -2.992,-1.022 -2.992,-2.317 0,-0.561 0.365,-0.885 0.846,-0.885 0.513,0 0.845,0.369 0.845,0.854 0,0.838 -0.761,0.838 -1.004,0.838 0.522,0.859 1.628,1.087 2.233,1.087 0.687,0 1.61,-0.373 1.61,-1.902 C 0.79,2.767 0.756,1.782 0.32,1.034 -0.182,0.219 -0.751,0.168 -1.17,0.152 -1.303,0.134 -1.705,0.101 -1.822,0.101 -1.957,0.086 -2.074,0.069 -2.074,-0.088 c 0,-0.173 0.118,-0.173 0.406,-0.173 h 0.745 c 1.388,0 2.015,-1.143 2.015,-2.789 0,-2.284 -1.168,-2.771 -1.912,-2.771 -0.727,0 -1.995,0.286 -2.587,1.277 0.591,-0.084 1.115,0.286 1.115,0.924 0,0.605 -0.452,0.941 -0.936,0.941 -0.402,0 -0.937,-0.237 -0.937,-0.979 0,-1.534 1.571,-2.646 3.411,-2.646 2.062,0 3.6,1.534 3.6,3.254 0,1.382 -1.074,2.698 -2.848,3.051"
         style="fill:#231f20;fill-opacity:1;fill-rule:nonzero;stroke:none"
         id="path154"
         inkscape:connector-curvature="0" /></g><g
       id="g156"
       transform="matrix(0.44827,0,0,0.44827,353.56887,729.2074)"><path
         d="m 0,0 c 0.913,0 1.569,-0.64 1.569,-1.904 0,-1.466 -0.846,-1.904 -1.524,-1.904 -0.47,0 -1.502,0.133 -1.993,0.847 0.552,0.024 0.681,0.418 0.681,0.67 0,0.384 -0.283,0.659 -0.645,0.659 -0.329,0 -0.656,-0.203 -0.656,-0.691 0,-1.121 1.222,-1.846 2.643,-1.846 1.633,0 2.763,1.1 2.763,2.282 0,0.925 -0.75,1.848 -2.034,2.121 1.227,0.449 1.671,1.337 1.671,2.059 0,0.935 -1.064,1.635 -2.361,1.635 -1.298,0 -2.291,-0.647 -2.291,-1.603 0,-0.407 0.257,-0.634 0.609,-0.634 0.364,0 0.598,0.27 0.598,0.599 0,0.34 -0.242,0.586 -0.618,0.61 0.409,0.58 1.215,0.725 1.648,0.725 0.526,0 1.264,-0.267 1.264,-1.322 C 1.324,1.793 1.161,1.235 0.856,0.859 0.47,0.399 0.143,0.375 -0.443,0.338 -0.734,0.314 -0.758,0.314 -0.817,0.301 -0.839,0.301 -0.933,0.279 -0.933,0.156 -0.933,0 -0.829,0 -0.628,0"
         style="fill:#231f20;fill-opacity:1;fill-rule:nonzero;stroke:none"
         id="path158"
         inkscape:connector-curvature="0" /></g><g
       id="g160"
       transform="matrix(0.44827,0,0,0.44827,357.23213,727.0938)"><path
         d="m 0,0 h 2.849 c 2.022,0 3.842,1.374 3.842,3.07 0,1.662 -1.67,3.155 -3.978,3.155 H -3.234 V 5.682 h 0.396 c 1.278,0 1.311,-0.187 1.311,-0.793 v -8.87 c 0,-0.606 -0.033,-0.791 -1.311,-0.791 h -0.396 v -0.544 c 0.59,0.051 1.836,0.051 2.476,0.051 0.641,0 1.905,0 2.495,-0.051 v 0.544 H 1.332 c -1.297,0 -1.33,0.184 -1.33,0.787 z m -0.076,0.424 v 4.578 c 0,0.56 0.033,0.68 0.828,0.68 h 1.502 c 2.684,0 2.684,-1.799 2.684,-2.63 0,-0.797 0,-2.628 -2.684,-2.628"
         style="fill:#231f20;fill-opacity:1;fill-rule:nonzero;stroke:none"
         id="path162"
         inkscape:connector-curvature="0" /></g><g
       id="g164"
       transform="matrix(0.44827,0,0,0.44827,363.40033,725.26307)"><path
         d="M 0,0 C 0,1.301 -0.152,2.238 -0.698,3.066 -1.066,3.61 -1.801,4.084 -2.75,4.084 -5.5,4.084 -5.5,0.852 -5.5,0 c 0,-0.853 0,-4.013 2.75,-4.013 C 0,-4.013 0,-0.853 0,0 m -2.75,-3.711 c -0.541,0 -1.262,0.323 -1.496,1.301 -0.164,0.703 -0.164,1.683 -0.164,2.565 0,0.871 0,1.777 0.176,2.434 0.248,0.941 1.002,1.194 1.484,1.194 0.638,0 1.25,-0.396 1.463,-1.087 0.187,-0.645 0.2,-1.503 0.2,-2.541 0,-0.883 0,-1.765 -0.153,-2.517 -0.237,-1.085 -1.038,-1.349 -1.51,-1.349"
         style="fill:#231f20;fill-opacity:1;fill-rule:nonzero;stroke:none"
         id="path166"
         inkscape:connector-curvature="0" /></g><g
       id="g168"
       transform="matrix(0.44827,0,0,0.44827,350.31308,703.70621)"><path
         d="m 0,0 c 1.383,0.456 2.363,1.636 2.363,2.968 0,1.382 -1.488,2.328 -3.111,2.328 -1.708,0 -2.992,-1.022 -2.992,-2.317 0,-0.562 0.365,-0.885 0.845,-0.885 0.514,0 0.846,0.368 0.846,0.854 0,0.839 -0.761,0.839 -1.004,0.839 0.52,0.858 1.627,1.086 2.231,1.086 0.688,0 1.612,-0.374 1.612,-1.902 C 0.79,2.767 0.757,1.782 0.32,1.035 -0.182,0.22 -0.752,0.169 -1.17,0.152 -1.304,0.135 -1.707,0.101 -1.824,0.101 -1.958,0.085 -2.074,0.07 -2.074,-0.088 c 0,-0.174 0.118,-0.174 0.404,-0.174 h 0.746 c 1.389,0 2.016,-1.142 2.016,-2.787 0,-2.286 -1.168,-2.772 -1.913,-2.772 -0.727,0 -1.994,0.286 -2.586,1.277 0.59,-0.084 1.115,0.286 1.115,0.923 0,0.606 -0.452,0.942 -0.937,0.942 -0.402,0 -0.937,-0.237 -0.937,-0.979 0,-1.534 1.57,-2.646 3.412,-2.646 2.06,0 3.599,1.534 3.599,3.254 0,1.382 -1.075,2.697 -2.847,3.051"
         style="fill:#231f20;fill-opacity:1;fill-rule:nonzero;stroke:none"
         id="path170"
         inkscape:connector-curvature="0" /></g><g
       id="g172"
       transform="matrix(0.44827,0,0,0.44827,353.35101,705.53829)"><path
         d="m 0,0 c 0.912,0 1.567,-0.638 1.567,-1.903 0,-1.466 -0.844,-1.904 -1.524,-1.904 -0.469,0 -1.499,0.133 -1.99,0.846 0.549,0.024 0.68,0.419 0.68,0.671 0,0.383 -0.284,0.659 -0.645,0.659 -0.329,0 -0.656,-0.203 -0.656,-0.692 0,-1.119 1.221,-1.846 2.642,-1.846 1.635,0 2.762,1.101 2.762,2.284 0,0.923 -0.748,1.847 -2.034,2.119 1.227,0.45 1.672,1.338 1.672,2.06 0,0.935 -1.064,1.634 -2.361,1.634 -1.298,0 -2.291,-0.646 -2.291,-1.602 0,-0.407 0.258,-0.633 0.611,-0.633 0.362,0 0.596,0.27 0.596,0.597 0,0.341 -0.242,0.588 -0.619,0.612 0.41,0.579 1.217,0.724 1.65,0.724 0.526,0 1.262,-0.268 1.262,-1.323 C 1.322,1.794 1.159,1.236 0.856,0.861 0.469,0.399 0.143,0.375 -0.443,0.339 -0.735,0.315 -0.758,0.315 -0.818,0.303 -0.842,0.303 -0.934,0.28 -0.934,0.157 -0.934,0 -0.829,0 -0.631,0"
         style="fill:#231f20;fill-opacity:1;fill-rule:nonzero;stroke:none"
         id="path174"
         inkscape:connector-curvature="0" /></g><g
       id="g176"
       transform="matrix(0.44827,0,0,0.44827,357.01427,703.4256)"><path
         d="m 0,0 h 2.848 c 2.023,0 3.843,1.373 3.843,3.069 0,1.662 -1.67,3.156 -3.978,3.156 H -3.234 V 5.68 h 0.397 c 1.276,0 1.31,-0.186 1.31,-0.791 v -8.871 c 0,-0.607 -0.034,-0.791 -1.31,-0.791 h -0.397 v -0.544 c 0.589,0.051 1.836,0.051 2.477,0.051 0.64,0 1.901,0 2.493,-0.051 v 0.544 H 1.332 C 0.035,-4.773 0,-4.589 0,-3.986 Z m -0.077,0.423 v 4.578 c 0,0.559 0.034,0.679 0.827,0.679 h 1.502 c 2.686,0 2.686,-1.798 2.686,-2.629 0,-0.797 0,-2.628 -2.686,-2.628"
         style="fill:#231f20;fill-opacity:1;fill-rule:nonzero;stroke:none"
         id="path178"
         inkscape:connector-curvature="0" /></g><g
       id="g180"
       transform="matrix(0.44827,0,0,0.44827,362.20703,703.27677)"><path
         d="m 0,0 c 0,0.319 -0.023,0.332 -0.352,0.332 -0.747,-0.773 -1.81,-0.785 -2.29,-0.785 v -0.424 c 0.286,0 1.077,0 1.734,0.339 v -6.019 c 0,-0.39 0,-0.543 -1.197,-0.543 h -0.454 v -0.423 c 0.211,0.012 1.662,0.047 2.1,0.047 0.365,0 1.852,-0.035 2.111,-0.047 V -7.1 H 1.198 C 0,-7.1 0,-6.946 0,-6.555"
         style="fill:#231f20;fill-opacity:1;fill-rule:nonzero;stroke:none"
         id="path182"
         inkscape:connector-curvature="0" /></g><g
       id="g184"
       transform="matrix(0.44827,0,0,0.44827,350.95097,695.50332)"><path
         d="m 0,0 c 1.383,0.456 2.362,1.636 2.362,2.968 0,1.383 -1.486,2.329 -3.109,2.329 -1.708,0 -2.993,-1.023 -2.993,-2.317 0,-0.562 0.365,-0.885 0.846,-0.885 0.515,0 0.846,0.368 0.846,0.854 0,0.838 -0.762,0.838 -1.004,0.838 0.521,0.859 1.627,1.087 2.231,1.087 0.689,0 1.613,-0.374 1.613,-1.903 C 0.792,2.768 0.756,1.782 0.321,1.035 -0.182,0.22 -0.751,0.169 -1.169,0.152 -1.303,0.136 -1.705,0.101 -1.823,0.101 -1.956,0.086 -2.074,0.07 -2.074,-0.087 c 0,-0.174 0.118,-0.174 0.407,-0.174 h 0.744 c 1.389,0 2.015,-1.142 2.015,-2.789 0,-2.284 -1.168,-2.77 -1.911,-2.77 -0.727,0 -1.995,0.285 -2.587,1.276 0.59,-0.084 1.114,0.286 1.114,0.924 0,0.605 -0.453,0.941 -0.936,0.941 -0.402,0 -0.937,-0.236 -0.937,-0.978 0,-1.534 1.571,-2.647 3.412,-2.647 2.06,0 3.599,1.534 3.599,3.254 0,1.383 -1.074,2.697 -2.847,3.051"
         style="fill:#231f20;fill-opacity:1;fill-rule:nonzero;stroke:none"
         id="path186"
         inkscape:connector-curvature="0" /></g><g
       id="g188"
       transform="matrix(0.44827,0,0,0.44827,353.98935,697.33585)"><path
         d="m 0,0 c 0.912,0 1.567,-0.639 1.567,-1.904 0,-1.466 -0.844,-1.904 -1.522,-1.904 -0.471,0 -1.502,0.134 -1.994,0.847 0.551,0.023 0.68,0.419 0.68,0.671 0,0.383 -0.281,0.659 -0.643,0.659 -0.328,0 -0.656,-0.203 -0.656,-0.692 0,-1.12 1.221,-1.847 2.642,-1.847 1.633,0 2.763,1.102 2.763,2.285 0,0.923 -0.749,1.847 -2.034,2.119 1.226,0.45 1.672,1.337 1.672,2.059 0,0.936 -1.065,1.635 -2.362,1.635 -1.299,0 -2.292,-0.646 -2.292,-1.602 0,-0.408 0.258,-0.634 0.611,-0.634 0.363,0 0.597,0.27 0.597,0.598 0,0.34 -0.243,0.587 -0.617,0.611 0.408,0.58 1.215,0.725 1.648,0.725 0.527,0 1.262,-0.268 1.262,-1.322 C 1.322,1.793 1.159,1.236 0.855,0.86 0.471,0.4 0.142,0.374 -0.441,0.338 -0.734,0.314 -0.76,0.314 -0.816,0.302 -0.841,0.302 -0.934,0.28 -0.934,0.157 -0.934,0 -0.828,0 -0.631,0"
         style="fill:#231f20;fill-opacity:1;fill-rule:nonzero;stroke:none"
         id="path190"
         inkscape:connector-curvature="0" /></g><g
       id="g192"
       transform="matrix(0.44827,0,0,0.44827,357.65261,695.2227)"><path
         d="m 0,0 h 2.847 c 2.023,0 3.844,1.374 3.844,3.07 0,1.661 -1.67,3.155 -3.978,3.155 H -3.235 V 5.682 h 0.398 c 1.276,0 1.309,-0.187 1.309,-0.793 v -8.871 c 0,-0.606 -0.033,-0.791 -1.309,-0.791 h -0.398 v -0.544 c 0.59,0.051 1.836,0.051 2.477,0.051 0.641,0 1.904,0 2.494,-0.051 v 0.544 H 1.332 c -1.297,0 -1.331,0.185 -1.331,0.787 z m -0.076,0.423 v 4.579 c 0,0.559 0.033,0.68 0.827,0.68 h 1.502 c 2.685,0 2.685,-1.8 2.685,-2.631 0,-0.796 0,-2.628 -2.685,-2.628"
         style="fill:#231f20;fill-opacity:1;fill-rule:nonzero;stroke:none"
         id="path194"
         inkscape:connector-curvature="0" /></g><g
       id="g196"
       transform="matrix(0.44827,0,0,0.44827,363.76611,692.66443)"><path
         d="M 0,0 H -0.404 C -0.439,-0.255 -0.557,-0.936 -0.712,-1.052 -0.806,-1.12 -1.721,-1.12 -1.886,-1.12 H -4.07 c 1.246,1.096 1.661,1.427 2.373,1.981 0.877,0.696 1.696,1.426 1.696,2.546 0,1.427 -1.26,2.301 -2.783,2.301 -1.473,0 -2.471,-1.03 -2.471,-2.118 0,-0.604 0.513,-0.662 0.634,-0.662 0.286,0 0.634,0.203 0.634,0.635 0,0.215 -0.083,0.633 -0.696,0.633 0.368,0.831 1.176,1.089 1.732,1.089 1.188,0 1.803,-0.924 1.803,-1.883 0,-1.03 -0.738,-1.845 -1.119,-2.272 l -2.87,-2.816 c -0.118,-0.107 -0.118,-0.13 -0.118,-0.462 h 4.898"
         style="fill:#231f20;fill-opacity:1;fill-rule:nonzero;stroke:none"
         id="path198"
         inkscape:connector-curvature="0" /></g><g
       id="g200"
       transform="matrix(0.44827,0,0,0.44827,351.88472,584.99983)"><path
         d="m 0,0 h -0.42 c -0.084,-0.516 -0.201,-1.27 -0.369,-1.528 -0.12,-0.136 -1.229,-0.136 -1.598,-0.136 H -5.414 L -3.633,0.08 C -1.009,2.416 0,3.33 0,5.021 c 0,1.93 -1.514,3.283 -3.566,3.283 -1.899,0 -3.143,-1.547 -3.143,-3.044 0,-0.943 0.836,-0.943 0.884,-0.943 0.286,0 0.87,0.2 0.87,0.884 0,0.434 -0.3,0.869 -0.883,0.869 h -0.216 c 0.389,1.076 1.301,1.692 2.278,1.692 1.537,0 2.264,-1.367 2.264,-2.747 0,-1.347 -0.844,-2.677 -1.772,-3.722 l -3.24,-3.604 C -6.709,-2.494 -6.709,-2.53 -6.709,-2.934 h 6.237"
         style="fill:#231f20;fill-opacity:1;fill-rule:nonzero;stroke:none"
         id="path202"
         inkscape:connector-curvature="0" /></g><g
       id="g204"
       transform="matrix(0.44827,0,0,0.44827,353.728,588.18121)"><path
         d="m 0,0 c 0.913,0 1.567,-0.638 1.567,-1.903 0,-1.466 -0.844,-1.903 -1.523,-1.903 -0.47,0 -1.5,0.133 -1.992,0.846 0.55,0.023 0.679,0.417 0.679,0.67 0,0.383 -0.281,0.66 -0.644,0.66 -0.327,0 -0.656,-0.204 -0.656,-0.694 0,-1.118 1.222,-1.845 2.644,-1.845 1.634,0 2.762,1.101 2.762,2.284 0,0.925 -0.75,1.846 -2.034,2.12 1.227,0.449 1.671,1.336 1.671,2.059 0,0.935 -1.064,1.634 -2.361,1.634 -1.298,0 -2.292,-0.646 -2.292,-1.602 0,-0.407 0.258,-0.634 0.612,-0.634 0.363,0 0.597,0.269 0.597,0.598 0,0.341 -0.242,0.587 -0.619,0.611 0.408,0.58 1.216,0.725 1.648,0.725 0.528,0 1.264,-0.268 1.264,-1.323 C 1.323,1.793 1.159,1.237 0.855,0.861 0.47,0.4 0.142,0.374 -0.443,0.339 -0.735,0.315 -0.759,0.315 -0.817,0.302 -0.841,0.302 -0.935,0.28 -0.935,0.158 -0.935,0 -0.829,0 -0.631,0"
         style="fill:#231f20;fill-opacity:1;fill-rule:nonzero;stroke:none"
         id="path206"
         inkscape:connector-curvature="0" /></g><g
       id="g208"
       transform="matrix(0.44827,0,0,0.44827,357.39171,586.06806)"><path
         d="M 0,0 H 2.846 C 4.868,0 6.69,1.375 6.69,3.07 6.69,4.732 5.02,6.225 2.713,6.225 H -3.236 V 5.681 h 0.398 c 1.276,0 1.309,-0.185 1.309,-0.792 v -8.87 c 0,-0.607 -0.033,-0.791 -1.309,-0.791 h -0.398 v -0.544 c 0.59,0.051 1.837,0.051 2.478,0.051 0.64,0 1.903,0 2.494,-0.051 v 0.544 H 1.331 C 0.034,-4.772 0,-4.588 0,-3.985 Z m -0.078,0.423 v 4.581 c 0,0.558 0.034,0.677 0.827,0.677 h 1.503 c 2.685,0 2.685,-1.799 2.685,-2.63 0,-0.796 0,-2.628 -2.685,-2.628"
         style="fill:#231f20;fill-opacity:1;fill-rule:nonzero;stroke:none"
         id="path210"
         inkscape:connector-curvature="0" /></g><g
       id="g212"
       transform="matrix(0.44827,0,0,0.44827,363.50432,583.51023)"><path
         d="M 0,0 H -0.402 C -0.437,-0.255 -0.556,-0.937 -0.711,-1.052 -0.807,-1.121 -1.72,-1.121 -1.886,-1.121 H -4.07 c 1.247,1.096 1.662,1.426 2.374,1.981 C -0.818,1.556 0,2.287 0,3.407 c 0,1.426 -1.259,2.301 -2.783,2.301 -1.473,0 -2.473,-1.031 -2.473,-2.118 0,-0.603 0.515,-0.663 0.635,-0.663 0.287,0 0.633,0.204 0.633,0.635 0,0.216 -0.082,0.635 -0.694,0.635 0.367,0.829 1.174,1.087 1.731,1.087 1.188,0 1.805,-0.924 1.805,-1.883 0,-1.028 -0.738,-1.845 -1.12,-2.272 l -2.87,-2.816 c -0.12,-0.107 -0.12,-0.13 -0.12,-0.462 h 4.9"
         style="fill:#231f20;fill-opacity:1;fill-rule:nonzero;stroke:none"
         id="path214"
         inkscape:connector-curvature="0" /></g><g
       id="g216"
       transform="matrix(0.44827,0,0,0.44827,351.67448,596.33882)"><path
         d="M 0,0 H -0.42 C -0.504,-0.516 -0.621,-1.269 -0.791,-1.527 -0.907,-1.662 -2.018,-1.662 -2.387,-1.662 H -5.414 L -3.631,0.08 C -1.01,2.416 0,3.329 0,5.022 c 0,1.93 -1.514,3.283 -3.565,3.283 -1.9,0 -3.144,-1.547 -3.144,-3.047 0,-0.94 0.834,-0.94 0.885,-0.94 0.283,0 0.869,0.199 0.869,0.885 0,0.432 -0.3,0.867 -0.883,0.867 h -0.217 c 0.391,1.078 1.301,1.691 2.281,1.691 1.536,0 2.262,-1.365 2.262,-2.746 0,-1.346 -0.843,-2.677 -1.771,-3.721 L -6.524,-2.31 c -0.185,-0.185 -0.185,-0.219 -0.185,-0.624 h 6.238"
         style="fill:#231f20;fill-opacity:1;fill-rule:nonzero;stroke:none"
         id="path218"
         inkscape:connector-curvature="0" /></g><g
       id="g220"
       transform="matrix(0.44827,0,0,0.44827,353.51821,599.52064)"><path
         d="m 0,0 c 0.911,0 1.567,-0.639 1.567,-1.903 0,-1.467 -0.844,-1.904 -1.524,-1.904 -0.469,0 -1.5,0.133 -1.992,0.845 0.551,0.024 0.68,0.419 0.68,0.672 0,0.383 -0.282,0.659 -0.643,0.659 -0.329,0 -0.657,-0.204 -0.657,-0.692 0,-1.121 1.221,-1.847 2.643,-1.847 1.633,0 2.762,1.101 2.762,2.285 0,0.922 -0.748,1.846 -2.034,2.119 1.226,0.449 1.672,1.338 1.672,2.058 0,0.937 -1.064,1.635 -2.363,1.635 -1.296,0 -2.291,-0.645 -2.291,-1.601 0,-0.409 0.259,-0.634 0.612,-0.634 0.363,0 0.597,0.27 0.597,0.598 0,0.34 -0.242,0.587 -0.619,0.611 0.409,0.579 1.217,0.725 1.649,0.725 0.526,0 1.262,-0.268 1.262,-1.324 C 1.321,1.794 1.158,1.236 0.854,0.861 0.468,0.398 0.141,0.374 -0.444,0.338 -0.736,0.314 -0.76,0.314 -0.818,0.302 -0.842,0.302 -0.935,0.28 -0.935,0.156 -0.935,0 -0.83,0 -0.631,0"
         style="fill:#231f20;fill-opacity:1;fill-rule:nonzero;stroke:none"
         id="path222"
         inkscape:connector-curvature="0" /></g><g
       id="g224"
       transform="matrix(0.44827,0,0,0.44827,357.18148,597.40705)"><path
         d="m 0,0 h 2.848 c 2.021,0 3.843,1.375 3.843,3.07 0,1.662 -1.67,3.156 -3.978,3.156 H -3.235 V 5.681 h 0.398 c 1.275,0 1.308,-0.185 1.308,-0.791 v -8.871 c 0,-0.605 -0.033,-0.791 -1.308,-0.791 h -0.398 v -0.545 c 0.59,0.052 1.837,0.052 2.477,0.052 0.64,0 1.903,0 2.494,-0.052 v 0.545 H 1.332 C 0.034,-4.772 0,-4.586 0,-3.985 Z m -0.078,0.425 v 4.576 c 0,0.561 0.034,0.68 0.828,0.68 h 1.502 c 2.686,0 2.686,-1.798 2.686,-2.629 0,-0.797 0,-2.627 -2.686,-2.627"
         style="fill:#231f20;fill-opacity:1;fill-rule:nonzero;stroke:none"
         id="path226"
         inkscape:connector-curvature="0" /></g><g
       id="g228"
       transform="matrix(0.44827,0,0,0.44827,362.37424,597.25867)"><path
         d="M 0,0 C 0,0.32 -0.023,0.332 -0.352,0.332 -1.1,-0.441 -2.162,-0.453 -2.643,-0.453 v -0.424 c 0.288,0 1.079,0 1.735,0.339 v -6.018 c 0,-0.391 0,-0.543 -1.197,-0.543 h -0.454 v -0.424 c 0.211,0.013 1.663,0.048 2.098,0.048 0.367,0 1.854,-0.035 2.113,-0.048 v 0.424 H 1.197 c -1.199,0 -1.199,0.154 -1.199,0.545"
         style="fill:#231f20;fill-opacity:1;fill-rule:nonzero;stroke:none"
         id="path230"
         inkscape:connector-curvature="0" /></g><g
       id="g232"
       transform="matrix(0.44827,0,0,0.44827,352.89153,622.05025)"><path
         d="M 0,0 H -0.42 C -0.504,-0.515 -0.622,-1.267 -0.79,-1.525 -0.909,-1.663 -2.018,-1.663 -2.387,-1.663 H -5.412 L -3.631,0.08 C -1.008,2.416 0,3.33 0,5.024 c 0,1.927 -1.514,3.283 -3.565,3.283 -1.9,0 -3.143,-1.549 -3.143,-3.047 0,-0.942 0.835,-0.942 0.883,-0.942 0.286,0 0.87,0.201 0.87,0.885 0,0.434 -0.3,0.867 -0.883,0.867 h -0.216 c 0.389,1.079 1.301,1.693 2.279,1.693 1.536,0 2.264,-1.366 2.264,-2.747 0,-1.346 -0.845,-2.676 -1.773,-3.721 l -3.239,-3.604 c -0.185,-0.185 -0.185,-0.218 -0.185,-0.623 h 6.236"
         style="fill:#231f20;fill-opacity:1;fill-rule:nonzero;stroke:none"
         id="path234"
         inkscape:connector-curvature="0" /></g><g
       id="g236"
       transform="matrix(0.44827,0,0,0.44827,354.73527,625.23252)"><path
         d="m 0,0 c 0.912,0 1.566,-0.639 1.566,-1.904 0,-1.466 -0.844,-1.904 -1.523,-1.904 -0.469,0 -1.5,0.134 -1.992,0.848 0.551,0.022 0.679,0.418 0.679,0.67 0,0.383 -0.281,0.658 -0.643,0.658 -0.328,0 -0.655,-0.203 -0.655,-0.691 0,-1.122 1.22,-1.846 2.642,-1.846 1.633,0 2.761,1.099 2.761,2.283 0,0.924 -0.747,1.848 -2.033,2.119 1.227,0.449 1.671,1.338 1.671,2.06 0,0.935 -1.063,1.634 -2.36,1.634 -1.299,0 -2.293,-0.646 -2.293,-1.602 0,-0.406 0.26,-0.633 0.612,-0.633 0.363,0 0.597,0.269 0.597,0.598 0,0.341 -0.242,0.587 -0.619,0.609 0.41,0.581 1.217,0.727 1.65,0.727 0.526,0 1.262,-0.268 1.262,-1.324 C 1.322,1.793 1.158,1.235 0.854,0.86 0.469,0.399 0.141,0.374 -0.443,0.339 -0.736,0.314 -0.759,0.314 -0.817,0.302 -0.84,0.302 -0.936,0.28 -0.936,0.155 -0.936,0 -0.83,0 -0.631,0"
         style="fill:#231f20;fill-opacity:1;fill-rule:nonzero;stroke:none"
         id="path238"
         inkscape:connector-curvature="0" /></g><g
       id="g240"
       transform="matrix(0.44827,0,0,0.44827,358.39853,623.11937)"><path
         d="M 0,0 H 2.848 C 4.87,0 6.69,1.373 6.69,3.07 6.69,4.731 5.02,6.225 2.713,6.225 H -3.235 V 5.68 h 0.397 c 1.275,0 1.311,-0.186 1.311,-0.791 v -8.872 c 0,-0.605 -0.036,-0.79 -1.311,-0.79 h -0.397 v -0.544 c 0.589,0.051 1.837,0.051 2.477,0.051 0.641,0 1.903,0 2.493,-0.051 v 0.544 H 1.332 c -1.297,0 -1.33,0.185 -1.33,0.787 z m -0.076,0.424 v 4.578 c 0,0.559 0.031,0.678 0.827,0.678 h 1.501 c 2.685,0 2.685,-1.797 2.685,-2.629 0,-0.795 0,-2.627 -2.685,-2.627"
         style="fill:#231f20;fill-opacity:1;fill-rule:nonzero;stroke:none"
         id="path242"
         inkscape:connector-curvature="0" /></g><g
       id="g244"
       transform="matrix(0.44827,0,0,0.44827,364.56628,621.28819)"><path
         d="m 0,0 c 0,1.303 -0.154,2.237 -0.699,3.065 -0.367,0.545 -1.102,1.02 -2.05,1.02 -2.75,0 -2.75,-3.234 -2.75,-4.085 0,-0.853 0,-4.013 2.75,-4.013 C 0,-4.013 0,-0.853 0,0 m -2.749,-3.71 c -0.541,0 -1.262,0.322 -1.496,1.301 -0.166,0.703 -0.166,1.681 -0.166,2.564 0,0.871 0,1.778 0.177,2.434 0.247,0.941 1.002,1.194 1.485,1.194 0.636,0 1.249,-0.395 1.461,-1.087 0.189,-0.644 0.201,-1.504 0.201,-2.541 0,-0.883 0,-1.765 -0.154,-2.517 -0.237,-1.085 -1.037,-1.348 -1.508,-1.348"
         style="fill:#231f20;fill-opacity:1;fill-rule:nonzero;stroke:none"
         id="path246"
         inkscape:connector-curvature="0" /></g><g
       id="g248"
       transform="matrix(0.44827,0,0,0.44827,283.53968,699.4082)"><path
         d="m 0,0 c 1.77,0.585 3.023,2.104 3.023,3.817 0,1.78 -1.902,2.994 -3.975,2.994 -2.182,0 -3.823,-1.292 -3.823,-2.929 0,-0.71 0.482,-1.119 1.119,-1.119 0.68,0 1.118,0.473 1.118,1.098 0,1.078 -1.05,1.078 -1.385,1.078 0.671,1.051 2.097,1.33 2.874,1.33 0.887,0 2.077,-0.479 2.077,-2.434 C 1.028,3.575 0.983,2.315 0.422,1.36 -0.226,0.317 -0.961,0.252 -1.501,0.231 -1.672,0.208 -2.191,0.166 -2.342,0.166 -2.515,0.144 -2.666,0.123 -2.666,-0.087 c 0,-0.231 0.152,-0.231 0.52,-0.231 h 0.954 c 1.778,0 2.58,-1.478 2.58,-3.607 0,-2.954 -1.496,-3.584 -2.45,-3.584 -0.932,0 -2.557,0.367 -3.316,1.646 0.752,-0.109 1.418,0.367 1.418,1.189 0,0.779 -0.584,1.214 -1.209,1.214 -0.518,0 -1.21,-0.305 -1.21,-1.256 0,-1.969 2.019,-3.398 4.383,-3.398 2.647,0 4.622,1.974 4.622,4.188 C 3.626,-2.147 2.258,-0.456 0,0"
         style="fill:#231f20;fill-opacity:1;fill-rule:nonzero;stroke:none"
         id="path250"
         inkscape:connector-curvature="0" /></g><g
       id="g252"
       transform="matrix(0.44827,0,0,0.44827,287.45263,701.78448)"><path
         d="m 0,0 c 1.179,0 2.028,-0.821 2.028,-2.448 0,-1.884 -1.091,-2.446 -1.97,-2.446 -0.605,0 -1.937,0.171 -2.573,1.087 0.711,0.03 0.878,0.534 0.878,0.854 0,0.487 -0.364,0.839 -0.833,0.839 -0.424,0 -0.848,-0.261 -0.848,-0.889 0,-1.44 1.577,-2.374 3.412,-2.374 2.107,0 3.565,1.412 3.565,2.932 0,1.185 -0.975,2.37 -2.648,2.719 1.597,0.577 2.175,1.717 2.175,2.644 0,1.2 -1.384,2.099 -3.072,2.099 -1.688,0 -2.981,-0.821 -2.981,-2.035 0,-0.518 0.335,-0.806 0.792,-0.806 0.474,0 0.779,0.352 0.779,0.779 0,0.442 -0.299,0.763 -0.763,0.793 0.529,0.676 1.574,0.846 2.134,0.846 0.681,0 1.633,-0.335 1.633,-1.66 C 1.708,2.294 1.497,1.595 1.103,1.123 0.604,0.545 0.18,0.516 -0.576,0.469 -0.955,0.44 -0.984,0.44 -1.06,0.424 c -0.031,0 -0.151,-0.032 -0.151,-0.204 0,-0.218 0.136,-0.218 0.393,-0.218"
         style="fill:#231f20;fill-opacity:1;fill-rule:nonzero;stroke:none"
         id="path254"
         inkscape:connector-curvature="0" /></g><g
       id="g256"
       transform="matrix(0.44827,0,0,0.44827,292.13884,699.04869)"><path
         d="m 0,0 h 3.667 c 2.601,0 4.947,1.76 4.947,3.933 0,2.13 -2.15,4.044 -5.121,4.044 H -4.163 V 7.312 h 0.512 c 1.646,0 1.689,-0.24 1.689,-1.02 V -5.143 c 0,-0.781 -0.043,-1.02 -1.689,-1.02 h -0.512 v -0.664 c 0.759,0.064 2.364,0.064 3.187,0.064 0.824,0 2.452,0 3.211,-0.064 v 0.664 H 1.713 C 0.044,-6.163 0,-5.925 0,-5.147 Z m -0.089,0.544 v 5.895 c 0,0.72 0.045,0.874 1.067,0.874 h 1.938 c 3.461,0 3.461,-2.314 3.461,-3.385 0,-1.026 0,-3.383 -3.461,-3.383"
         style="fill:#231f20;fill-opacity:1;fill-rule:nonzero;stroke:none"
         id="path258"
         inkscape:connector-curvature="0" /></g><g
       id="g308"
       transform="matrix(0.44827,0,0,0.44827,307.02813,694.61844)"><path
         d="M 0,0 H 85.645"
         style="fill:none;stroke:#231f20;stroke-width:2;stroke-linecap:butt;stroke-linejoin:miter;stroke-miterlimit:4;stroke-dasharray:none;stroke-opacity:1"
         id="path310"
         inkscape:connector-curvature="0" /></g><g
       id="g312"
       transform="matrix(0.44827,0,0,0.44827,307.02768,700.30833)"><path
         d="M 0,0 H 85.646"
         style="fill:none;stroke:#231f20;stroke-width:2;stroke-linecap:butt;stroke-linejoin:miter;stroke-miterlimit:4;stroke-dasharray:none;stroke-opacity:1"
         id="path314"
         inkscape:connector-curvature="0" /></g><g
       id="g316"
       transform="matrix(0.44827,0,0,0.44827,307.02813,723.61164)"><path
         d="M 0,0 H 85.645"
         style="fill:none;stroke:#231f20;stroke-width:2;stroke-linecap:butt;stroke-linejoin:miter;stroke-miterlimit:4;stroke-dasharray:none;stroke-opacity:1"
         id="path318"
         inkscape:connector-curvature="0" /></g><g
       id="g320"
       transform="matrix(0.44827,0,0,0.44827,260.0705,706.39807)"><path
         d="M 0,0 H 85.647"
         style="fill:none;stroke:#231f20;stroke-width:5;stroke-linecap:butt;stroke-linejoin:miter;stroke-miterlimit:4;stroke-dasharray:none;stroke-opacity:1"
         id="path322"
         inkscape:connector-curvature="0" /></g><g
       id="g324"
       transform="matrix(0.44827,0,0,0.44827,298.46349,707.12472)"><path
         d="M 0,0 19.106,36.779"
         style="fill:none;stroke:#231f20;stroke-width:1;stroke-linecap:butt;stroke-linejoin:miter;stroke-miterlimit:4;stroke-dasharray:2, 2;stroke-dashoffset:0;stroke-opacity:1"
         id="path326"
         inkscape:connector-curvature="0" /></g><g
       id="g328"
       transform="matrix(0.44827,0,0,0.44827,298.46349,706.39807)"><path
         d="M 0,0 19.105,-13.585"
         style="fill:none;stroke:#231f20;stroke-width:1;stroke-linecap:butt;stroke-linejoin:miter;stroke-miterlimit:4;stroke-dasharray:2, 2;stroke-dashoffset:0;stroke-opacity:1"
         id="path330"
         inkscape:connector-curvature="0" /></g><g
       id="g332"
       transform="matrix(0.44827,0,0,0.44827,298.46349,706.39807)"><path
         d="M 0,0 19.106,-26.278"
         style="fill:none;stroke:#231f20;stroke-width:1;stroke-linecap:butt;stroke-linejoin:miter;stroke-miterlimit:4;stroke-dasharray:2, 2;stroke-dashoffset:0;stroke-opacity:1"
         id="path334"
         inkscape:connector-curvature="0" /></g><g
       id="g336"
       transform="matrix(0.44827,0,0,0.44827,309.10452,590.06304)"><path
         d="M 0,0 H 85.646"
         style="fill:none;stroke:#231f20;stroke-width:2;stroke-linecap:butt;stroke-linejoin:miter;stroke-miterlimit:4;stroke-dasharray:none;stroke-opacity:1"
         id="path338"
         inkscape:connector-curvature="0" /></g><g
       id="g340"
       transform="matrix(0.44827,0,0,0.44827,309.10452,595.75249)"><path
         d="M 0,0 H 85.646"
         style="fill:none;stroke:#231f20;stroke-width:2;stroke-linecap:butt;stroke-linejoin:miter;stroke-miterlimit:4;stroke-dasharray:none;stroke-opacity:1"
         id="path342"
         inkscape:connector-curvature="0" /></g><g
       id="g344"
       transform="matrix(0.44827,0,0,0.44827,309.10452,619.05491)"><path
         d="M 0,0 H 85.646"
         style="fill:none;stroke:#231f20;stroke-width:2;stroke-linecap:butt;stroke-linejoin:miter;stroke-miterlimit:4;stroke-dasharray:none;stroke-opacity:1"
         id="path346"
         inkscape:connector-curvature="0" /></g><g
       id="g348"
       transform="matrix(0.44827,0,0,0.44827,262.14734,601.84223)"><path
         d="M 0,0 H 85.648"
         style="fill:none;stroke:#231f20;stroke-width:5;stroke-linecap:butt;stroke-linejoin:miter;stroke-miterlimit:4;stroke-dasharray:none;stroke-opacity:1"
         id="path350"
         inkscape:connector-curvature="0" /></g><g
       id="g352"
       transform="matrix(0.44827,0,0,0.44827,300.54077,602.56888)"><path
         d="M 0,0 19.104,36.777"
         style="fill:none;stroke:#231f20;stroke-width:1;stroke-linecap:butt;stroke-linejoin:miter;stroke-miterlimit:4;stroke-dasharray:2, 2;stroke-dashoffset:0;stroke-opacity:1"
         id="path354"
         inkscape:connector-curvature="0" /></g><g
       id="g356"
       transform="matrix(0.44827,0,0,0.44827,300.54077,601.84223)"><path
         d="M 0,0 19.104,-13.585"
         style="fill:none;stroke:#231f20;stroke-width:1;stroke-linecap:butt;stroke-linejoin:miter;stroke-miterlimit:4;stroke-dasharray:2, 2;stroke-dashoffset:0;stroke-opacity:1"
         id="path358"
         inkscape:connector-curvature="0" /></g><g
       id="g360"
       transform="matrix(0.44827,0,0,0.44827,300.54077,601.84223)"><path
         d="M 0,0 19.104,-26.277"
         style="fill:none;stroke:#231f20;stroke-width:1;stroke-linecap:butt;stroke-linejoin:miter;stroke-miterlimit:4;stroke-dasharray:2, 2;stroke-dashoffset:0;stroke-opacity:1"
         id="path362"
         inkscape:connector-curvature="0" /></g><g
       id="g364"
       transform="matrix(0.44827,0,0,0.44827,243.52665,575.57137)"><path
         d="M 0,0 85.68,53.515"
         style="fill:none;stroke:#ed1c24;stroke-width:3;stroke-linecap:butt;stroke-linejoin:miter;stroke-miterlimit:4;stroke-dasharray:none;stroke-opacity:1"
         id="path366"
         inkscape:connector-curvature="0" /></g><g
       id="g368"
       transform="matrix(0.44827,0,0,0.44827,284.89032,601.20031)"><path
         d="m 0,0 c -3.254,-4.421 -6.803,-10.654 -8.218,-15.71 l -2.125,8.915 -7.339,5.495 C -12.48,-2.011 -5.351,-1.23 0,0"
         style="fill:#ed1c24;fill-opacity:1;fill-rule:nonzero;stroke:none"
         id="path370"
         inkscape:connector-curvature="0" /></g><g
       id="g400"
       transform="matrix(0.44827,0,0,0.44827,240.50442,574.86535)"><path
         d="M 0,0 199.651,318.595"
         style="fill:none;stroke:#0b8ed8;stroke-width:3;stroke-linecap:butt;stroke-linejoin:miter;stroke-miterlimit:4;stroke-dasharray:none;stroke-opacity:1"
         id="path402"
         inkscape:connector-curvature="0" /></g><g
       id="g404"
       transform="matrix(0.44827,0,0,0.44827,332.26394,722.742)"><path
         d="m 0,0 c -0.289,-5.483 0.171,-12.64 1.766,-17.642 l -6.675,6.281 -9.15,0.557 C -9.322,-8.539 -3.794,-3.969 0,0"
         style="fill:#0b8ed8;fill-opacity:1;fill-rule:nonzero;stroke:none"
         id="path406"
         inkscape:connector-curvature="0" /></g><g
       id="g408"
       transform="matrix(0.44827,0,0,0.44827,212.5252,575.97033)"><path
         d="M 0,0 H 85.647"
         style="fill:none;stroke:#231f20;stroke-width:5;stroke-linecap:butt;stroke-linejoin:miter;stroke-miterlimit:4;stroke-dasharray:none;stroke-opacity:1"
         id="path410"
         inkscape:connector-curvature="0" /></g><text
       transform="matrix(0.83732513,0.54669475,0.54669993,-0.83733546,0,0)"
       style="font-variant:normal;font-weight:normal;font-stretch:normal;font-size:8.66816711px;font-family:Myriad;-inkscape-font-specification:Myriad-Roman;writing-mode:lr-tb;fill:#ed1c24;fill-opacity:1;fill-rule:nonzero;stroke:none;stroke-width:0.44826868"
       id="text414"
       x="527.85864"
       y="-340.88474"><tspan
         x="527.85864 532.30542 536.7522 541.19897 545.64575 547.4834 552.29419"
         y="-340.88474"
         sodipodi:role="line"
         id="tspan412"
         style="stroke-width:0.44826868">1083 nm</tspan></text>
<text
       transform="matrix(0.53601088,0.84421107,0.84421107,-0.53601088,0,0)"
       style="font-variant:normal;font-weight:normal;font-stretch:normal;font-size:8.66824532px;font-family:Myriad;-inkscape-font-specification:Myriad-Roman;writing-mode:lr-tb;fill:#0c8db4;fill-opacity:1;fill-rule:nonzero;stroke:none;stroke-width:0.44826999"
       id="text418"
       x="689.5495"
       y="-108.67294"><tspan
         x="689.5495 693.99634 698.44312 702.88995 704.7276 709.53851"
         y="-108.67294"
         sodipodi:role="line"
         id="tspan416"
         style="stroke-width:0.44826999">389 nm</tspan></text>
<g
       id="g420"
       transform="matrix(0.44827,0,0,0.44827,215.75364,577.0789)"><path
         d="M 0,0 -108.765,79.762"
         style="fill:#582691;fill-opacity:1;fill-rule:nonzero;stroke:none"
         id="path422"
         inkscape:connector-curvature="0" /></g><g
       id="g424"
       transform="matrix(0.44827,0,0,0.44827,215.75364,577.0789)"><path
         d="M 0,0 -108.765,79.762"
         style="fill:none;stroke:#58278f;stroke-width:3;stroke-linecap:butt;stroke-linejoin:miter;stroke-miterlimit:4;stroke-dasharray:none;stroke-opacity:1"
         id="path426"
         inkscape:connector-curvature="0" /></g><g
       id="g428"
       transform="matrix(0.44827,0,0,0.44827,163.04291,615.73367)"><path
         d="M 0,0 C 5.281,-1.505 12.359,-2.653 17.591,-2.212 L 9.98,-7.319 7.397,-16.114 C 6.245,-10.991 3.022,-4.585 0,0"
         style="fill:#4e3fa0;fill-opacity:1;fill-rule:nonzero;stroke:none"
         id="path430"
         inkscape:connector-curvature="0" /></g><text
       transform="matrix(0.79182992,-0.61074167,-0.61074167,-0.79182992,0,0)"
       style="font-variant:normal;font-weight:normal;font-stretch:normal;font-size:8.6681881px;font-family:Myriad;-inkscape-font-specification:Myriad-Roman;writing-mode:lr-tb;fill:#4e3fa0;fill-opacity:1;fill-rule:nonzero;stroke:none;stroke-width:0.44826999"
       id="text434"
       x="-227.06271"
       y="-579.78259"><tspan
         x="-227.06271 -222.61594 -218.16914 -213.72237 -209.27559 -207.43793 -202.62709"
         y="-579.78259"
         sodipodi:role="line"
         id="tspan432"
         style="stroke-width:0.44826999">1557 nm</tspan></text>
<g
       id="g436"
       transform="matrix(0.44827,0,0,0.44827,185.99837,500.02353)"><path
         d="M 0,0 66.91,156.909"
         style="fill:none;stroke:#231f20;stroke-width:3;stroke-linecap:butt;stroke-linejoin:miter;stroke-miterlimit:4;stroke-dasharray:2, 2;stroke-dashoffset:0;stroke-opacity:1"
         id="path438"
         inkscape:connector-curvature="0" /></g><g
       id="g440"
       transform="matrix(0.44827,0,0,0.44827,218.07702,574.7999)"><path
         d="m 0,0 c -0.459,-5.471 -0.224,-12.639 1.217,-17.687 l -6.478,6.485 -9.127,0.841 C -9.582,-8.245 -3.917,-3.848 0,0"
         style="fill:#231f20;fill-opacity:1;fill-rule:nonzero;stroke:none"
         id="path442"
         inkscape:connector-curvature="0" /></g><text
       transform="scale(0.99999482,-1.0000052)"
       style="font-variant:normal;font-weight:normal;font-stretch:normal;font-size:8.66815186px;font-family:Myriad;-inkscape-font-specification:Myriad-Roman;writing-mode:lr-tb;fill:#231f20;fill-opacity:1;fill-rule:nonzero;stroke:none;stroke-width:0.44826767"
       id="text446"
       x="208.64125"
       y="-519.64728"><tspan
         x="208.64125 213.08801 217.53477 219.37242 223.71516"
         y="-519.64728"
         sodipodi:role="line"
         id="tspan444"
         style="stroke-width:0.44826767">20 eV</tspan></text>
<text
       transform="scale(0.99999655,-1.0000034)"
       style="font-variant:normal;font-weight:normal;font-stretch:normal;font-size:6.50110292px;font-family:Myriad;-inkscape-font-specification:Myriad-Roman;writing-mode:lr-tb;fill:#231f20;fill-opacity:1;fill-rule:nonzero;stroke:none;stroke-width:0.44826844"
       id="text456"
       x="223.74532"
       y="-578.83661"><tspan
         x="223.74532 227.08038 228.4261 231.76117 233.1394 236.18842"
         y="-578.83661"
         sodipodi:role="line"
         id="tspan448"
         style="stroke-width:0.44826844">7.9 ks</tspan><tspan
         x="165.918 169.25307 172.58813 173.93385 177.26892 180.60399 181.98222 187.40414"
         y="-621.50336"
         sodipodi:role="line"
         id="tspan450"
         style="stroke-width:0.44826844">19.60 ms</tspan><tspan
         x="267.49774 270.83279 274.16788 275.51358 278.84866 282.18372 283.56195 287.17007"
         y="-708.8587"
         sodipodi:role="line"
         id="tspan452"
         style="stroke-width:0.44826844">94.76 ns</tspan><tspan
         x="265.05981 268.3949 271.72995 273.07568 276.41074 279.74582 281.12405 284.73215"
         y="-604.84106"
         sodipodi:role="line"
         id="tspan454"
         style="stroke-width:0.44826844">97.95 ns</tspan></text>
<g
       id="g470"
       transform="matrix(0.44827,0,0,0.44827,150.62045,479.85138)"><path
         d="M 0,0 V 566.998"
         style="fill:none;stroke:#231f20;stroke-width:3;stroke-linecap:butt;stroke-linejoin:miter;stroke-miterlimit:4;stroke-dasharray:none;stroke-opacity:1"
         id="path472"
         inkscape:connector-curvature="0" /></g><g
       id="g474"
       transform="matrix(0.44827,0,0,0.44827,150.62045,741.72982)"><path
         d="M 0,0 C 3.003,-8.094 8.127,-18.135 13.551,-24.358 L 0,-19.457 -13.552,-24.358 C -8.127,-18.135 -3.002,-8.094 0,0"
         style="fill:#231f20;fill-opacity:1;fill-rule:nonzero;stroke:none"
         id="path476"
         inkscape:connector-curvature="0" /></g><text
       transform="matrix(0,1,1,0,0,0)"
       style="font-variant:normal;font-weight:normal;font-stretch:normal;font-size:15.33083439px;font-family:Myriad;-inkscape-font-specification:Myriad-Roman;writing-mode:lr-tb;fill:#231f20;fill-opacity:1;fill-rule:nonzero;stroke:none;stroke-width:0.44826999"
       id="text480"
       x="606.21747"
       y="142.10313"><tspan
         x="606.21747 613.76025 622.26886 629.94958 634.85547 643.42542"
         y="142.10313"
         sodipodi:role="line"
         id="tspan478"
         style="stroke-width:0.44826999">Energy</tspan></text>
<g
       id="g482"
       transform="matrix(0.44827,0,0,0.44827,198.9982,541.26437)"><path
         d="M 0,0 16,-20"
         style="fill:none;stroke:#231f20;stroke-width:2;stroke-linecap:butt;stroke-linejoin:miter;stroke-miterlimit:4;stroke-dasharray:none;stroke-opacity:1"
         id="path484"
         inkscape:connector-curvature="0" /></g><g
       id="g486"
       transform="matrix(0.44827,0,0,0.44827,195.993,538.74509)"><path
         d="M 0,0 16,-20"
         style="fill:none;stroke:#231f20;stroke-width:2;stroke-linecap:butt;stroke-linejoin:miter;stroke-miterlimit:4;stroke-dasharray:none;stroke-opacity:1"
         id="path488"
         inkscape:connector-curvature="0" /></g><g
       id="g490"
       transform="matrix(0.44827,0,0,0.44827,158.26346,662.37258)"><path
         d="M 0,0 H 85.647"
         style="fill:none;stroke:#231f20;stroke-width:5;stroke-linecap:butt;stroke-linejoin:miter;stroke-miterlimit:4;stroke-dasharray:none;stroke-opacity:1"
         id="path492"
         inkscape:connector-curvature="0" /></g><g
       id="g494"
       transform="matrix(0.44827,0,0,0.44827,158.26346,716.61325)"><path
         d="M 0,0 H 85.647"
         style="fill:none;stroke:#231f20;stroke-width:5;stroke-linecap:butt;stroke-linejoin:miter;stroke-miterlimit:4;stroke-dasharray:none;stroke-opacity:1"
         id="path496"
         inkscape:connector-curvature="0" /></g><g
       id="g498"
       transform="matrix(0.44827,0,0,0.44827,194.60919,653.76714)"><path
         d="m 0,0 c 0,0.412 -0.031,0.428 -0.455,0.428 -0.968,-0.952 -2.346,-0.967 -2.967,-0.967 v -0.544 c 0.366,0 1.374,0 2.213,0.401 V -8.42 c 0,-0.502 0,-0.699 -1.526,-0.699 h -0.581 v -0.543 c 0.273,0.014 2.14,0.059 2.701,0.059 0.47,0 2.381,-0.045 2.715,-0.059 v 0.543 H 1.521 C 0,-9.119 0,-8.922 0,-8.42"
         style="fill:#231f20;fill-opacity:1;fill-rule:nonzero;stroke:none"
         id="path500"
         inkscape:connector-curvature="0" /></g><g
       id="g502"
       transform="matrix(0.44827,0,0,0.44827,189.58453,654.92368)"><path
         d="m 0,0 h 3.667 c 2.601,0 4.948,1.76 4.948,3.933 0,2.13 -2.151,4.044 -5.121,4.044 H -4.163 V 7.312 h 0.512 c 1.646,0 1.689,-0.24 1.689,-1.02 V -5.143 c 0,-0.781 -0.043,-1.019 -1.689,-1.019 h -0.512 v -0.665 c 0.759,0.064 2.364,0.064 3.187,0.064 0.824,0 2.452,0 3.211,-0.064 v 0.665 H 1.713 C 0.044,-6.162 0,-5.925 0,-5.147 Z m -0.089,0.544 v 5.895 c 0,0.72 0.045,0.874 1.067,0.874 h 1.938 c 3.46,0 3.46,-2.314 3.46,-3.385 0,-1.026 0,-3.383 -3.46,-3.383"
         style="fill:#231f20;fill-opacity:1;fill-rule:nonzero;stroke:none"
         id="path504"
         inkscape:connector-curvature="0" /></g><g
       id="g506"
       transform="matrix(0.44827,0,0,0.44827,186.39643,660.03351)"><path
         d="M 0,0 C 0,0.411 -0.031,0.428 -0.454,0.428 -1.424,-0.524 -2.801,-0.54 -3.422,-0.54 v -0.544 c 0.366,0 1.373,0 2.213,0.4 v -7.737 c 0,-0.501 0,-0.699 -1.527,-0.699 h -0.58 v -0.544 c 0.274,0.016 2.139,0.06 2.7,0.06 0.471,0 2.382,-0.044 2.716,-0.06 V -9.12 H 1.522 C 0,-9.12 0,-8.922 0,-8.42"
         style="fill:#231f20;fill-opacity:1;fill-rule:nonzero;stroke:none"
         id="path508"
         inkscape:connector-curvature="0" /></g><g
       id="g510"
       transform="matrix(0.44827,0,0,0.44827,194.60919,708.45608)"><path
         d="m 0,0 c 0,0.412 -0.031,0.428 -0.455,0.428 -0.968,-0.951 -2.346,-0.967 -2.967,-0.967 v -0.544 c 0.366,0 1.374,0 2.213,0.401 V -8.42 c 0,-0.502 0,-0.699 -1.525,-0.699 h -0.582 v -0.543 c 0.273,0.014 2.14,0.059 2.701,0.059 0.47,0 2.381,-0.045 2.715,-0.059 v 0.543 H 1.521 C 0,-9.119 0,-8.922 0,-8.42"
         style="fill:#231f20;fill-opacity:1;fill-rule:nonzero;stroke:none"
         id="path512"
         inkscape:connector-curvature="0" /></g><g
       id="g514"
       transform="matrix(0.44827,0,0,0.44827,189.58453,709.61262)"><path
         d="m 0,0 h 3.668 c 2.6,0 4.947,1.76 4.947,3.933 0,2.13 -2.15,4.044 -5.121,4.044 H -4.163 V 7.312 h 0.512 c 1.646,0 1.689,-0.24 1.689,-1.02 V -5.142 c 0,-0.782 -0.043,-1.02 -1.689,-1.02 h -0.512 v -0.664 c 0.759,0.062 2.364,0.062 3.186,0.062 0.825,0 2.454,0 3.212,-0.062 v 0.664 H 1.713 C 0.044,-6.162 0,-5.926 0,-5.146 Z m -0.089,0.544 v 5.895 c 0,0.72 0.045,0.874 1.068,0.874 h 1.937 c 3.461,0 3.461,-2.314 3.461,-3.385 0,-1.026 0,-3.383 -3.461,-3.383"
         style="fill:#231f20;fill-opacity:1;fill-rule:nonzero;stroke:none"
         id="path516"
         inkscape:connector-curvature="0" /></g><g
       id="g518"
       transform="matrix(0.44827,0,0,0.44827,186.39643,714.72245)"><path
         d="M 0,0 C 0,0.411 -0.031,0.428 -0.454,0.428 -1.424,-0.524 -2.801,-0.54 -3.422,-0.54 v -0.544 c 0.366,0 1.373,0 2.213,0.4 v -7.737 c 0,-0.501 0,-0.699 -1.527,-0.699 h -0.58 v -0.544 c 0.274,0.016 2.139,0.06 2.7,0.06 0.471,0 2.382,-0.044 2.716,-0.06 V -9.12 H 1.522 C 0,-9.12 0,-8.922 0,-8.42"
         style="fill:#231f20;fill-opacity:1;fill-rule:nonzero;stroke:none"
         id="path520"
         inkscape:connector-curvature="0" /></g><text
       transform="scale(1,-1)"
       style="font-variant:normal;font-weight:normal;font-stretch:normal;font-size:9.86194038px;font-family:'Times New Roman';-inkscape-font-specification:TimesNewRomanPSMT;writing-mode:lr-tb;fill:#231f20;fill-opacity:1;fill-rule:nonzero;stroke:none;stroke-width:0.44826999"
       id="text524"
       x="179.27432"
       y="-706.47479"><tspan
         x="179.27432"
         y="-706.47479"
         id="tspan522"
         style="stroke-width:0.44826999">3</tspan></text>
<g
       id="g882"
       transform="matrix(0.2942657,-0.2277985,0.2278137,0.2942505,121.95569,556.64667)"><g
         id="g884"
         clip-path="url(#clipPath888)"><g
           id="g890"
           transform="translate(197.37381,234.12371)"><path
             d="M 0,0 -108.765,79.762"
             style="fill:#582691;fill-opacity:1;fill-rule:nonzero;stroke:none"
             id="path892"
             inkscape:connector-curvature="0" /></g></g></g></g></svg>